<svg xmlns="http://www.w3.org/2000/svg" viewBox="0 0 716.61 546.7"><defs><style>.cls-1{fill:#fefefe;}.cls-2{fill:#f8e8c8;}.cls-3{fill:#f9e8c8;}.cls-4{fill:#f8d3ad;}.cls-5{fill:#504649;}.cls-6{fill:#4c4346;}.cls-7{fill:#92867a;}.cls-8{fill:#f7deb4;}.cls-9{fill:#97a904;}.cls-10{fill:#536506;}.cls-11{fill:#e2970e;}.cls-12{fill:#080604;}.cls-13{fill:#f3d1aa;}.cls-14{fill:#e09302;}.cls-15{fill:#3e3537;}.cls-16{fill:#a24a48;}.cls-17{fill:#fabca4;}.cls-18{fill:#f7e6c7;}.cls-19{fill:#fcf9f5;}.cls-20{fill:#a19281;}.cls-21{fill:#e79a15;}.cls-22{fill:#c9bab3;}.cls-23{fill:#e5990e;}.cls-24{fill:#eeb558;}.cls-25{fill:#fce8db;}.cls-26{fill:#fee9bb;}.cls-27{fill:#7b6f68;}.cls-28{fill:#f4d294;}.cls-29{fill:#c88811;}.cls-30{fill:#fde8db;}</style></defs><title>cozentusAsset 2</title><g id="Layer_2" data-name="Layer 2"><g id="Designed_by_Freepik" data-name="Designed by Freepik"><path class="cls-1" d="M667.34,112.56l-3-3.86c-4.83-9.59-13.53-10.74-22.94-10.79-21.71-.11-43.41-.41-65.11-.63-2.78-2.24-5.29-5-8.38-6.66C496.9,52.16,423.12,21,342.94,7.79,317.44,3.59,291.5,1.7,265.68.11,254.43-.58,243,2.2,231.59,3.26c-36.77,3.44-66.67,19.83-89.82,48.33-23.62,29.07-33.65,63.92-39.61,99.88-5.31,32.05-17.45,59-41.71,82-41,38.94-57.88,89.64-60.29,145-1.44,33,7.13,64.84,20.09,94.81,9.56,22.1,26,39.17,49.72,47.74,27.19,9.82,53.7,21.93,83.38,22.66,29,.71,58.4,5.13,86.85,1.61,31.35-3.88,62.25-13.56,92.56-23.21,43.92-14,87.06-14.74,131.58-2.62,30.6,8.33,61.14,20.13,93.92,16.16,27.73-3.36,54.52-9.8,76.52-28.71l10.58-7.62c18.93-13,33.86-30.37,42.79-50.74C709.85,399.1,721,347.4,715,292.59A217.26,217.26,0,0,0,670.8,182l-2.28-65.36c.28-.5.93-1.19.78-1.46A18.22,18.22,0,0,0,667.34,112.56Z"/><path class="cls-2" d="M634.78,507c-22,18.91-48.79,25.35-76.52,28.71-32.78,4-63.32-7.83-93.92-16.16-44.52-12.12-87.66-11.37-131.58,2.62-30.31,9.65-61.21,19.33-92.56,23.21-28.45,3.52-57.86-.9-86.85-1.61C123.67,543,97.16,530.9,70,521.08c-23.74-8.57-40.16-25.64-49.72-47.74-13-30-21.53-61.83-20.09-94.81,2.41-55.39,19.33-106.09,60.29-145,24.26-23.07,36.4-50,41.71-82,6-36,16-70.81,39.61-99.88,23.15-28.5,53-44.89,89.82-48.33C243,2.2,254.43-.58,265.68.11c25.82,1.59,51.76,3.48,77.26,7.68C423.12,21,496.9,52.16,567.88,90.62c3.09,1.67,5.6,4.42,8.38,6.66-6.65.26-13.3.73-20,.74q-129.19.08-258.38.06c-5.44,0-11-.07-16.27.86-1.29.23-1.91,4.29-2.84,6.6l.12,0c.09-7.74-4.76-7.63-9.71-5.43-9.76,4.35-14.68,12.13-14.64,23q.41,100.8.75,201.59l-.45,18.85c-5.69-3.25-11.52-6.27-17-9.8-17.36-11.16-35.87-16.44-58.45-12.14l57.93,86.74c-25.84,4-50.64,10.76-73.68,28.13,31.2,19.43,63.44,29.55,98.72,30.1l-13.17,12.9,13.7,14.77c22.33,5.84,43,7.62,64.11,1.62,34.28-9.76,69.51-7.38,104.53-7.49,9.72,0,19.45,0,29.17,0,7.89-.06,15.79-.09,23.68-.43,17.42-.73,34.83-1.67,52.24-2.39,1-.05,2.07,1.13,3.69,2.08L547.16,502C576.4,506.39,605.05,514.9,634.78,507ZM105.68,284.21l3.55-7.11,3.18-11.73c-6.56-12.44-11.83-13.25-30-3.23l4.76,19.31L86.86,292l-19.6,10.2c-4.55,15.95-9,31.46-13.82,48.51l20.06,13.5q-.12,8.76-.23,17.52l1.89,15.82q.77,39.89,1.52,79.76c-10.38-.07-17.45,3.74-18.65,19,43.47,15.19,86.81,12.7,131.93,1-1.38-4-1.48-7.74-3.33-9.17-18.09-13.92-40.17-9.34-61.5-11.64-.74-5.42-1.38-10.1-2-14.77q-.54-14.12-1.06-28.22.31-18.06.64-36.12l13-8.59c3.1-13.08,6.34-26.4,9.39-39.78,1.22-5.35,2-10.82-4.64-13.6l-17.59,4.68a2.67,2.67,0,0,1-3.08-1.25c.71-3.94,1.42-7.88,2.06-11.39h21.76c9.7-11.93,19-24.11,23.54-39.34L181.73,273,180,270.41,161,275.25c-.41,3.47-.68,5.8-.95,8.13-4.08,2.85-8.81,5.1-12.1,8.68-5.14,5.61-9.31,12.12-13.79,18.11l-31.69-14c-.23-1.67-.45-3.34-.68-5Z"/><path class="cls-3" d="M670.8,182A217.26,217.26,0,0,1,715,292.59c6,54.81-5.15,106.51-26.85,156-8.93,20.37-23.86,37.76-42.79,50.74L632.2,483.74c.74-15.5,1.37-31,2.25-46.51.43-7.63,1.3-15.25,2-22.87,1.12-2.33,2.25-4.65,3.37-7l.66-1.17c.94.09,1.87.19,2.81.27L641,404.79q2-12.94,3.95-25.91c18.68-3.85,24.93-10.57,25.14-28.14.11-8.85-.74-17.7-1.15-26.55.35-7.17,1-14.34,1-21.52Q670.47,242.34,670.8,182Z"/><path class="cls-4" d="M632.2,483.74l13.16,15.61L634.78,507c-29.73,7.93-58.38-.58-87.62-5l-6.83-14.35c-1.62-.95-2.68-2.13-3.69-2.08-17.41.72-34.82,1.66-52.24,2.39-7.89.34-15.79.37-23.68.43-9.72.07-19.45,0-29.17,0-35,.11-70.25-2.27-104.53,7.49-21.07,6-41.78,4.22-64.11-1.62l-13.7-14.77,13.17-12.9,32.74-6.88q-1.38,4.8-2.77,9.62l-5.53,6.53,26.27,14.21c-1.68-7.58-2.54-11.41-3.39-15.25q2.94-4.59,5.87-9.2l15.88,5.4,3.76,6.38c4.52,14.47,15.28,4.8,24.16,7.51.31-4.74.52-8.06.74-11.37,5.85-.88,11.7-2.41,17.57-2.54,18.74-.4,37.5-.28,56.25-.36,5.69,1,11.37,2.89,17.07,2.93,45.42.29,90.84.22,136.27.27a18.3,18.3,0,0,1,3.05-.17l10,6.8c3.15-6,5.33-10.13,7.5-14.27l13,3.82c1.27,4.39,2.55,8.78,4,13.7Zm-1.45,11.94c-8.27,2.25-19.43-5-25.65,8.16,11,2.61,18.7-1.63,25.72-8.08l5.15-1.11-1.17-2.3Zm-43.86-.18c7.28.64,13.51-.81,18.66-9.9L586.74,489c-12.67-4-14.12-3.27-16.62,10Z"/><path class="cls-5" d="M278.82,105.54c.93-2.31,1.55-6.37,2.84-6.6,5.31-.93,10.83-.86,16.27-.86Q427.13,98,556.31,98c6.65,0,13.3-.48,20-.74,21.7.22,43.4.52,65.11.63,9.41,0,18.11,1.2,22.94,10.79L659.45,114c-8.39-8.49-18.9-9.31-30.14-9.28q-150.75.28-301.5.14C311.48,104.85,295.15,105.29,278.82,105.54Z"/><path class="cls-6" d="M659.45,114l4.86-5.28,3,3.86c.39,1.37.79,2.73,1.18,4.1L670.8,182q-.4,60.31-.87,120.65c-.06,7.18-.66,14.35-1,21.52l-16.24.17c0-2,.09-4.05.13-6.07l9.55-2.09v-32c.26-52.11.62-104.23.62-156.34C663,123.26,660.68,118.62,659.45,114Z"/><path class="cls-7" d="M668.52,116.66c-.39-1.37-.79-2.73-1.18-4.1a18.22,18.22,0,0,1,2,2.64C669.45,115.47,668.8,116.16,668.52,116.66Z"/><path class="cls-8" d="M659.45,114c1.23,4.64,3.53,9.28,3.53,13.92,0,52.11-.36,104.23-.62,156.34l-7.1,5.22-25.47-29.28L619.3,271.44c5.61,10.75,10,19.08,14.3,27.4l-9,3.83-3.27-9.13c-2.68,6.38-16.1,7-8.57,17,.85,3.31,1.7,6.62,2.72,10.57-.86,2.06-2,4.68-3.08,7.31l-15.31-8.27-12.84-25.05,0-29.22c4.24,6.19,8.49,12.37,12.3,17.92V174.51H426.36V132H296.49V251.37h60.77v65.55l-3.88.11-18.09-3.82c1.7-3.93,2.64-8.5,5.28-11.66,5.19-6.2,6.08-12.05,1.34-18.65,1.14-13.47-8-11.79-17.35-11.75l-9.87,14.07,9.79,16.37c-.07,1.54-.15,3.08-.23,4.62L309.13,317.3l-3.19,1.94-39.82-2-4.55-4.14q-.44-91.9-.79-183.83c0-12.26,5.55-20.83,18.16-23.71l-.12,0c16.33-.25,32.66-.69,49-.7q150.75-.09,301.5-.14C640.55,104.67,651.06,105.49,659.45,114Z"/><path class="cls-9" d="M237.34,408.38l-57.93-86.74c22.58-4.3,41.09,1,58.45,12.14,5.51,3.53,11.34,6.55,17,9.8v20.65c9.27,13.47,20.26,16,32.88,14.34l5.69.66c4.18,13,8.39,25.91,12.5,38.9,1.6,5.06,2.94,10.2,4.41,15.3l-4.11,11.12.12.86C279.08,441,256.12,428.62,237.34,408.38Z"/><path class="cls-10" d="M237.34,408.38c18.78,20.24,41.74,32.66,69,37q-5.64,7.15-11.26,14.32l-32.74,6.88c-35.28-.55-67.52-10.67-98.72-30.1C186.7,419.14,211.5,412.42,237.34,408.38Z"/><path class="cls-11" d="M102.44,296.18l31.69,14c4.48-6,8.65-12.5,13.79-18.11,3.29-3.58,8-5.83,12.1-8.68l7.16,4.81c-4.51,15.23-13.84,27.41-23.54,39.34H121.88c-.64,3.51-1.35,7.45-2.06,11.39-3.4,3.2-8.13,5.82-9.85,9.75-2,4.55-1.33,10.25-1.83,15.45l-11.39,4L73.5,364.24l-20.06-13.5c4.86-17.05,9.27-32.56,13.82-48.51L86.86,292l.17-.45.73,10.71,6.51,18.56,1.19.54.84,6.68L98.17,332l2.1,5,2.57-.69L101.54,321q.27-2.94.56-5.87Q102.26,305.64,102.44,296.18ZM64.21,345.45l24.22,11.46,2.31-3.81L73.64,341l2.53-3.21q1.76-9.21,3.52-18.42l-3.4-1.22C72.61,326.46,68.93,334.79,64.21,345.45Z"/><path class="cls-12" d="M76.68,477.34q-.77-39.88-1.52-79.76l1.2-10.29L105,389l17.75,8.48q-.32,18.06-.64,36.12l-1.29,29.95-.36,17.34c-4.51,7.32-9,3.81-13.54,0q-1-21.56-2-43.11V412l-2.65-.22q-1.62,13-3.23,25.92L94.7,484.68l-15.49.51a2.78,2.78,0,0,1-.64-2.66l-.31-5.28-.82-.49Z"/><path class="cls-13" d="M120.41,480.87l.36-17.34a18,18,0,0,0,2.35-1.73c.63,4.67,1.27,9.35,2,14.77,21.33,2.3,43.41-2.28,61.5,11.64,1.85,1.43,2,5.15,3.33,9.17-45.12,11.67-88.46,14.16-131.93-1,1.2-15.27,8.27-19.08,18.65-19l.76-.58.82.49.31,5.28a2.78,2.78,0,0,0,.64,2.66c4.54,13.09,14,9.38,27.52,7.05l-12-7.56L99,437.74l5.88,0q1,21.56,2,43.11c-.59,3.23-1.18,6.45-2.22,12.09l27.94,2.21c.4-1.43.79-2.86,1.19-4.29Z"/><path class="cls-14" d="M287.77,378.57c-12.62,1.68-23.61-.87-32.88-14.34V343.58l.45-18.85c12.55,0,25.11-.11,37.67-.1,4.86,0,10.18-.38,8.87,7.26A84.36,84.36,0,0,0,287.77,378.57Z"/><path class="cls-5" d="M122.7,397.46,105,389l.63-12.38,12.62-5.81-10.06-6.67c.5-5.2-.16-10.9,1.83-15.45,1.72-3.93,6.45-6.55,9.85-9.75a2.67,2.67,0,0,0,3.08,1.25l17.59-4.68c6.68,2.78,5.86,8.25,4.64,13.6-3,13.38-6.29,26.7-9.39,39.78Z"/><path class="cls-15" d="M301.88,331.89c1.31-7.64-4-7.26-8.87-7.26-12.56,0-25.12.06-37.67.1q-.37-100.78-.75-201.59c0-10.85,4.27-20.41,14.64-23,12.21-3,16.3-2.76,16.21,5-20,0-24.41,11.83-24.66,24.16-1.24,61.27.5,122.56.79,183.83l4.55,4.14,39.82,2,1.11,6.86c-.47,1.85-.93,3.7-1.4,5.55Z"/><path class="cls-14" d="M105.58,376.6,105,389l-28.59-1.69-3.09-5.53q.12-8.76.23-17.52l23.25,3.86Z"/><path class="cls-16" d="M87.13,281.45l-4.76-19.31c18.21-10,23.48-9.21,30,3.23L95.87,271Z"/><path class="cls-17" d="M87.13,281.45,95.87,271l16.54-5.62-3.18,11.73-3.55,7.11-3.92,7-3.66.58L87,291.58l-.17.45Z"/><path class="cls-17" d="M167.18,288.19,160,283.38c.27-2.33.54-4.66.95-8.13L180,270.41l1.71,2.55Z"/><path class="cls-5" d="M123.12,461.8a18,18,0,0,1-2.35,1.73l1.29-29.95Z"/><path class="cls-18" d="M98.1,291.75l3.66-.58c.23,1.67.45,3.34.68,5q-.16,9.45-.34,18.91-1.91-9.93-3.8-19.86C98.22,294.07,98.16,292.91,98.1,291.75Z"/><path class="cls-19" d="M140.49,335.49l-17.59,4.68Z"/><path class="cls-20" d="M73.27,381.76l3.09,5.53-1.2,10.29Z"/><path class="cls-20" d="M105.68,284.21l3.55-7.11Z"/><path class="cls-5" d="M632.2,483.74h-7.46c-1.43-4.92-2.71-9.31-4-13.7q-1.9-15.12-3.79-30.25l-4.21-5.66.75-63.35,28.17,3.92c1.08,1.39,2.16,2.79,3.25,4.18q-2,13-3.95,25.91l-.53,1.42-.66,1.17c-1.12,2.33-2.25,4.65-3.37,7-.67,7.62-1.54,15.24-2,22.87C633.57,452.73,632.94,468.24,632.2,483.74Z"/><path class="cls-21" d="M644.93,378.88c-1.09-1.39-2.17-2.79-3.25-4.18q4.14-24.81,8.3-49.61a8.21,8.21,0,0,0,2.7-.73l16.24-.17c.41,8.85,1.26,17.7,1.15,26.55C669.86,368.31,663.61,375,644.93,378.88Z"/><path class="cls-22" d="M636.42,414.36c1.12-2.33,2.25-4.65,3.37-7C638.67,409.71,637.54,412,636.42,414.36Z"/><path class="cls-22" d="M640.45,406.21l.53-1.42,2.28,1.69C642.32,406.4,641.39,406.3,640.45,406.21Z"/><path class="cls-23" d="M433.93,470.66c-18.75.08-37.51,0-56.25.36-5.87.13-11.72,1.66-17.57,2.54l-10.88-1.24q-1.77-25.87-3.53-51.75h40.07l13.92-41.75H327.94l.33.24q2.19-9.06,4.37-18.11l26.73.14c5.65,1.2,11.29,3.42,16.95,3.44q102.81.38,205.63.11c4.6,0,9.21-.9,13.95-1.4,1.31-10.08,2.45-18.92,3.6-27.76l12.83-1.93-.75,34c-.72,1.37-1.43,2.75-2.14,4.12l-4.06,7.19H513.56c4.73,14.88,8.71,27.35,13.24,41.59h59c.09,1,.19,2,.29,3L580,426c-47.24-.17-94.47-.57-141.7-.39-17.68.07-27.29,11.61-23.15,26.4,2.58,9.2,9.38,13.68,18.43,15.24A15.9,15.9,0,0,0,433.93,470.66Z"/><path class="cls-18" d="M580,426l6.08-2.6c-.1-1-.2-2-.29-3h-59c-4.53-14.24-8.51-26.71-13.24-41.59h91.82c-6.59,20.61-10,41.49-9.3,63.36.34,10.43-3.7,21-5.76,31.51a18.3,18.3,0,0,0-3.05.17l-7.86-7.77C567.55,452.57,572.12,439.28,580,426Z"/><path class="cls-6" d="M295.12,459.73q5.63-7.17,11.26-14.32l-.12-.86,4.11-11.12c-1.47-5.1-2.81-10.24-4.41-15.3-4.11-13-8.32-25.94-12.5-38.9l4-5.3c7.53,9.27,17.87,4.1,27,5.25q1.95,27.66,3.88,55.32l-12.73,31.14q-2.93,4.61-5.87,9.2l-17.35-5.49Q293.73,464.54,295.12,459.73Z"/><path class="cls-15" d="M328.3,434.5q-1.94-27.66-3.88-55.32l3.85-.12-.33-.24,17.76,41.75q1.77,25.88,3.53,51.75l-14,5.1L331.45,471Z"/><path class="cls-15" d="M590.32,473.69c2.06-10.51,6.1-21.08,5.76-31.51-.7-21.87,2.71-42.75,9.3-63.36l4.06-7.19,4-.85h0l-.75,63.35q.15,3.62.31,7.22l-5.28,24.87c-2.17,4.14-4.35,8.28-7.5,14.27Z"/><path class="cls-24" d="M579.41,466.09l7.86,7.77c-45.43-.05-90.85,0-136.27-.27-5.7,0-11.38-1.91-17.07-2.93a15.9,15.9,0,0,1-.38-3.37c6.58-.29,13.16-.81,19.75-.84Q516.36,466.18,579.41,466.09Z"/><path class="cls-14" d="M328.3,434.5,331.45,471l-15.88-5.4Z"/><path class="cls-19" d="M335.21,477.42l14-5.1,10.88,1.24c-.22,3.31-.43,6.63-.74,11.37C350.49,482.22,339.73,491.89,335.21,477.42Z"/><path class="cls-18" d="M607.79,466.22l5.28-24.87,3.9-1.56q1.89,15.13,3.79,30.25Z"/><path class="cls-19" d="M292.35,469.35l17.35,5.49c.85,3.84,1.71,7.67,3.39,15.25l-26.27-14.21Z"/><path class="cls-19" d="M586.89,495.5l-16.77,3.42c2.5-13.24,4-14,16.62-10Z"/><path class="cls-19" d="M630.82,495.76c-7,6.45-14.71,10.69-25.72,8.08,6.22-13.13,17.38-5.91,25.65-8.16Z"/><path class="cls-25" d="M586.89,495.5l-.15-6.55,18.81-3.35C600.4,494.69,594.17,496.14,586.89,495.5Z"/><path class="cls-19" d="M630.75,495.68l4-3.33,1.17,2.3-5.15,1.11Z"/><path class="cls-26" d="M655.26,289.46l7.1-5.22v32l-9.55,2.09a1.08,1.08,0,0,0-1.11-1.46Q653.48,303.15,655.26,289.46Z"/><path class="cls-27" d="M652.68,324.36a8.21,8.21,0,0,1-2.7.73c0-2.69.11-5.37.16-8l1.56-.21a1.08,1.08,0,0,1,1.11,1.46C652.77,320.31,652.72,322.34,652.68,324.36Z"/><path class="cls-25" d="M599.5,335.48c-1.15,8.84-2.29,17.68-3.6,27.76-4.74.5-9.35,1.4-13.95,1.4q-102.83.14-205.63-.11c-5.66,0-11.3-2.24-16.95-3.44,8.93-1.66,20.4,3.25,27-11.3h-28.8q-.72-10.73-1.43-21.46c6.22-3.23,6.2-7.07,1.12-11.41V174.51H596.51V283.79c-3.81-5.55-8.06-11.73-12.3-17.92-.25-17.26-.22-34.53-.89-51.78-.19-4.86-2.41-9.64-3.69-14.46-3.92-1-7.83-2.77-11.74-2.78q-88.17-.27-176.32,0c-4.62,0-9.23,1.14-15,1.9V345.07c4.26.4,7.77,1,11.27,1q90,.09,180-.09c3.94,0,7.86-1.76,11.79-2.71,1.29-4.2,3.44-8.35,3.71-12.61.73-11.84.67-23.72.92-35.58l12.84,25.05Q598.29,327.82,599.5,335.48Z"/><path class="cls-28" d="M426.36,174.51h-69.1v76.86H296.49V132H426.36Z"/><path class="cls-19" d="M328.27,379.06l-3.85.12c-9.11-1.15-19.45,4-27-5.25.25-6.87-.35-13.9,1-20.55,1.49-7.43,4.74-14.5,7.22-21.73.47-1.85.93-3.7,1.4-5.55.69-2.93,1.39-5.86,2.08-8.8l15.11-11.09,11,7L353.37,317q.53,5.89,1.07,11.8l-14.5,5.1c-.41,4.12-.81,8.15-1.22,12.18-6.53.72-14.6-1.88-17.64,10L332.64,361Q330.45,370,328.27,379.06Z"/><path class="cls-19" d="M650.14,317c0,2.68-.11,5.36-.16,8q-4.15,24.81-8.3,49.61l-28.17-3.92h0l-1.88-3.27.75-34,.06-5.14c1.11-2.63,2.22-5.25,3.08-7.31-1-4-1.87-7.26-2.72-10.57l11.84-7.86,9-3.83Z"/><path class="cls-29" d="M650.14,317l-16.54-18.2c-4.35-8.32-8.69-16.65-14.3-27.4l10.49-11.26,25.47,29.28q-1.77,13.68-3.56,27.37Z"/><path class="cls-5" d="M324.47,301.59l-9.79-16.37,9.87-14.07c9.37,0,18.49-1.72,17.35,11.75C330.15,283.59,330,295.12,324.47,301.59Z"/><path class="cls-20" d="M579.63,199.63c1.28,4.82,3.5,9.6,3.69,14.46.67,17.25.64,34.52.89,51.78l0,29.22c-.25,11.86-.19,23.74-.92,35.58-.27,4.26-2.42,8.41-3.71,12.61-.1-1.6-.21-3.2-.31-4.81q0-67.05,0-134.12C579.4,202.78,579.51,201.21,579.63,199.63Z"/><path class="cls-17" d="M324.47,301.59c5.55-6.47,5.68-18,17.43-18.69,4.74,6.6,3.85,12.45-1.34,18.65-2.64,3.16-3.58,7.73-5.28,11.66l-11-7C324.32,304.67,324.4,303.13,324.47,301.59Z"/><path class="cls-15" d="M612.39,328.41l-.06,5.14-12.83,1.93q-1.21-7.67-2.42-15.34Z"/><path class="cls-29" d="M624.59,302.67l-11.84,7.86c-7.53-10,5.89-10.61,8.57-17Z"/><path class="cls-17" d="M354.44,328.83q-.54-5.91-1.07-11.8l3.88-.11c5.08,4.34,5.1,8.18-1.12,11.41Z"/><path class="cls-5" d="M309.13,317.3c-.69,2.94-1.39,5.87-2.08,8.8l-1.11-6.86Z"/><path class="cls-26" d="M266.12,317.27l-4.55-4.14Z"/><path class="cls-29" d="M305.65,331.65c-2.48,7.23-5.73,14.3-7.22,21.73-1.34,6.65-.74,13.68-1,20.55l-4,5.3-5.69-.66a84.36,84.36,0,0,1,14.11-46.68Z"/><path class="cls-29" d="M310.37,433.43l-4.11,11.12Z"/><path class="cls-21" d="M64.21,345.45c4.72-10.66,8.4-19,12.08-27.32l3.4,1.22q-1.75,9.21-3.52,18.42L73.64,341l17.1,12.12-2.31,3.81Z"/><path class="cls-17" d="M105.58,376.6l-8.83-8.5,11.39-4,10.06,6.67Z"/><path class="cls-5" d="M98.3,295.23q1.9,9.93,3.8,19.86-.28,2.93-.56,5.87l-6.08.43-1.19-.54-.12-18.2Z"/><path class="cls-19" d="M98.3,295.23l-4.15,7.42-6.39-.36L87,291.58l11.07.17C98.16,292.91,98.22,294.07,98.3,295.23Z"/><path class="cls-15" d="M95.46,321.39l6.08-.43,1.3,15.34-2.57.69-2.1-5-1.87-3.88Z"/><path class="cls-3" d="M87.76,302.29l6.39.36.12,18.2Z"/><path class="cls-5" d="M96.3,328.07,98.17,332Z"/><path class="cls-6" d="M120.41,480.87l13.37,10c-.4,1.43-.79,2.86-1.19,4.29L104.65,493c1-5.64,1.63-8.86,2.22-12.09C111.39,484.68,115.9,488.19,120.41,480.87Z"/><path class="cls-15" d="M94.7,484.68l12,7.56c-13.54,2.33-23,6-27.52-7.05Z"/><path class="cls-7" d="M104.87,437.77l-5.88,0q1.62-13,3.23-25.92l2.65.22Z"/><path class="cls-15" d="M78.57,482.53l-.31-5.28Z"/><path class="cls-20" d="M617,439.79l-3.9,1.56q-.17-3.6-.31-7.22Z"/><path class="cls-1" d="M579.41,466.09q-63.06.17-126.11.36c-6.59,0-13.17.55-19.75.84-9.05-1.56-15.85-6-18.43-15.24-4.14-14.79,5.47-26.33,23.15-26.4,47.23-.18,94.46.22,141.7.39C572.12,439.28,567.55,452.57,579.41,466.09Z"/><path class="cls-18" d="M345.7,420.57l-17.76-41.75h71.75l-13.92,41.75Z"/><path class="cls-17" d="M332.64,361l-11.56-4.87c3-11.85,11.11-9.25,17.64-10l18.84,3.68h28.8c-6.59,14.55-18.06,9.64-27,11.3Z"/><path class="cls-5" d="M611.58,367.51l1.88,3.27-4,.85C610.15,370.26,610.86,368.88,611.58,367.51Z"/><path class="cls-22" d="M579.3,338.47c.1,1.61.21,3.21.31,4.81-3.93,1-7.85,2.7-11.79,2.71q-90,.27-180,.09c-3.5,0-7-.61-11.27-1V198.7c5.74-.76,10.35-1.89,15-1.9q88.15-.18,176.32,0c3.91,0,7.82,1.81,11.74,2.78-.12,1.58-.23,3.15-.35,4.72a8.18,8.18,0,0,0-3.08,0H380.62V338.54H576.2l1.56.12Z"/><path class="cls-21" d="M357.56,349.79l-18.84-3.68c.41-4,.81-8.06,1.22-12.18l14.5-5.1,1.69-.5Q356.85,339.06,357.56,349.79Z"/><path class="cls-25" d="M579.3,338.47l-1.54.19-1.56-.12c0-25.26.23-50.52-.35-75.77-.12-5.25-3.33-10.43-5.12-15.64L570,219.48q3.08-7.57,6.16-15.17a8.18,8.18,0,0,1,3.08,0Q579.29,271.42,579.3,338.47Z"/><path class="cls-30" d="M570.73,247.13c1.79,5.21,5,10.39,5.12,15.64.58,25.25.32,50.51.35,75.77H380.62V204.31H576.2q-3.08,7.59-6.16,15.17H537.88l6.65,14.4-32.34,25.4-22.12-12.62c-14,12.6-27.8,25-41.05,36.87l-22.8-8.74-37.07,35.56c2.41,1.84,4.62,4,5,3.75,11.32-8.51,22.46-17.25,34-26.24L451.07,297l40.57-35.87,22,11.94L555.52,240c.12,1.43.23,2.85.35,4.28Z"/><path class="cls-21" d="M570.73,247.13l-14.86-2.89c-.12-1.43-.23-2.85-.35-4.28L513.59,273l-22-11.94L451.07,297l-22.95-9.11c-11.53,9-22.67,17.73-34,26.24-.36.27-2.57-1.91-5-3.75l37.07-35.56,22.8,8.74c13.25-11.89,27-24.27,41.05-36.87l22.12,12.62,32.34-25.4-6.65-14.4H570Z"/><path class="cls-17" d="M620.66,271.14s-11,7.37-7.37,18.42,12.9,7.37,12.9,7.37l5.53,9.21,9.21-3.68Z"/><path class="cls-29" d="M629.44,260.14s7-7,16,4,10,25,10,25Z"/><polygon class="cls-17" points="590.44 473.14 590.44 488.29 605.44 485.14 600.44 480.14 590.44 473.14"/><polygon class="cls-17" points="624.44 496.07 630.63 495.94 634.44 492.14 632.44 484.14 624.44 484.14 624.44 496.07"/></g></g></svg>