<svg xmlns="http://www.w3.org/2000/svg" viewBox="0 0 859.58 697.73"><defs><style>.cls-1{fill:#fefefe;}.cls-2{fill:#f9e8c8;}.cls-3{fill:#f7dfb3;}.cls-4{fill:#f2d194;}.cls-5{fill:#4d444a;}.cls-6{fill:#fefcf9;}.cls-7{fill:#e59603;}.cls-8{fill:#fcbbaa;}.cls-9{fill:#efa824;}.cls-10{fill:#4a3e3f;}.cls-11{fill:#e5990f;}.cls-12{fill:#efb651;}.cls-13{fill:#655b5b;}.cls-14{fill:#51484a;}.cls-15{fill:#fee9db;}.cls-16{fill:#edd5b8;}.cls-17{fill:#8d827b;}.cls-18{fill:#e59501;}.cls-19{fill:#fdf9f5;}.cls-20{fill:#f0dab1;}.cls-21{fill:#fdfcf8;}.cls-22{fill:#f3e1bd;}.cls-23{fill:#f6e3c5;}.cls-24{fill:#eae6de;}.cls-25{fill:#a19093;}.cls-26{fill:#fefdfb;}.cls-27{fill:#eba731;}.cls-28{fill:#795a31;}.cls-29{fill:#e39503;}.cls-30{fill:#564132;}</style></defs><title>cozentusAsset 3</title><g id="Layer_2" data-name="Layer 2"><g id="Designed_by_Freepik" data-name="Designed by Freepik"><path class="cls-1" d="M788.43,656.1c4.2-1.11,9.13-1.18,12.5-3.5,39.14-26.89,70.09-112,54.56-158.09C833.36,428.83,831.68,363.14,846,296,870.29,182.19,789.61,63.51,684,27.09,579-9.1,473.21-5,367.09,15.92c-69.68,13.76-135,39.68-186,92-22.62,23.24-41,50.77-64.74,72.72C52.46,239.86,14.09,310.65,3.2,397.8-6.3,473.84,5,545.43,41.39,612c24.6,45.07,61.77,80.61,114.94,84.82,42,3.32,85-3.44,127.32-7.61,58.58-5.76,116.93-17.87,175.49-18.63,48-.63,96.41,9.76,144.14,18.17,46.45,8.19,92.59,12.71,137.69-2.92,17-5.91,31.47-19.26,47.08-29.23Z"/><path class="cls-2" d="M721.23,278.13c-.13-19.66.36-39.35-.58-59-.63-13.29-3.25-26.49-5-39.74l-26-21.83c-14-.42-28.11-.39-42.09-1.45-7.71-.58-17.24-.57-22.58-4.94-35.68-29.2-56.38-28.35-86.24,5.35l-88.88,1.52c-.1-10.32-1.27-20.76-.08-30.92,2.18-18.58-5.13-24.09-23.46-23.47-38.27,1.3-76.63.39-114.95.39-53.1,0-53.1,0-53.18,52.76l-9.16,4.23,9.19,2c-.45,1-.85,2-1.21,3l-9.85.3-4.93-4.85-6.49,4.72-12.9,10.39a6.19,6.19,0,0,0-.54,2.2q.3,120.53.62,241.05l-.18,4.37c-.57,14.38,1.18,29.46-.16,43.61a9.38,9.38,0,0,0-2.51-3.47c-2.65-2.52-5-5.43-8.38-7a4.3,4.3,0,0,0-2.81-.51c-5.7,1.43,1.83,19.5,2.89,23.23q2.51,8.81,5.24,17.53c1.33,4.24,4.47,10.12,4.47,14.63,1.49,5.22,5.75,13.55,5.39,18.91q-2.21,32.52-4.4,65.05c-8.1.32-16.19.72-24.28.95-27.71.8-37.43,14-30.58,41.63,9.12,5.82,18,16.22,27.39,16.64,38.76,1.72,77.64.43,116.48.24q71.89.38,143.78.71c14.37.05,28.74-.28,43.11-.44l102.29-.29,187.35,1c-15.62,10-30.06,23.31-47.09,29.22-45.1,15.63-91.24,11.11-137.69,2.92-47.73-8.41-96.16-18.8-144.14-18.17-58.56.76-116.91,12.87-175.49,18.63-42.36,4.17-85.33,10.93-127.32,7.61C103.16,692.63,66,657.09,41.39,612,5,545.43-6.3,473.84,3.2,397.8c10.89-87.15,49.26-157.94,113.18-217.13,23.7-21.95,42.12-49.48,64.74-72.72,51-52.35,116.29-78.27,186-92C473.21-5,579-9.1,684,27.09,789.61,63.51,870.29,182.19,846,296c-14.34,67.18-12.66,132.87,9.47,198.55,15.53,46.08-15.42,131.2-54.56,158.09-3.37,2.32-8.3,2.39-12.51,3.5L774,650.68V603l16.29-4.41-33.14-4.34q-3-13.77-6-27.55L750,553.5q3.35-20.07,6.67-40.13c4.51-15.31,9.14-30.58,13.49-45.94,2.58-9.09,1.06-13.77-9.13-7.36-1.43,0-2.86,0-4.28-.05,1.46-3.85,4-7.64,4.19-11.54.54-12.17,3.5-25.69-.67-36.24-5.17-13.06-12.73-29.48-33.45-22.77-2-7.3-4.38-14.51-5.82-21.91-1.74-9-2.67-18.19-4-27.29"/><path class="cls-3" d="M242.43,166.88l4.78-.52,9.87-.29c.38,17.61,1.62,35.26.86,52.82-.63,14.46,4.52,19.29,19,19,35.26-.83,70.56-.29,105.84-.3h4.47l0-.16q2.26,11,4.55,22.05c-16.21,4.93-7.53,12.53-1.56,18.83,11.43,12.08,24.61,22.67,35,35.56,33,41,32.64,41.28,78.41,16.72q6.53,6.82,13.06,13.63-.79,22.56-1.57,45.12l-229.35-.2c-11.42-19.55-22.53-2-33.76.29l-20.82-.64,4.4-215.08S237.27,168.08,242.43,166.88Z"/><path class="cls-4" d="M382.74,237.55c-35.28,0-70.58-.53-105.84.3-14.44.33-19.59-4.5-19-19,.76-17.56-.48-35.21-.86-52.82a30.56,30.56,0,0,1,1.19-3l0-6.2c.08-52.76.08-52.76,53.18-52.76,38.32,0,76.68.91,115-.39,18.33-.62,25.64,4.89,23.46,23.47-1.19,10.16,0,20.6.07,30.92a2.87,2.87,0,0,1-.08,2.95c-.1,5.9-.12,11.8-.31,17.7-.59,18.32,5.74,44.16-3.73,53-10.78,10-35.7,4.84-54.48,6.27-1.37-.14-2.72-.33-4.07-.57l0,.17Z"/><path class="cls-5" d="M538.79,156.54c29.86-33.7,50.56-34.55,86.24-5.35,5.34,4.37,14.87,4.36,22.58,4.94,14,1.06,28,1,42.09,1.45l-.63,7.62-55.64-2.52c-5.85,21.88,2.15,33.86,17.88,43.35,20.17,12.16,33.64,28.33,28.76,54.57-1.07,5.73,1.18,13.73,4.83,18.39,12.7,16.22,10.9,29.46-5.43,41.34L645.72,268l-36.79-20.81q-1.66-2.61-3.35-5.22c4.59-13.92,9.17-27.85,14.54-44.19-17.3-7.61-46.43-4.47-48-39.43-9.49,8-15.45,15-20.28,22.82-4,6.48-6.73,13.79-10,20.74l-3.13-.05-9.85-39.63Z"/><path class="cls-6" d="M774,603v47.67l-173.4,1.13q-11.37-11.43-22.72-22.87,9.42-13.19,18.85-26.38l2,.08,2-.31,91-1.11h58.15l2.21-.13,2.21.18Z"/><path class="cls-7" d="M168.57,637.86c-6.56-6.06-4-19.91-.1-26.63,6.37-10.83,18-13.72,29.77-14.06,8.09-.23,16.18-.63,24.27-.94l9.23.09,38.34,0c8.13,0,16.24.66,24.36,1.06,1.78.09,11.3-.73,12.21.57,2.87,4.15-3.06,10.22-5.17,13.41-4,6.1-7.94,13.26-14.07,17.84-6.93,5.17-15.57,5.08-23.7,6.8a170.72,170.72,0,0,1-35.41,4q-16.28.54-32.56.31c-7.22-.11-21,2.91-27-2.3Z"/><path class="cls-5" d="M695.9,600.38c-1.11,1.28-2.39,1.68-3.89.61a4.15,4.15,0,0,1-1.17-1.59c-3.17-6.17-1.59-11.33-.69-18q1.5-11.07,3-22.15c1-7.38-1.11-15.76-8.74-18.6-1.8-.67-4.72-.15-6.24-.93-2.39-1.22-1.55-4-1.56-7l-.09-19.31L717,500.77c10.93,2.82,15.84,23.31,32,10.92l7.66,1.68-3.33,20-1.74,10.47c-.32,1.92-.3,8.33-1.71,9.62-4.44,4-14.77.37-20.07.08-2-.1-25.87-2.36-25.87-2.34-.73,9.21-1.14,18.46-2.35,27.63C700.69,585.54,700.66,594.83,695.9,600.38Z"/><path class="cls-8" d="M721.23,278.14c12.47,4.07,17.77,8.41,27.35,11.53-12.53,16.47-18.47,33.4-31.57,50.59l-.81-.41L711.67,344l-5.18,9.18c-29.37,26.51-29.36,26.51-50.32-7.4-.36-.59-1.12-.93-1.69-1.38l25.26-23.31c17.32,21.33,20.06-2.85,28.53-9.15q4.14-6.07,8.3-12.14Q718.9,289,721.23,278.14Z"/><path class="cls-9" d="M167.66,638.8c40.63-.35,81.77,5.63,121.18-9.83q9.72,9.81,19.5,19.57c10.09,10.07-8.78,7.23-14.74,7.29-11.36.12-22.71.29-34.07.4-21.49.19-43,.17-64.48-.79C185.69,655,176.78,644.62,167.66,638.8Z"/><path class="cls-10" d="M235.28,166.94a1,1,0,0,1,.47.6c1.76,4.53.18,10.28.05,15-.93,33.92-1.68,67.88-2.46,101.82v.1l-2.16,104.26-1,26.91L223,419.87q-.16-60-.31-119.92-.07-30-.16-60-.06-27-.77-54c-.09-3.26.25-6.66,1.93-9.46a21.27,21.27,0,0,1,5.79-5.67q2.48-1.86,5-3.66A1,1,0,0,1,235.28,166.94Z"/><path class="cls-11" d="M726.79,389.47c20.72-6.71,28.28,9.71,33.45,22.77,4.17,10.55,1.21,24.07.67,36.24-.18,3.9-2.73,7.69-4.19,11.54q-4.89,10.49-9.76,21l-17.59-7.59c6.38-12.51,12.76-25,21-41.1l-6.42-4.19L724.55,402Q725.68,395.76,726.79,389.47Z"/><path class="cls-9" d="M577.89,628.94q11.36,11.43,22.72,22.87c0,1.28,0,2.57.1,3.85L498.42,656l.09-9.47Z"/><path class="cls-10" d="M715.41,299.33a39.16,39.16,0,0,1-7.09,12.24c-1-26.35.09-52.79-.67-79.16-.39-13.36-.92-27-4.71-39.89a80.65,80.65,0,0,0-8.8-19.43c-2-3.22-10-13.66-5.56-15.42,2.77-1.09,14.27,7.77,16.19,9.43,11.91,10.32,11.06,25.09,11.32,39.77.46,26.93,2.13,54.5,1.21,81.37A38.26,38.26,0,0,1,715.41,299.33Z"/><path class="cls-11" d="M222.7,469l.09-44.77,38.87-.29a4,4,0,0,0,1.39,2.73c6,5.25-10.28,23.83-13.22,27.47a134.32,134.32,0,0,1-13.79,15c-5.36,4.88-8.38,4.08-13.65-.42Z"/><path class="cls-12" d="M498.51,646.48l-.09,9.47c-14.37.16-28.74.49-43.11.44q-71.9-.24-143.78-.71c-.06-1.3-.09-2.61-.09-3.91,52.21-.22,104.41-.26,156.62-.87,7.54-.08,15.05-2.88,22.58-4.42Z"/><path class="cls-13" d="M226.92,531.17l-20.64-72.38,5.23-2.44c.85-.4,4.36,4.1,4.9,4.69,5.29,5.83,7.15,13.56,9,21A108.86,108.86,0,0,0,231,498c1.05,2.52,2,5.09,2.85,7.67l1.14,3.3c.32.92,1.29,2.54,1.25,3.49l-.47,10.19c-1.12,2.58-2.23,5.15-3.35,7.72Z"/><path class="cls-14" d="M226.92,531.17l5.44-.76,3.72,2.94-2.19,8,33.33,9.73c-12.23-3.57-26.29,2.33-31.08,14.27-3.56,8.89-2.69,18.16-3.76,27.43-.33,2.84.15,2.65-2.31,3.49-.62.22-7.54-.3-7.56-.07Z"/><path class="cls-12" d="M600.71,655.66c-.06-1.28-.09-2.57-.1-3.85L774,650.68l14.41,5.42s-.37.52-.36.52Z"/><path class="cls-13" d="M756.64,513.37s-6-1.16-6.51-1.27c-4.15-1,8.63-44,10-49.19.81-3,5.59-7.31,9.15-5.65s1.56,7.5.8,10.17C765.78,482.79,761.15,498.06,756.64,513.37Z"/><path class="cls-15" d="M716.57,299.77l-.9-120.35c1.73,13.24,4.35,26.44,5,39.73.94,19.63.45,39.32.58,59Q718.91,289,716.57,299.77Z"/><path class="cls-10" d="M538.79,156.54l-9.94,5.71-79-1.24a2.87,2.87,0,0,0,.08-2.95Z"/><path class="cls-15" d="M726.79,389.47q-1.12,6.28-2.23,12.57a10.66,10.66,0,0,0-3.82,0l-4.62.07q-.6-28.57-1.22-57.16c.44-1.72.87-3.43,1.3-5.15l.81.41c1.29,9.11,2.22,18.29,4,27.3C722.41,375,724.81,382.17,726.79,389.47Z"/><path class="cls-13" d="M261.65,424l-38.86.29.18-4.37,7.25-4.21,21.55,0,11.45,4.74A17.85,17.85,0,0,1,261.65,424Z"/><path class="cls-14" d="M754.25,601c-5.1,5-9-10.68-9.18-13.78-.08-1.82.2-20.43-1.85-20.42l7.92,0c1.38,6.29,2.74,12.58,4.12,18.86.85,3.88,2.64,10,.16,13.91A8.76,8.76,0,0,1,754.25,601Z"/><path class="cls-16" d="M761,460.07q-3.66,13.38-7.34,26.76l-6.45-1.17c-.08-1.55-.16-3.11-.25-4.67q4.88-10.49,9.76-21C758.14,460.09,759.57,460.11,761,460.07Z"/><path class="cls-12" d="M754.33,601.27l2.82-7,33.15,4.35L774,603Z"/><path class="cls-10" d="M751.14,566.71l-7.92,0q-1.34-6.21-2.66-12.43l9.41-.82Z"/><path class="cls-10" d="M258.24,156.82l0,6.2-9.19-2Z"/><path class="cls-3" d="M222.89,176.62l.58,1.22-1.12,1A6.19,6.19,0,0,1,222.89,176.62Z"/><path class="cls-17" d="M247.21,166.36l-4.78.52-.15-5.37Z"/><path class="cls-10" d="M242.28,161.51l.15,5.37-6.63-.66Z"/><path class="cls-18" d="M608.93,247.21,645.72,268q1.39,40.35,2.81,80.68l-1.8,40.84-131.62-.24q.78-22.56,1.57-45.12l3.93-75.59,15.61-12.94,24-5c1.68,6.4,2.07,13.58,5.38,19,3.85,6.29,10,14.87,15.63,15.29,5.28.38,12.47-7.8,16.59-13.75C602.76,264,605.33,255.27,608.93,247.21Z"/><path class="cls-19" d="M515.11,389.3l131.61.24,59.61-.52q.13,12.89.28,25.77c-134.14.18-268.29.13-402.43.88-15,.09-19.06-7.85-21.91-19.32,1.16-2.42,2.32-4.83,3.49-7.25Zm169,16.46.27-2.23H299c0,.75,0,1.49,0,2.23Z"/><path class="cls-8" d="M503.62,330.55c-45.77,24.56-45.4,24.26-78.41-16.72-10.38-12.89-23.56-23.48-35-35.56-6-6.3-14.65-13.9,1.56-18.83l2.08.12h2.08c7.05,5.12,16.45,8.77,20.75,15.61,22.66,36.09,39.8,44.42,73.44,33.19Q496.87,319.45,503.62,330.55Z"/><path class="cls-9" d="M503.62,330.55l-13.5-22.2,30.49-39.76-3.93,75.59Q510.14,337.37,503.62,330.55Z"/><path class="cls-5" d="M285.76,389.1c-1.17,2.42-2.33,4.83-3.49,7.25l-19,24-11.46-4.75q.12-13.11.23-26.24C263.23,387.12,274.34,369.55,285.76,389.1Z"/><path class="cls-19" d="M252,389.39q-.12,13.13-.23,26.24l-21.55,0,1-26.91Z"/><path class="cls-3" d="M395.94,259.55q-2.31-10.8-4.64-21.61c18.77-1.42,43.7,3.77,54.48-6.26,9.47-8.81,3.14-34.65,3.73-53,.19-5.9.21-11.8.31-17.7l79,1.24q4.92,19.81,9.85,39.63l4.32,9.23-.31-.4q-3.24,22.47-6.49,44.94l-15.61,12.94-30.49,39.76c-33.63,11.23-50.77,2.9-73.43-33.19C412.39,268.32,403,264.67,395.94,259.55Z"/><path class="cls-20" d="M689.07,165.2c6,12.39,16.13,24.47,17.09,37.23,2.71,36.35,1.67,73,2.1,109.48-8.46,6.3-11.2,30.48-28.51,9.15,0,0-.28-.73-.28-.73,16.33-11.88,18.13-25.12,5.43-41.34-3.65-4.66-5.9-12.66-4.83-18.39,4.88-26.24-8.59-42.41-28.76-54.57-15.73-9.49-23.73-21.47-17.88-43.35Z"/><path class="cls-16" d="M541.83,201.93c3.29-7,6-14.26,10-20.74,4.83-7.78,10.79-14.86,20.28-22.82,1.56,35,30.69,31.82,48,39.43-5.37,16.34-10,30.27-14.54,44.19l-4.87.08c-9.13,6.6-21.13,9.6-31.06,4.45l-5.39-.36-21.55-35.45.31.4C542.62,208.05,542.23,205,541.83,201.93Z"/><path class="cls-9" d="M679.47,320.33s.29.73.28.73l-25.27,23.31-6,4.33q-1.41-40.33-2.81-80.68Z"/><path class="cls-20" d="M564.26,246.16l5.39.36c12.37,12.64,22.64,10.52,31.06-4.45l4.87-.08q1.68,2.61,3.35,5.22c-3.6,8.06-6.17,16.83-11.1,24-4.12,5.95-11.31,14.13-16.59,13.75-5.66-.42-11.78-9-15.63-15.29-3.31-5.4-3.7-12.58-5.38-19Z"/><path class="cls-14" d="M541.83,201.93c.4,3.06.79,6.12,1.19,9.18l-4.32-9.23Z"/><path class="cls-7" d="M498.51,646.48h-7.87c-19.5-15-9.86-29.65.63-44.25l105.14-4.29.33,4.63-18.85,26.37Z"/><path class="cls-12" d="M688.43,594.11l3.32,7.11-91,1.12c0-1.51.07-3,.1-4.51l-.19.19,4.77.19,19.22-9,10.47.79L667,594.56l10.1.08Z"/><path class="cls-12" d="M746.19,594l3.71,7.27H696.47c1.2-2.41,2.41-4.82,3.61-7.24Z"/><path class="cls-2" d="M600.83,597.83c0,1.5-.07,3-.1,4.51l-2,.3-2-.08-.33-4.62,2.21,0Z"/><path class="cls-21" d="M491.27,602.23c-10.49,14.6-20.13,29.22-.63,44.25-7.53,1.54-15,4.34-22.58,4.42-31.44.37-62.88.53-94.32.64l-48,.17c-12.49,0-24.19-7.28-31.89-16.74a12.13,12.13,0,0,1-3-5.74c-3-20.93,24.74-26.94,39.66-26.9l56.83.14H396Z"/><path class="cls-10" d="M267.23,551.1l-33.34-9.72,2.19-8,4.19-6.43c0-3.72,4.48-5.48,7.32-6.71a75,75,0,0,0,15-8.73c6.55-4.87,13.53-8.32,21.8-6,9.2,2.54,17.94,7,26.92,10.23a14.79,14.79,0,0,1,5.36,2.8c4.89,4.66,2,12.94,1.93,18.75-.13,6.87-.51,13.75-.76,20.62l-.66,17.88c-.2,5.48.47,12-.84,17.29.07-.3-6.85-3-7.4-3.37-4.11-2.4-2.8-4.38-2.7-8.82s.25-8.82.32-13.22c.15-8.51.12-17-.55-25.52-13.64-3.17-21.66,5.87-20,18.83,1.09,8.39,8.94,27.16,2.85,34.65-1,1.26-8.48,2.89-8.9.81-.81-4-1.63-8-2.44-12.06Q273,568.64,268.43,553A2,2,0,0,1,267.23,551.1Z"/><path class="cls-22" d="M277.54,584.31c.81,4,1.63,8.05,2.44,12.06l-48.24,0c.75-5.06,2.17-10.13,2.14-15.18-.15-22.73,10.6-32.93,33.35-30a2,2,0,0,0,1.19,1.86Z"/><path class="cls-12" d="M387.32,602.47l-80.26-.2.21-4.52.31-.33,10-.79,7.77.59,8.82-3.88,52.28-.13C386.76,596.3,387,599.38,387.32,602.47Z"/><path class="cls-12" d="M288.49,597.46l1.86-8.44,15.74.32,1.52-.33,0,8.41-.31.33Z"/><path class="cls-23" d="M746.19,594l-46.11,0,3.84-42.72,36.64,3.07q1.32,6.21,2.66,12.43Z"/><path class="cls-24" d="M677.05,594.64l-10.1-.08.15-41.94.33-34.83q0-13.08,0-26.15l8.85-.57q.07,11.19.17,22.38l.12,26.36Q676.82,567.22,677.05,594.64Z"/><path class="cls-22" d="M677.05,594.64q-.22-27.42-.44-54.83c13.57-.35,18.16,6.94,16.51,19.47-1.53,11.61-3.12,23.21-4.68,34.82Z"/><path class="cls-19" d="M747.21,485.66l6.45,1.17L749,511.69c-16.13,12.39-21-8.1-32-10.92q-.21-4.71-.4-9.43Z"/><path class="cls-23" d="M716.61,491.34q.2,4.73.4,9.43l-40.52,12.68q-.09-11.19-.17-22.38a2.32,2.32,0,0,1,2.18-1.6Z"/><path class="cls-3" d="M648.53,348.7l6-4.33c.57.45,1.33.79,1.69,1.38,21,33.91,21,33.91,50.32,7.4q-.07,17.94-.16,35.87l-59.61.52Q647.64,369.13,648.53,348.7Z"/><path class="cls-10" d="M706.33,389q.07-17.94.16-35.87l5.18-9.18a3.26,3.26,0,0,0,3.23,1q.61,28.58,1.22,57.16-1,10.39-2,20.76a3.19,3.19,0,0,0-1.73-1.87l-5.77-1.49c0-1.59,0-3.18,0-4.77Q706.47,401.91,706.33,389Z"/><path class="cls-17" d="M714.9,345a3.26,3.26,0,0,1-3.23-1l4.53-4.12C715.77,341.57,715.34,343.28,714.9,345Z"/><path class="cls-8" d="M716.55,490.64c-1,.11-2.07.2-3.11.27A146.8,146.8,0,0,1,680,489.5c-2.49-.4-.11-4.71.39-6.4,1.74-5.9,8.77-6.81,13.88-7.61a170,170,0,0,1,21.84-2c6.54-.18,13.3,0,19.54,2.24a87.83,87.83,0,0,1,8.18,3.45c2.4,1.14,4,2.93,3.3,5.75a1.23,1.23,0,0,1-.32.63,1.41,1.41,0,0,1-.69.25C736.24,487.4,726.5,489.65,716.55,490.64Z"/><path class="cls-15" d="M729.37,473.4l-18.6-.06L727.3,438l16.61-9.86,6.42,4.19C742.13,448.39,735.75,460.89,729.37,473.4Z"/><path class="cls-8" d="M743.91,428.11,727.3,438l-3.46-5.07a27.37,27.37,0,0,1-2.44-3.46,10,10,0,0,1-.55-4.53c.22-7.44,0-14.88-.12-22.32a.66.66,0,0,1,.08-.39.63.63,0,0,1,.36-.19,6.09,6.09,0,0,1,2.28-.25c.92.11,2.22.68,2.22,1.77,0,.23.59.79.73,1l.73,1,1.67,2.24c1.11,1.51,2.23,3,3.34,4.51l6.69,9Z"/><path class="cls-21" d="M275.6,503.16l-17.36,11.09-22.05-1.76q-5.16-13.94-10.31-27.88c.45-2.53.89-5,1.33-7.56,4.58-5.35,9.66-10.36,13.64-16.13,7.73-11.19,14.83-22.8,22.18-34.24,4.17,1.54,8.36,3.06,12.55,4.6l5.82,41.94L263,483.39l12.68,8.06C275.65,495.35,275.63,499.26,275.6,503.16Z"/><path class="cls-25" d="M285.58,423.67l18.6-8c134.14-.75,268.29-.7,402.43-.88,0,1.59,0,3.18,0,4.78q-197.46.06-394.93.28c-8.56,0-17.1,2.26-25.65,3.47"/><path class="cls-14" d="M236.19,512.49l22.05,1.76-18,12.68-4.55-4.25Z"/><path class="cls-17" d="M235.72,522.68l4.55,4.25q-2.1,3.21-4.19,6.42l-3.72-2.94C233.49,527.83,234.6,525.26,235.72,522.68Z"/><path class="cls-2" d="M720.74,402.09l.3,26.71V429l-5.37.36L714.06,423q1-10.4,2.06-20.79Z"/><path class="cls-14" d="M564.26,246.16l-4,4.5-24,5q3.25-22.47,6.49-44.94Z"/><path class="cls-15" d="M684.16,405.76H299c0-.74,0-1.48,0-2.23h385.4Z"/><path class="cls-4" d="M600.71,242.07c-8.42,15-18.69,17.09-31.06,4.45C580,245,590.58,247.67,600.71,242.07Z"/><path class="cls-12" d="M491.27,602.23l-95.3.24q-.11-12-.22-24.09c10.17,3.49,20.29,9.81,30.5,10,55.09.84,110.2.14,165.3,0l8.17,2c.31,2.55.61,5.09.92,7.64l.19-.19-2.21.15-2.21,0Z"/><path class="cls-23" d="M667.47,491.64q0,13.07,0,26.15l-42.8,71.44-19.22,9q-.13-53.19-.26-106.39Z"/><path class="cls-5" d="M624.63,589.23l42.8-71.44-.33,34.83-32,37.4Z"/><path class="cls-23" d="M635.1,590l32-37.4L667,594.56Z"/><path class="cls-21" d="M605.15,491.82q.12,53.19.26,106.39l-4.77-.19c-.31-2.55-.61-5.09-.92-7.65q-.08-25.87-.16-51.75l-.66-5.39q.92-20.73,1.82-41.47Z"/><path class="cls-26" d="M395.59,578.49c.77,1.11.24,3.2.25,4.45l0,6.58.07,12.87c-2.46.11-4.92.1-7.38.2a1,1,0,0,1-1.38-1.13,95,95,0,0,1,.38-15c.25-2.49.6-5,1-7.43.14-.86-.23-3.5,1.1-3.58a2,2,0,0,1,1,.32l3.86,2a3.22,3.22,0,0,1,1,.66Z"/><path class="cls-11" d="M306.09,589.34,290.35,589c-1.46-9.37-3.1-18.71-4.32-28.11-1.81-14,4-20.66,20.06-18.94Z"/><path class="cls-23" d="M275.6,503.16c0-3.9,0-7.81.08-11.71l36.52-.82a6.28,6.28,0,0,1,4,1.23V517.2Z"/><path class="cls-24" d="M325.38,597.22l-7.77-.58a4.36,4.36,0,0,0-1.08-3q1.32-35.79,2.63-71.56h5.61c.15,1.7.29,3.39.43,5.09q.27,8.72.52,17.42.09,4.26.16,8.53l-.21,22.35q0,6.16.08,12.31C325.63,590.91,325.51,594.06,325.38,597.22Z"/><path class="cls-19" d="M324.77,522.05h-5.61l-3-4.86q0-12.66,0-25.34h8.68Z"/><path class="cls-11" d="M277.54,584.31,268.42,553Z"/><path class="cls-14" d="M316.53,593.62a4.36,4.36,0,0,1,1.08,3l-10,.78,0-8.41Z"/><path class="cls-27" d="M325.75,587.75q0-6.15-.08-12.3l61.54-4.22A7.46,7.46,0,0,1,389,575q-1.26,9.12-2.53,18.24l-52.28.13Z"/><path class="cls-28" d="M325.75,587.75l8.46,5.59-8.82,3.88Z"/><path class="cls-14" d="M605.14,492.16a25.34,25.34,0,0,1-4.54-.5c-3.28-.71-6.49-2.75-9.28-4.54,0,0,5.93-4.09,6.67-4.44,2.52-1.2,5.28-1.17,8-1.4,11.84-1,23.44-3.61,35.25-4.77a79.9,79.9,0,0,1,20.19.45A63.6,63.6,0,0,1,674,480c3.52,1.33,7.06,1.85,6,6.74-1.24,5.78-8,4.59-12.51,4.88-11.25,0-22.5.06-33.75.09l-17.1,0C613.06,491.79,609,492.26,605.14,492.16Z"/><path class="cls-29" d="M368.2,476.73,338,477l-56.61-3.77-5.82-41.94,10.4-7.95c3.66.41,7.31,1.17,11,1.17q199.37.11,398.74-.09c5.55,0,11.1-2.19,16.65-3.36a3.19,3.19,0,0,1,1.73,1.87c.53,2.17,1.07,4.31,1.62,6.45l5.36-.36v-.21L727.3,438l-16.53,35.36-24.91,3.82-17.9-.28c-22.36-3-44.06,3.8-66.18,4.68-3.71.15-7.29,3.62-10.92,5.56l-59.87.35-132.09-.62L373.53,478m258.05.71c-.51-1.28-14.48-41.82-15-43.1-.57.46-1.7,1-1.64,1.35.28,1.32,14.14,40.48,14.64,41.75C630.17,478.22,631,479.13,631.58,478.67Zm-250.9-22.39c-.48.43-1.31.83-1.37,1.32s.67,1.06,1.05,1.6c.46-.47,1.25-.92,1.29-1.43S381,456.7,380.68,456.28Z"/><path class="cls-30" d="M712.34,421.05c-5.55,1.17-11.1,3.36-16.65,3.36q-199.37.29-398.74.09c-3.66,0-7.31-.76-11-1.17,8.56-1.22,17.1-3.46,25.66-3.48q197.46-.39,394.93-.28Z"/><path class="cls-4" d="M668,476.88l17.9.28-5.47,5.94Z"/><path class="cls-8" d="M281.43,473.49c6.83-.89,14.34.68,20.91,1.12L338,477,312.2,490.63c-2.75,1.45-9.94.22-13.12.29-4.76.11-9.53.19-14.3.32a31.83,31.83,0,0,1-14.36-3.07C257.82,482,274.77,474.35,281.43,473.49Z"/><path class="cls-4" d="M721.05,429l-5.36.36Z"/><path class="cls-26" d="M389,575a7.46,7.46,0,0,0-1.81-3.74L389,554.07l6.85-4.06c9.4-3.37,18.76-9.52,28.21-9.64,55.86-.76,111.75-.11,167.63.06-10.28,15.93-11.08,31.89-.18,47.9-55.1.16-110.21.86-165.3,0-10.21-.16-20.33-6.48-30.5-10Z"/><path class="cls-2" d="M591.55,588.33c-10.9-16-10.1-32,.18-47.9l7.82-1.82q.09,25.89.17,51.76Z"/><path class="cls-23" d="M531,487.47l59.87-.35,9.86,4.64q-.91,20.73-1.82,41.47-28.83-1.37-57.69-2.7Q536.09,509,531,487.47Z"/><path class="cls-27" d="M541.22,530.52l57.68,2.71.66,5.39-7.83,1.81c-55.88-.17-111.77-.82-167.63-.06-9.45.12-18.81,6.27-28.21,9.64q.33-9.43.64-18.84Z"/><path class="cls-14" d="M312.2,490.63,338,477l30.2-.26c1.77.42,3.55.83,5.32,1.23l25.37,8.89c-1.3,1.64-2.58,3.28-3.87,4.92l-7.77.09H316.19A6.28,6.28,0,0,0,312.2,490.63Z"/><path class="cls-2" d="M324.87,491.85h62.39q2.14,8.42,4.3,16.84-2.16,4.48-4.33,8.95l-10.38,16.22L330.62,533l-5.42-5.9c-.14-1.69-.28-3.38-.43-5.08Q324.83,506.95,324.87,491.85Z"/><path class="cls-18" d="M330.62,533l46.23.84,10.2,1.89q1,9.16,2,18.31l-1.83,17.16-61.54,4.22.21-22.36,2.7-8.82Z"/><path class="cls-14" d="M330.62,533q-1,5.63-2,11.24l-2.87.29q-.25-8.71-.52-17.42Z"/><path class="cls-28" d="M325.72,544.56l2.87-.29q-1.36,4.41-2.71,8.82Q325.8,548.82,325.72,544.56Z"/><path class="cls-9" d="M395,491.77c1.29-1.64,2.57-3.28,3.87-4.92l132.09.62q5.12,21.54,10.22,43.06l-144.69.64-1.83-22.74Q394.86,500.11,395,491.77Z"/><path class="cls-28" d="M368.58,476.67c1.85-4.34,17.69-36.83,19.53-41.17l3.89,1.67c-1.88,4.32-16.53,36.18-18.42,40.5C372.33,477.14,369.84,477.21,368.58,476.67Z"/><path class="cls-28" d="M632.58,479.67c-.58.46-2.41-1.45-3-1-.5-1.27-14.36-40.43-14.64-41.75-.06-.32,1.07-.89,1.64-1.35C617.1,436.85,632.07,478.39,632.58,479.67Z"/><path class="cls-28" d="M380.68,456.28c.29.42,1,1,1,1.49s-.83,1-1.29,1.43c-.38-.54-1.1-1.11-1.05-1.6S380.2,456.71,380.68,456.28Z"/><path class="cls-26" d="M394.69,508.43c.46,0,1.43,18.74,1.51,20.53.3,7-.07,14-.31,21-1.11.66-5,4.56-6.43,3.68-.51-.31-.37-3.89-.46-4.59-.41-3.34-1.37-6.57-1.55-9.94-.25-4.52-.5-9-.41-13.53a36.25,36.25,0,0,1,1.15-9.62,29,29,0,0,1,1.83-4.33c.27-.57.83-2.83,1.54-3A13.66,13.66,0,0,1,394.69,508.43Z"/><path class="cls-19" d="M394.69,508.43a13.66,13.66,0,0,0-3.13.27q-2.16-8.42-4.3-16.84l7.77-.09Q394.87,500.1,394.69,508.43Z"/><path class="cls-12" d="M387.23,517.65l-.18,18.11-10.2-1.89Z"/><path class="cls-8" d="M286.45,391.05a11.5,11.5,0,0,1,2.9,1.86c6,5.34,4.68,14.65,3.75,21.7-.54,4-.46,5.74-4.1,7.6-3.15,1.6-6.37.83-9.17,3.32-.69.62-4.94,6.88-3.79,7.41-3.66-2-9.32-3.12-11.87-6.68s3-10.48,3.41-14.59c.86-8.7-5.41-10.85,1.42-17.48a15.5,15.5,0,0,1,3.28-2.61A17,17,0,0,1,286.45,391.05Z"/><polygon class="cls-1" points="387.58 238.67 379.58 198.67 391.58 238.67 387.58 238.67"/><path class="cls-11" d="M726.58,389.67s-6,9-6,12,4,1,4,1l2.72-13.36Z"/><path class="cls-10" d="M235.8,172.17c-.33-.84,4.82-4.79,5.48-5.35-.9-.89-2.83-1.19-4.17-1.19a1.71,1.71,0,0,0-1.65,1,2.63,2.63,0,0,0-.08,1C235.46,169.11,235.24,170.77,235.8,172.17Z"/><path class="cls-10" d="M243.12,162.14c1.89-2.5,5-2.83,7.92-2.39.87.14,7.65,1.69,7.23,3l-1.19,3.69-7.63.11c-1.55,0-3.61.42-5.12.08C241.94,166.1,241.91,163.76,243.12,162.14Z"/><path class="cls-8" d="M720.58,286.67c-3.93-.84-3.5-12.49-4-15.43.26,1.5,2.92,4.46,4,5.43,1.54,1.37,3.35,1.91,5.41,2.74,1.91.78,4.56,3.24,6.59,3.26a92.21,92.21,0,0,1,14,1c2.42.38,5.63-.58,8,0,1.64.4,2.73.37,4,1,10,5-13,9-13,9S721,286.76,720.58,286.67Z"/></g></g></svg>