<svg xmlns="http://www.w3.org/2000/svg" viewBox="0 0 1054.17 888.19"><defs><style>.cls-1{fill:#fefefe;}.cls-2{fill:#f8e8c8;}.cls-3{fill:#fad4aa;}.cls-4{fill:#4b4248;}.cls-5{fill:#484148;}.cls-6{fill:#e59706;}.cls-7{fill:#6d636d;}.cls-8{fill:#f9b9ab;}.cls-9{fill:#51474d;}.cls-10{fill:#e79c19;}.cls-11{fill:#efaa29;}.cls-12{fill:#e59501;}.cls-13{fill:#e7990e;}.cls-14{fill:#f4f3f2;}.cls-15{fill:#443c45;}.cls-16{fill:#f0b038;}.cls-17{fill:#e29815;}.cls-18{fill:#fcf3e7;}.cls-19{fill:#fdf8f0;}.cls-20{fill:#f3b4a2;}.cls-21{fill:#e9e6e5;}.cls-22{fill:#79706c;}.cls-23{fill:#ede1c4;}.cls-24{fill:#121110;}.cls-25{fill:#726168;}.cls-26{fill:#040304;}.cls-27{fill:#4a4146;}.cls-28{fill:#967246;}.cls-29{fill:#b98228;}.cls-30{fill:#e1a197;}.cls-31{fill:#8c5f11;}</style></defs><title>cozentusAsset 4</title><g id="Layer_2" data-name="Layer 2"><g id="Designed_by_Freepik" data-name="Designed by Freepik"><path class="cls-1" d="M601.09,888.19c47.29-2.33,95.13-4,142.86-7.25,36.8-2.49,73.71-5.28,110.13-10.82,67.11-10.22,124.18-40.46,163.72-96.59,46.1-65.44,42.51-139.1,21.48-210.79-16.18-55.21-40-108.51-64.08-161-33.92-73.94-46.6-153.3-65.13-231.29C886,69.07,819.16,2,711.28.11c-42-.74-84.1,2.47-126,5.69C500.19,12.33,435.15,48.55,403,132.17c-5.5,14.3-14,27.41-20.32,41.45-13.32,29.81-34.21,50.11-66.68,58.31-27.1,6.84-54.42,13.63-80.54,23.4-81.74,30.6-158.54,68-195,155.74C8.37,488.18-14.83,567.22,11.27,650.41,46.61,763.08,133.19,822,240.46,853.63,357.93,888.22,480.09,879.73,601.09,888.19Z"/><path class="cls-2" d="M601.09,888.19c-121-8.46-243.16,0-360.63-34.56C133.19,822,46.61,763.08,11.27,650.41c-26.1-83.19-2.9-162.23,29.16-239.34,36.45-87.69,113.25-125.14,195-155.74,26.12-9.77,53.44-16.56,80.54-23.4,32.47-8.2,53.36-28.5,66.68-58.31,6.28-14,14.82-27.15,20.32-41.45C435.15,48.55,500.19,12.33,585.26,5.8c41.92-3.22,84-6.43,126-5.69C819.16,2,886,69.07,910.07,170.47c18.53,78,31.21,157.35,65.13,231.29,24.08,52.47,47.9,105.77,64.08,161,21,71.69,24.62,145.35-21.48,210.79-39.54,56.13-96.61,86.37-163.72,96.59-36.42,5.54-73.33,8.33-110.13,10.82C696.22,884.17,648.38,885.86,601.09,888.19ZM815.86,142.41l.53.24-5.52-6.11.59.39q-3-3-5.9-5.92l.68.37-8.18-5.93-1.29.46-1-1-11.32-5.14c-25.44-3-44.6,7.43-55.59,29.69-10.63,21.52-4.8,41.57,9.83,60.35,7,9,10.67,20.49,15.85,30.86V270h46.71V241.1M778.57,373.84c-.15,31.19-.12,62.39-.14,93.59l-75.24-.07q-3-5.72-6.05-11.43l34.45-29.45c-8.55-20.86-16-39-23.41-57.07l11.41-20.73-60.2-65-33-17.46-15.49-10.42c1.88-4.85,4-9.64,5.61-14.56,5.14-15.27,10.11-30.59,15.15-45.89C635.84,181,640,166.57,644,152.84c-43.63-29.14-72.87-27-98.51,7.5,1.55,10.73,3.32,23,5.1,35.36l-2.48,3.38,4,1.29,0-.36q7.25,33.39,14.51,66.78l-10.18-.29-44.47,14.93-41.83,82.12C461.54,385.79,453,408,444.54,430l30.13,21.35-5.46,16-85,.09-39.15-27.47L311.78,326.56l107.85-32.09,24.6,20.68c27.73-8,41-27.92,33.78-50.61-25.72-18.5-42.68-13.89-61.36,16.69-34.42,10.79-69.06,21-103.09,32.9-7,2.46-11.72,11.44-17.49,17.41L333.52,440.8l-23.08,26.65-30.21,3.43v22l29.41,5c-2.94,21.85-5.68,42.16-8.41,62.48Q298.61,574,296,587.47q-1,7.86-2,15.72l-2.61,29,7.76,1.32,5.88-24,1.18-10.85L311,562.8c4.71-21.78,9.42-43.56,14.36-66.38h133c-.44,5.32-.29,10.78-1.4,16-9.56,44.45,10,79.74,53.81,96.72,3.09,16.9,5.14,34.08,9.53,50.63,5.68,21.42,13.23,42.33,20,63.46-.14,3.42-.27,6.84-.41,10.25l-15,18c-21.81,7.79-43.13,17.74-65.56,22.78-24.39,5.48-50,5.23-74.72,9.68-19.53,3.52-41.45,5.41-53,34.85,25.61,4.85,48.82,12.47,72.21,13.07,67.88,1.72,135.83.64,203.76.64H864.92l21.31-29.21c-11.43-5.88-18.81-12-27-13.48-36.24-6.46-73-10.42-109-17.66-18-3.61-37.24-9.09-51.71-19.54-17.84-12.89-31.3-31.85-46.64-48.18Q660.9,657,670,609.53c12.72-12.78,31.69-23.51,36.69-38.82,7.54-23.08,5.33-49.34,7.26-74.26H848.31c18.09,108.1,36,215.08,53.91,322.06l12.63-2.24Q888.45,658.08,862,499.9l4.67-4.64c18.77,1.71,27.36-4.27,18.74-25.17l-34.88-2.93M258.45,815.48l12.75,1.66Q285.42,729,299.63,640.83l-11.58-2Q273.26,727.16,258.45,815.48Z"/><path class="cls-3" d="M651.84,704.41c15.34,16.33,28.8,35.29,46.64,48.18C713,763,732.22,768.52,750.19,772.13c36.06,7.24,72.78,11.2,109,17.66,8.21,1.46,15.59,7.6,27,13.48l-21.31,29.21H607.59c-67.93,0-135.88,1.08-203.76-.64-23.39-.6-46.6-8.22-72.21-13.07,11.59-29.44,33.51-31.33,53-34.85,24.7-4.45,50.33-4.2,74.72-9.68,22.43-5,43.75-15,65.55-22.78-3.93,13-7.85,26.06-14.47,48,24.41-2.7,47.07,1.28,54.77-7.64,10.25-11.91,8.88-33.84,12.49-51.47q-3-9.29-6.08-18.59l7.71-9.21,21.55-5.67,9.88,11q-.39,9.12-.79,18.23c-18.35,14.26-13.4,33.06-4.76,48C618.24,806.5,640,800,668,793.17c-8.91-21-16.87-39.74-24.82-58.47L638,719.27Q644.92,711.85,651.84,704.41Z"/><path class="cls-4" d="M458.42,496.42h-133c-4.94,22.82-9.65,44.6-14.38,66.37l-9.77-2.37c2.73-20.32,5.47-40.63,8.41-62.48l-29.41-5v-22l30.21-3.43,73.82,0,84.95-.09L486.48,462l2.09-.39,2.12.22L506,467.71l159.88-.58-.69.53,16.8-.89,2.19.07,2.18-.23,16.89.74,75.23.08,31.88.1,7.89.13,32.37-.5,34.88,2.93c8.62,20.9,0,26.88-18.74,25.17L862,499.9q26.4,158.18,52.81,316.37l-12.63,2.24c-17.91-107-35.82-214-53.91-322.06H713.9l-25.32-1.05-30.44.11-144.75-.07-34.12-.21Z"/><path class="cls-5" d="M610.78,717.87l-9.88-11-1.11-92q0-5.9.1-11.79.72-46.24,1.46-92.49l54.91.23,24.89,33.14L670,609.53q-9,47.44-18.11,94.88-6.93,7.43-13.84,14.86Z"/><path class="cls-5" d="M579.35,712.56l-7.71,9.21-31.3,1.43c-6.75-21.14-14.3-42.05-20-63.47-4.39-16.55-6.44-33.73-9.53-50.63q-.9-6.87-1.81-13.76c-2.09-14.15-4.64-28.25-6.13-42.46-1.7-16.2-3.71-33,15.57-41.52l4.7-3.54,6.09,1.62L566,517.19c22,26.65,8.66,58.23,12.2,87.45q1.39,4.86,2.78,9.72Z"/><path class="cls-6" d="M626.42,266.26l33,17.46.45,69.9L512.59,352q-.33-35.31-.67-70.61l44.47-14.92c.37,9.49-1.08,19.59,1.82,28.24,1.67,5,10.37,7.6,15.9,11.29l13.25-1c7.69,0,19.92,3,22.26-.56C617.18,293.05,621.1,279.19,626.42,266.26Z"/><path class="cls-7" d="M796,124.62a48.31,48.31,0,0,1,5.33,3.27c27.63,19.5,25.38,75.47-5.19,91.28,1.28-.66-1.51-14.82-1.74-16.19-1-6.1-2.33-12.14-3.19-18.27-9.59-16.92-19-17.53-28.32.25l.29-.3q-2.58,13.22-5.17,26.41c1.66,2.15,3.31,4.31,5,6.46q-4.17,11.58-8.36,23.15c-5.18-10.37-8.87-21.9-15.85-30.86C724.1,191,718.27,171,728.9,149.47,741.16,124.62,771.06,111.51,796,124.62Z"/><path class="cls-8" d="M587.36,305.06l-13.25,1q-3.78-19.62-7.54-39.24Q559.31,233.4,552.06,200l15.29-18.17h55.1c2.46,3.62,5.85,8.58,9.24,13.55-5,15.3-10,30.62-15.15,45.89-1.65,4.92-3.73,9.71-5.62,14.55Z"/><path class="cls-9" d="M634.71,199.32c-5,1-9.8-13.86-12.26-17.48-18.21,0-34.74,8.48-53.74,2.48-4.21,5-11.11,9.11-16.65,15.69l0,.37c.47-1.88-3.87-2.82-5.37-4.06-2.52-2.08-2.77-8.94-3.6-12-3.06-11.32-4.86-25.36,3.6-34.84,19.16-21.48,51.79-19.78,76-8.84a122.93,122.93,0,0,1,12.84,6.91c2.86,1.72,6.51,3.17,8.38,6.09,2.22,3.46.88,8.52.82,12.38a106.28,106.28,0,0,1-1.46,18C642.55,188.15,640.68,199.27,634.71,199.32Z"/><path class="cls-10" d="M296.07,331.54c5.77-6,10.49-15,17.49-17.41,34-11.92,68.67-22.11,103.09-32.92C435.33,250.65,452.29,246,478,264.55l-33.78,50.6-24.6-20.68L311.78,326.56Z"/><path class="cls-11" d="M850.57,467.16l-32.37.5q-.56-18.59-1.09-37.17-2.86-16.67-5.72-33.32c-1.23-7.18-.53-17.52.3-24.78s8.49-10.53,14.76-12c23.65-5.53,22.15,23.68,21.52,39C847.67,406.46,846.85,467.22,850.57,467.16Z"/><path class="cls-11" d="M659.84,353.62l-.45-69.9,60.2,65-11.4,20.73q-11,13.15-22,26.33l-14.3-4.14c.94-10.68,1.89-21.37,3-33.57Z"/><path class="cls-8" d="M686.17,395.73l22-26.32,23.4,57.07c-11.91,10.18-23.18,19.81-34.44,29.46l-10.84,10.67-2.18.23-2.19-.07-16.8.89.69-.53q-1.35-5.34-2.68-10.67,3.76-13.05,7.51-26.12C693.15,426.56,685.5,409.28,686.17,395.73Z"/><path class="cls-12" d="M809,367.66c7.42,7,2.92,20,2.67,30.19-.11,4.77.14,69.69-1.32,69.68l-31.88-.1c0-31.19,0-62.38.14-93.6.07-12,16.17-12.42,24.54-9.55A15.78,15.78,0,0,1,809,367.66Z"/><path class="cls-13" d="M577.72,740.36c-3.61,17.63-2.24,39.56-12.49,51.47-4.77,5.52-12.77,5.57-19.44,6q-13.68.83-27.36,1.64a9,9,0,0,1-4-.36c-6.25-2.55-.93-13.4.57-17.39,1.35-3.58,3-7.06,4.37-10.6,1.21-3,2.48-6.12,3.51-9.22.72-2.18.85-9,2-10.41l15-18C547.82,761.47,565,738.53,577.72,740.36Z"/><path class="cls-14" d="M670,609.53q5.61-32.79,11.2-65.6,3.72-24.27,7.43-48.53l25.32,1.05c-1.93,24.92.28,51.18-7.26,74.26C701.64,586,682.67,596.75,670,609.53Z"/><path class="cls-8" d="M490.69,461.85l-2.12-.21s-2.09.39-2.09.4q-5.91-5.32-11.81-10.68L444.54,430c8.45-22,17-44.22,25.54-66.45l21.27,32.69c-1.18,8.35-2.34,16.69-3.69,26.27l13.47,2.57q3.33,13.2,6.64,26.4l-.55,11.81Z"/><path class="cls-14" d="M509,595.35l1.8,13.75c-43.83-17-63.37-52.27-53.81-96.72,1.11-5.18,1-10.64,1.4-16l20.85-1.19c3.9,27.26,6.79,54.74,12.38,81.65C493.12,583.94,503,589.24,509,595.35Z"/><path class="cls-11" d="M491.35,396.25l-21.27-32.69q20.93-41.07,41.84-82.14c-2.14,4.2.15,15.51.19,20.34l.21,21.54q.1,10.77.2,21.54c.05,4.53.13,6.86-4.13,8.82-1.23.57-12.75,2.16-12.67,3.48.92,14.18,1.73,26.56,2.54,38.94Z"/><path class="cls-15" d="M258.45,815.48q14.81-88.32,29.6-176.64l11.58,2Q285.41,729,271.2,817.14Z"/><path class="cls-16" d="M296.07,331.54l15.71-5,33.31,113.38-11.57.86Z"/><path class="cls-17" d="M754.58,240.68q4.18-11.58,8.36-23.15l16.47,23.12,11.14-.59,10.74,1V270H754.58Z"/><path class="cls-13" d="M333.52,440.8l11.57-.86,39.16,27.47-73.81,0Z"/><path class="cls-18" d="M587.36,305.06l23.56-49.23,15.5,10.43c-5.32,12.93-9.24,26.79-16.8,38.24C607.28,308,595.05,305.06,587.36,305.06Z"/><path class="cls-19" d="M444.23,315.15,478,264.55C485.24,287.23,472,307.14,444.23,315.15Z"/><path class="cls-20" d="M577.72,740.36c-12.68-1.83-29.9,21.11-37.8-6.91.14-3.42.27-6.84.42-10.26l31.3-1.42Q574.68,731.07,577.72,740.36Z"/><path class="cls-18" d="M566.57,266.79q3.76,19.62,7.54,39.24c-5.53-3.69-14.23-6.31-15.9-11.29-2.9-8.65-1.45-18.75-1.82-28.24Z"/><path class="cls-15" d="M301.23,560.42l9.77,2.37q-2.38,17.94-4.79,35.85-5.11-5.58-10.21-11.17Q298.61,574,301.23,560.42Z"/><path class="cls-19" d="M474.67,451.36q5.91,5.34,11.81,10.68l-17.27,5.28Z"/><path class="cls-15" d="M305,609.49c-2,8-4.36,24.82-6.32,32.83-2.58-.44-7.41-2.56-10-3,.87-9.67,4.42-26.45,5.29-36.12Z"/><path class="cls-19" d="M686.31,466.61l10.84-10.67,6.05,11.41Z"/><path class="cls-15" d="M305,609.49l-11-6.29q1-7.87,2-15.73,5.1,5.6,10.21,11.17Q305.61,604.07,305,609.49Z"/><path class="cls-21" d="M795.81,124.92l-11.32-5.14Z"/><path class="cls-21" d="M811.46,136.93l-5.9-5.92Q808.5,134,811.46,136.93Z"/><path class="cls-21" d="M806.24,131.38l-8.17-5.93Z"/><path class="cls-22" d="M862,499.9l4.67-4.64Z"/><path class="cls-8" d="M550.55,195.7a4.29,4.29,0,0,1,1.53,4.68l-4-1.3Z"/><path class="cls-21" d="M816.39,142.65c-1.84-2-3.67-4.07-5.51-6.11C812.71,138.58,814.55,140.61,816.39,142.65Z"/><path class="cls-13" d="M643.26,735c0,3.9,4.39,10.35,5.94,14,0,11.92,12.47,24.48,15.75,35.91,2.17,7.58-1.81,11.42-9.14,12.52-10.76,1.6-24.13,4.14-34.66.43-8-2.82-14.31-9.44-18.08-17.06-3.57-7.2-6.46-17.16-5.38-25.19a28,28,0,0,1,4.18-10.76c.51-.82,7.74-9.1,8.11-8.46,3,5.32,7.22,11.15,13.34,11.5C631.43,748.29,636.36,739.23,643.26,735Z"/><path class="cls-23" d="M579.35,712.56l1.62-98.2,18.82.48,1.11,92Z"/><path class="cls-20" d="M643.17,734.7c-10.68,9.49-21.16,23.71-33.17,1.4l.78-18.23,27.22,1.4Z"/><path class="cls-6" d="M529.25,509.45l-6.08-1.63a3.79,3.79,0,0,0-4.38-.63l-5.4-11.75,144.75.07q-.95,7.64-1.88,15.28l-54.92-.23-35.82-.51a2.13,2.13,0,0,0-2.6-1.13l-7.61-1.07Z"/><path class="cls-24" d="M513.39,495.44q2.7,5.88,5.39,11.75a8.21,8.21,0,0,0-.32,4.17c-19.28,8.54-17.27,25.32-15.57,41.52,1.49,14.21,4,28.31,6.13,42.46-6-6.1-15.9-11.4-17.37-18.46-5.59-26.91-8.48-54.39-12.38-81.65Z"/><path class="cls-25" d="M507.22,463.3q.27-5.9.55-11.81c8.64,1.79,17.26,5,25.92,5.11,43.15.41,86.31,0,129.46-.14q1.33,5.34,2.68,10.67L506,467.71A7.2,7.2,0,0,1,507.22,463.3Z"/><path class="cls-24" d="M656.26,510.79q.93-7.65,1.88-15.28l30.44-.11q-3.71,24.27-7.43,48.53Z"/><path class="cls-3" d="M810.31,467.53l1.29-38.41,5.51,1.37q.54,18.58,1.09,37.17Z"/><path class="cls-24" d="M507.22,463.3a7.2,7.2,0,0,0-1.26,4.41l-15.27-5.85Z"/><path class="cls-15" d="M665.14,467.66l16.8-.89Z"/><path class="cls-26" d="M565.52,510.05l35.82.51q-.72,46.24-1.45,92.49l-21.7,1.59c-3.54-29.22,9.75-60.8-12.19-87.45Z"/><path class="cls-1" d="M578.19,604.64l21.7-1.59q-.06,5.9-.1,11.79L581,614.36Q579.57,609.5,578.19,604.64Z"/><path class="cls-15" d="M565.52,510.05l.48,7.14-36.75-7.75,26.06-1.6,7.61,1.08A2.13,2.13,0,0,1,565.52,510.05Z"/><path class="cls-15" d="M518.46,511.36a8.21,8.21,0,0,1,.32-4.17,3.8,3.8,0,0,1,4.39.63Z"/><path class="cls-27" d="M662.24,454.89a10.6,10.6,0,0,1-5.72,1.55c-10.63.27-127.53,2.4-127.53-.1-7.08-.67-20.78-.27-22.95-9.29a326.66,326.66,0,0,1-8.21-52.57c-.19-2.51-3.4-37-2.11-37.34L512.59,352l147.25,1.59,15,4.41c-1.91,21.49-3.09,43-4.23,64.6a93.53,93.53,0,0,1-2.8,17.35C666.37,445.86,666.45,452.07,662.24,454.89Z"/><path class="cls-25" d="M779.41,240.65l-16.47-23.12c-1.65-2.15-3.3-4.31-5-6.45q2.58-13.2,5.17-26.42l-.29.3,21.86,9.46Z"/><path class="cls-28" d="M779.41,240.65q2.65-23.11,5.31-46.21,3.22-4.86,6.46-9.73,2.48,17.56,4.94,35.12l-5.57,20.23Z"/><path class="cls-29" d="M791.18,184.71q-3.23,4.88-6.46,9.73L762.86,185C772.15,167.18,781.59,167.79,791.18,184.71Z"/><path class="cls-29" d="M763.15,184.66q-2.58,13.22-5.17,26.42Q760.58,197.87,763.15,184.66Z"/><path class="cls-30" d="M599.71,261.32c-2,3-4.89,7.66-13,9a19.53,19.53,0,0,1-12-10c6-.86,18.86,1.35,24.85.48Z"/><path class="cls-20" d="M599.56,260.8l1.52-2.16"/><path class="cls-16" d="M817.11,430.49l-5.51-1.37q-.11-16-.2-31.95Q814.25,413.83,817.11,430.49Z"/><path class="cls-2" d="M670.66,430.34q.62-19.36,1.21-38.74l14.31,4.14C685.5,409.28,693.15,426.56,670.66,430.34Z"/><path class="cls-18" d="M498.26,396.08q1.44,14.49,2.88,29l-13.48-2.56c1.35-9.58,2.51-17.92,3.69-26.27Z"/><path class="cls-31" d="M562.92,508.92l-7.61-1.08Q559.11,508.4,562.92,508.92Z"/><path class="cls-8" d="M630.82,198s5.22-5,5.89-3.72c6,11-10.7,18.36-10.7,18.36Z"/><path class="cls-8" d="M552.16,200s-5.4-5-6.1-3.72c-6.21,11,11.08,18.36,11.08,18.36Z"/><path class="cls-17" d="M753.92,241.33a4.24,4.24,0,0,0-2.5-1.22,9.06,9.06,0,0,0-5.27.94c1.25-.62,7.32,8.29,8.44,9.19C756.07,247.93,756,243.44,753.92,241.33Z"/><path class="cls-17" d="M802,241.47c2-2.63,6.12-3.07,6,.63-.09,3.93-7,6.3-6.78,10.74l-.36-7.85A5.25,5.25,0,0,1,802,241.47Z"/><path class="cls-1" d="M808.71,134.32s38,29,1,77l-5,9-5.9-2.79S835.71,178.32,808.71,134.32Z"/><path class="cls-9" d="M634.71,168.32c0-.55,7-4.85,7.95-5.67,2.42-2.11,5.11-5,6.05-8.33,1.21-4.22-8-7.88-10.61-9.1-3.44-1.61-7-3-10.56-4.28-2.41-.86-5.61-3.72-8.35-3.1-2,.46-1.21,2.3-.62,3.5,2.27,4.62,5.51,8.68,8.09,13.12l5.65,9.72C632.82,165.07,634.71,167.25,634.71,168.32Z"/></g></g></svg>