<svg xmlns="http://www.w3.org/2000/svg" width="36" height="36" viewBox="0 0 36 36"><defs><style>.a{fill:#ffd93b;}.b{fill:#3e4347;}.c{fill:#f4c534;}.d{fill:#fff;}</style></defs><g transform="translate(0.249 0.249)"><circle class="a" cx="18" cy="18" r="18" transform="translate(-0.249 -0.249)"/><path class="b" d="M124.322,327.982a11.226,11.226,0,0,1-20.766,0,.687.687,0,0,1,.517-.908,53.425,53.425,0,0,1,19.732,0A.688.688,0,0,1,124.322,327.982Z" transform="translate(-96.397 -303.809)"/><path class="c" d="M87.873,70.356a17.518,17.518,0,0,1-31.153,11A17.518,17.518,0,0,0,81.353,56.72,17.5,17.5,0,0,1,87.873,70.356Z" transform="translate(-52.809 -52.809)"/><g transform="translate(7.917 8.532)"><path class="d" d="M115.264,327.068c1.246,2.028,5.145,2.245,9.8,2.245,4.591,0,8.5-.218,9.8-2.161a.691.691,0,0,0-.1-.045A53.414,53.414,0,0,0,115.264,327.068Z" transform="translate(-115.264 -312.373)"/><ellipse class="d" cx="5.546" cy="5.543" rx="5.546" ry="5.543" transform="translate(10.956)"/></g><ellipse class="b" cx="3.024" cy="3.026" rx="3.024" ry="3.026" transform="translate(21.393 11.049)"/><g transform="translate(5.132 8.532)"><ellipse class="d" cx="0.818" cy="0.552" rx="0.818" ry="0.552" transform="matrix(-0.707, -0.707, 0.707, -0.707, 20.768, 5.334)"/><ellipse class="d" cx="5.546" cy="5.543" rx="5.546" ry="5.543"/></g><ellipse class="b" cx="3.024" cy="3.026" rx="3.024" ry="3.026" transform="translate(7.652 11.049)"/><ellipse class="d" cx="0.818" cy="0.552" rx="0.818" ry="0.552" transform="matrix(-0.707, -0.707, 0.707, -0.707, 12.159, 13.865)"/></g></svg>