<svg xmlns="http://www.w3.org/2000/svg" viewBox="0 0 217.57 217.57"><defs><style>.cls-1{fill:#e69600;}.cls-2{fill:#143757;}.cls-3{fill:#0d2338;}.cls-4{fill:#e3e3e3;}.cls-5{fill:#bababa;}.cls-6{fill:#fcc5a3;}.cls-7{fill:#e6ab88;}.cls-8{fill:#dea07c;}.cls-9{fill:#fff;}.cls-10{fill:#633324;}.cls-11{fill:#4a261b;}.cls-12{fill:#783e2c;}.cls-13{fill:#663525;}.cls-14{fill:none;stroke:#783e2c;stroke-miterlimit:10;stroke-width:4px;}</style></defs><title>happy_faceAsset 1</title><g id="Layer_2" data-name="Layer 2"><g id="OBJECTS"><circle class="cls-1" cx="108.79" cy="108.79" r="108.79" transform="translate(-45.06 108.79) rotate(-45)"/><path class="cls-2" d="M108.79,217.57a108.24,108.24,0,0,0,59.14-17.47c-1.05-4.3-2.41-7.88-4.19-10.27-8.84-11.91-54.95-22.39-54.95-22.39s-46.12,10.48-55,22.39c-1.78,2.39-3.14,6-4.19,10.27A108.28,108.28,0,0,0,108.79,217.57Z"/><path class="cls-3" d="M113.36,217.47c1.07-.05,2.13-.1,3.18-.18.15,0,.3,0,.45,0,1.19-.09,2.37-.2,3.55-.32l.85-.1c1-.12,2-.25,3-.39l.61-.08c1.17-.18,2.34-.38,3.51-.59l.65-.12c1-.2,2-.4,3-.62l.62-.14c1.18-.26,2.34-.54,3.5-.85l.33-.08q1.61-.43,3.18-.9l.57-.17q3.48-1.05,6.85-2.33l.47-.18c2.28-.87,4.51-1.82,6.71-2.83l.34-.16c2.23-1,4.42-2.16,6.56-3.34l.19-.11c1.08-.59,2.14-1.2,3.19-1.84h0c1.09-.65,2.16-1.32,3.22-2h0a44.06,44.06,0,0,0-1.66-5.42,106.11,106.11,0,0,1-115,0,45.86,45.86,0,0,0-1.66,5.42h0c1.06.69,2.13,1.36,3.22,2h0c1.05.64,2.11,1.25,3.19,1.84l.19.11c2.14,1.18,4.33,2.3,6.56,3.34l.34.16c2.2,1,4.44,2,6.71,2.83l.47.18q3.38,1.27,6.85,2.33l.57.17c1,.31,2.12.61,3.18.9l.33.08c1.16.31,2.32.59,3.5.85l.62.14c1,.22,2,.42,3,.62l.65.12c1.17.21,2.34.41,3.51.59l.61.08c1,.14,2,.27,3,.39l.85.1c1.18.12,2.36.23,3.55.32.15,0,.3,0,.45,0,1,.08,2.11.13,3.18.18l1,0c1.2,0,2.41.07,3.63.07s2.42,0,3.62-.07Z"/><path class="cls-3" d="M92.75,171.21,78.63,186.36l8.78,9.72-8.78,7.44,7.62,11.71q4.13.87,8.35,1.42Z"/><path class="cls-3" d="M125.19,171.21l-1.84,45.39q4.26-.57,8.41-1.47l7.56-11.61-8.78-7.44,8.78-9.72Z"/><path class="cls-4" d="M92.75,171.21l.85,45.3a109.36,109.36,0,0,0,30.45,0l.77-45.29-16-3.77Z"/><path class="cls-5" d="M113.11,217.48c1.06,0,2.12-.1,3.17-.17l.29,0q3.78-.27,7.48-.79l.12-7.33a96.46,96.46,0,0,1-30.71,0l.14,7.34q3.68.51,7.42.78l.33,0c1,.07,2.08.13,3.12.17l.81,0q1.74.06,3.51.06c1.17,0,2.35,0,3.52-.06Z"/><path class="cls-5" d="M108.49,184c-3.27,0-5.93-.14-5.93,2.7v.44c0,2.14.72,6.12,3.24,6.9l-1,23.45c1.34,0,2.68.08,4,.08,1.14,0,2.29,0,3.43-.06l-1-23.47c2.52-.78,3.23-4.76,3.23-6.9v-.44C114.41,183.86,111.76,184,108.49,184Z"/><path class="cls-5" d="M93.6,216.51l.59.07-.8-45.31,15.4-3.83-16,3.77Z"/><path class="cls-5" d="M108.79,167.44l15.39,3.83-.73,45.3.6-.07.77-45.29Z"/><polygon class="cls-5" points="124.7 178.19 124.81 171.72 123.62 170.93 120.32 170.15 108.66 184.5 97.24 170.15 93.79 170.97 92.76 171.63 92.89 178.57 102.4 191.62 108.66 184.81 114.91 191.62 124.7 178.19"/><path class="cls-3" d="M113.63,188.18a5.14,5.14,0,0,1-5.14,5.14h0a5.14,5.14,0,0,1-5.14-5.14V188a5.14,5.14,0,0,1,5.14-5.14h0a5.14,5.14,0,0,1,5.14,5.14Z"/><polygon class="cls-6" points="121.56 175.51 108.78 182.88 96.01 175.51 97.85 145.28 119.72 145.28 121.56 175.51"/><polygon class="cls-7" points="108.66 180.33 96.69 166.47 96.01 175.51 108.78 182.88 121.56 175.51 120.88 166.47 108.66 180.33"/><path class="cls-6" d="M74.24,110.68c0,9.89-6.2,17.9-13.85,17.9s-13.86-8-13.86-17.9,6.2-17.89,13.86-17.89S74.24,100.8,74.24,110.68Z"/><path class="cls-7" d="M71.33,110.68c0,7.81-4.9,14.14-10.94,14.14s-11-6.33-11-14.14,4.9-14.13,11-14.13S71.33,102.88,71.33,110.68Z"/><path class="cls-8" d="M52.37,111.73c0-7.23,4.54-13.08,10.13-13.08a8.65,8.65,0,0,1,6,2.5,10,10,0,0,0-8.06-4.6c-6,0-11,6.33-11,14.13s4.9,14.14,11,14.14a9.61,9.61,0,0,0,1.07-.07C56.35,124.07,52.37,118.5,52.37,111.73Z"/><path class="cls-6" d="M143.33,110.68c0,9.89,6.2,17.9,13.85,17.9s13.86-8,13.86-17.9-6.21-17.89-13.86-17.89S143.33,100.8,143.33,110.68Z"/><path class="cls-7" d="M146.24,110.68c0,7.81,4.9,14.14,10.94,14.14s10.95-6.33,10.95-14.14-4.9-14.13-10.95-14.13S146.24,102.88,146.24,110.68Z"/><path class="cls-8" d="M165.2,111.73c0-7.23-4.54-13.08-10.13-13.08a8.65,8.65,0,0,0-5.95,2.5,10,10,0,0,1,8.06-4.6c6,0,10.95,6.33,10.95,14.13s-4.9,14.14-10.95,14.14a9.28,9.28,0,0,1-1.06-.07C161.22,124.07,165.2,118.5,165.2,111.73Z"/><path class="cls-6" d="M157.34,106.5c0,31.81-21.85,57.59-48.81,57.59S59.71,138.31,59.71,106.5,64.39,40,108.53,40C152.45,40,157.34,74.7,157.34,106.5Z"/><path class="cls-7" d="M108.53,40C69.93,40,61.5,66.54,60,94.46c1.2,6.44,2.49,10.87,2.49,10.87,7.37-12.32,9.68-28.72,10.3-34.7a78.73,78.73,0,0,0,26.33,7.9c24.1,2.92,36-6.09,44.66-10.2,0,0,1.34,21.67,10.51,37,0,0,1.43-4.93,2.69-12C155.27,65.85,146.44,40,108.53,40Z"/><path class="cls-7" d="M108.53,40C64.39,40,59.71,74.7,59.71,106.5s21.85,57.59,48.82,57.59,48.81-25.78,48.81-57.59S152.45,40,108.53,40Zm0,120.84c-25.56,0-46.28-24.44-46.28-54.58s4.44-63,46.28-63c41.63,0,46.27,32.89,46.27,63S134.08,160.85,108.53,160.85Z"/><path class="cls-9" d="M83,124.82c5.55,15.65,14.9,22.77,25.51,22.77s19.95-7.12,25.5-22.77Z"/><path class="cls-10" d="M70.89,64.47s-1.43,24.61-11.18,42c0,0-8.07-29.65-3.36-49.67,2.2-9.34,11.83-11.21,11.83-11.21Z"/><path class="cls-11" d="M68.18,45.62a14.35,14.35,0,0,0-2.29.71l1.82,12.72s-1.29,22.3-9.83,39.47c1,4.88,1.83,8,1.83,8,9.75-17.42,11.18-42,11.18-42Z"/><path class="cls-11" d="M56.35,56.83c-.34,1.45-.62,3-.83,4.49a76.8,76.8,0,0,0,14.75,9.32c.48-3.8.62-6.17.62-6.17L68.18,45.62S58.55,47.49,56.35,56.83Z"/><path class="cls-12" d="M157.34,106.5s8.07-29.65,3.36-49.67c-2.2-9.34-11.83-11.21-11.83-11.21s-8.12-16.23-30-22c-16-4.21-34.58,2.2-50.72,18.23-9,8.88-17.89,8.88-17.89,8.88s15.87,21.09,48.38,25.3c25.63,3.32,38.34-6.92,47.49-11.59C146.16,64.47,147.59,89.08,157.34,106.5Z"/><path class="cls-13" d="M159,99.31c-8.39-17-10.1-29-9.67-39.14.1-2.51,1.32-10.5,1.84-13.83a14,14,0,0,0-2.31-.72l0-.09c-.75,3.43-2.55,11.78-2.66,19,.1,1.62,1.76,25.13,11.17,41.94C157.34,106.5,158.1,103.73,159,99.31Z"/><path class="cls-13" d="M146.16,64.47s.09,1.43.35,3.84C146.27,65.89,146.16,64.47,146.16,64.47Z"/><path class="cls-13" d="M98.67,71.6A77.59,77.59,0,0,1,53.84,50.23a16.74,16.74,0,0,1-3.55.53s15.87,21.09,48.38,25.3c25.63,3.32,38.34-6.92,47.49-11.59C137,69.14,124.3,74.92,98.67,71.6Z"/><path class="cls-12" d="M86.63,99.54c0,3.73-2.1,6.75-4.68,6.75s-4.69-3-4.69-6.75,2.1-6.75,4.69-6.75S86.63,95.82,86.63,99.54Z"/><path class="cls-9" d="M82,97c0,1.11-.63,2-1.4,2s-1.39-.89-1.39-2,.63-2,1.39-2S82,95.93,82,97Z"/><ellipse class="cls-12" cx="133.65" cy="99.54" rx="4.68" ry="6.75"/><path class="cls-9" d="M133.65,97c0,1.11-.63,2-1.39,2s-1.39-.89-1.39-2,.62-2,1.39-2S133.65,95.93,133.65,97Z"/><path class="cls-7" d="M119.82,105.29a14.75,14.75,0,0,1,.12,1.77c0,7.08-5,9.1-11.27,9.1s-11.27-2-11.27-9.1a14.75,14.75,0,0,1,.12-1.77,13.52,13.52,0,0,0-.75,4.44c0,7.08,5.33,9.1,11.9,9.1s11.9-2,11.9-9.1A13.79,13.79,0,0,0,119.82,105.29Z"/><path class="cls-14" d="M91.29,88.41c-2.13-3.65-5.52-6-9.34-6s-7.22,2.37-9.35,6"/><path class="cls-14" d="M143,85.4c-2.14-3.65-5.53-6-9.35-6s-7.21,2.37-9.35,6"/><path class="cls-4" d="M87.78,134.86l1.42.29.67.12c.24,0,.49.1.75.13l.8.13a5.71,5.71,0,0,0,.83.11,15.82,15.82,0,0,0,1.63.21c.26,0,.51.06.76.1s.47,0,.68.06a11.34,11.34,0,0,1,1.45.19,9.88,9.88,0,0,1-1.43.38,3.79,3.79,0,0,1-.7.11c-.26,0-.52,0-.8,0s-.57,0-.86,0l-.87-.1a7.89,7.89,0,0,1-.87-.15c-.29-.06-.56-.15-.83-.23a7.68,7.68,0,0,1-1.4-.57A5.27,5.27,0,0,1,87.78,134.86Z"/><path class="cls-4" d="M120.57,136.33s.59-.07,1.46-.11,2-.07,3.1-.16A7.15,7.15,0,0,0,126,136c.27,0,.54,0,.79-.1a6.4,6.4,0,0,0,1.34-.33,2.69,2.69,0,0,0,.51-.22,2,2,0,0,0,.37-.23l.31-.25s-.05.13-.16.38a1.19,1.19,0,0,1-.28.39,1.79,1.79,0,0,1-.47.43,2.61,2.61,0,0,1-.65.39,4.4,4.4,0,0,1-.77.3,8.34,8.34,0,0,1-1.74.31,11.41,11.41,0,0,1-3.23-.27A7.4,7.4,0,0,1,120.57,136.33Z"/><polygon class="cls-9" points="96.5 167.44 108.78 182.88 102.4 189.83 89.4 172 96.5 167.44"/><polygon class="cls-9" points="121.07 167.44 108.53 182.88 114.91 189.83 127.91 172 121.07 167.44"/><path class="cls-3" d="M49.64,200.1a108.86,108.86,0,0,0,12.78,7.11A133.68,133.68,0,0,0,58,186a19,19,0,0,0-4.16,3.87C52.05,192.22,50.69,195.8,49.64,200.1Z"/><path class="cls-3" d="M154,207.74a110.6,110.6,0,0,0,13.89-7.64c-1.05-4.3-2.41-7.88-4.19-10.27a20.3,20.3,0,0,0-5-4.46A132.54,132.54,0,0,0,154,207.74Z"/><path class="cls-3" d="M105.21,217.51c1.19,0,2.38.06,3.58.06,1,0,2,0,3,0l-1.56-29.58h-3.44Z"/></g></g></svg>