<svg xmlns="http://www.w3.org/2000/svg" width="55.397" height="28.694" viewBox="0 0 55.397 28.694"><defs><style>.a{fill:#ff4942;}.a,.b,.c,.d{fill-rule:evenodd;}.b{fill:#a4cd3c;}.c{fill:#ffc916;}.d{fill:#3f3e40;}</style></defs><g transform="translate(-300.143 -118.459)"><path class="a" d="M310.794,138.249a27.627,27.627,0,0,0-10.651,21.831h12.032a15.663,15.663,0,0,1,7.24-13.209Z" transform="translate(0 -13.922)"/><path class="b" d="M441.227,160.08a27.654,27.654,0,0,0-10.652-21.831l-8.63,8.621a15.642,15.642,0,0,1,7.241,13.209Z" transform="translate(-85.687 -13.922)"/><path class="c" d="M371.471,123.6a27.742,27.742,0,0,0-32.186,0l8.723,8.732a15.7,15.7,0,0,1,14.731,0Z" transform="translate(-27.536)"/><path class="d" d="M392.748,194.4a2.013,2.013,0,0,0,2.791.556l8.954-8.065-11.2,4.719h0a2.014,2.014,0,0,0-.547,2.79Z" transform="translate(-64.907 -48.144)"/></g></svg>