<svg xmlns="http://www.w3.org/2000/svg" xmlns:xlink="http://www.w3.org/1999/xlink" width="238.757" height="195.621" viewBox="0 0 238.757 195.621"><defs><style>.a{fill:#fae9c9;}.a,.g,.h,.s{isolation:isolate;}.b,.s{fill:#fd7b28;}.c{fill:#f0a924;}.d{fill:#e69600;}.e{fill:#473f47;}.f{fill:#fff;}.g{fill:#f8e0b5;}.h{fill:#f5d394;}.i{fill:url(#a);}.j{fill:#ffbbab;}.k{fill:#f4dbbd;}.l{fill:#e0be99;}.m{fill:url(#b);}.n{fill:url(#c);}.o{fill:url(#d);}.p{fill:url(#e);}.q{fill:#e4a423;}.r{fill:#68e1fd;}.s{opacity:0.18;}.t{fill:url(#f);}.u{fill:url(#g);}</style><linearGradient id="a" x1="1.991" y1="36.24" x2="6.458" y2="34.454" gradientUnits="objectBoundingBox"><stop offset="0.01"/><stop offset="0.08" stop-opacity="0.69"/><stop offset="0.21" stop-opacity="0.322"/><stop offset="1" stop-opacity="0"/></linearGradient><linearGradient id="b" x1="-166.801" y1="75.548" x2="-164.729" y2="74.426" xlink:href="#a"/><linearGradient id="c" x1="-162.083" y1="86.004" x2="-160.079" y2="85.163" xlink:href="#a"/><linearGradient id="d" x1="-160.06" y1="80.768" x2="-157.296" y2="79.431" xlink:href="#a"/><linearGradient id="e" x1="-131.439" y1="86.004" x2="-129.419" y2="85.163" xlink:href="#a"/><linearGradient id="f" x1="8.513" y1="78.024" x2="12.583" y2="77.771" xlink:href="#a"/><linearGradient id="g" x1="25.217" y1="101.445" x2="12.83" y2="100.223" xlink:href="#a"/></defs><g transform="translate(-725.951 228.94)"><path class="a" d="M727.223-87.593c1.276,8.027,9.242,45.241,38.309,53.147,21.952,6.02,83.672-14.533,118.819-4.2,70.72,20.8,83.672-35.026,79.719-50.106-2.736-10.52-6.142-21.04-6.263-32.046-.122-11.493,3.952-22.742,4.378-34.357,1.094-29.249-19.459-58.01-47.491-66.4-12.041-3.588-21.83-7.236-34.357-7.359-25.418-.242-85.8,0-115.534,43.236-5.291,7.722-13.014,13.5-18.973,20.8-7.905,9.729-13.2,21.466-16.357,33.627A106.862,106.862,0,0,0,727.223-87.593Z"/><path class="b" d="M865.841-91.986H819.506l8.209-23.107H858.97Z" transform="translate(11.455 13.94)"/><path class="c" d="M865.841-91.986H819.506l8.209-23.107H858.97Z" transform="translate(11.455 13.94)"/><path class="d" d="M789.318-189.854H909.353a8.305,8.305,0,0,1,8.331,8.331v75.949a8.3,8.3,0,0,1-8.331,8.331H789.318a8.3,8.3,0,0,1-8.331-8.331v-75.949A8.344,8.344,0,0,1,789.318-189.854Z" transform="translate(6.739 4.786)"/><path class="e" d="M917.677-181.577v66.645H781.042v-66.645a8.343,8.343,0,0,1,8.33-8.331H909.407A8.371,8.371,0,0,1,917.677-181.577Z" transform="translate(6.746 4.779)"/><path class="f" d="M915.445-180.154v62.814H782.884v-62.814a7.98,7.98,0,0,1,8.087-7.966H907.418A8.005,8.005,0,0,1,915.445-180.154Z" transform="translate(6.971 4.998)"/><path class="g" d="M915.445-180.154v62.814H782.884v-62.814a7.98,7.98,0,0,1,8.087-7.966H907.418A8.005,8.005,0,0,1,915.445-180.154Z" transform="translate(6.971 4.998)"/><rect class="h" width="53.45" height="37.762" transform="translate(797.821 -199.844)"/><path class="e" d="M885.484-182.365c-.061-1.156,0-2.311-.121-3.405a11.66,11.66,0,0,0-4.865-8.21,13.666,13.666,0,0,0-9.3-2.31c-5.351.607-9.79,4.256-12.344,8.877-2.918,5.229-.182,9.546,2.189,14.29,1.763,3.527.73,7.966-1.58,11.249-1.824,2.555-4.439,4.987-4.2,8.088.121,1.885,1.338,3.527,2.493,4.986a5.99,5.99,0,0,0,2.858,2.372,4.934,4.934,0,0,0,1.886,0,33.374,33.374,0,0,0,4.134-.852,10.242,10.242,0,0,1,4.014-.607c2.311.3,3.952,2.189,5.29,4.073s2.615,3.953,4.743,4.925a9.889,9.889,0,0,0,5.169.487c5.107-.425,10.459-1.582,13.925-5.29a23.58,23.58,0,0,0,2.128-2.737,5.414,5.414,0,0,0,.911-1.642c.608-1.763-.365-3.648-1.459-5.229s-2.432-3.041-2.614-4.925c-.122-1.459.425-2.858.607-4.318a10.859,10.859,0,0,0-2.432-7.783,24.259,24.259,0,0,0-6.324-5.351c-1.824-1.156-3.77-2.311-4.621-4.256A6.431,6.431,0,0,1,885.484-182.365Z" transform="translate(15.832 3.987)"/><path class="i" d="M881.009-178.452a17.924,17.924,0,0,0,1.277,3.588,9.525,9.525,0,0,0,3.709,3.04,7.093,7.093,0,0,1,2.068,1.46,4.317,4.317,0,0,1,.852,1.763,9.51,9.51,0,0,1,.182,2.614,5.57,5.57,0,0,0-.121,2.25,5.992,5.992,0,0,0,1.642,2.31,8.5,8.5,0,0,1,2.554,4.683,4.574,4.574,0,0,1-2.068,4.621,6.476,6.476,0,0,1-1.824.608,27.016,27.016,0,0,1-3.1.365,6.679,6.679,0,0,1-2.19-.183,9.494,9.494,0,0,1-2.431-1.338l-9.669-6.87a8.6,8.6,0,0,1-2.858-2.676A8.409,8.409,0,0,1,868-165.378c-.548-2.676-.913-5.534.121-8.027a14.806,14.806,0,0,1,3.952-4.986l3.953-3.71c1.155-1.094,2.006-1.582,3.04-.244A17.874,17.874,0,0,1,881.009-178.452Z" transform="translate(17.327 5.606)"/><path class="j" d="M886.307-146.128c3.224,3.587,4.56,8.027,6.993,12.161a3.724,3.724,0,0,0,1.277,1.46,3.334,3.334,0,0,0,2.918-.3c7.236-3.892,7.905-14.959,15.021-19.033,1.641-.973,3.527-1.459,5.168-2.432.608-.365,1.277-1.034,1.034-1.7a1.466,1.466,0,0,0-1.094-.79,13.568,13.568,0,0,0-5.838-.73c-.911.061-2.128,0-2.189-.913v-.79c-.182-.669-1.276-.425-1.52.244a5.559,5.559,0,0,0-.061,2.006,6.433,6.433,0,0,1-1.156,2.919,67.847,67.847,0,0,1-5.047,6.81c-5.108,6.081-6.446-3.587-10.459-5.655a2.731,2.731,0,0,0-1.217-.244c-3.587-.242-7.235-.3-10.824-.242C880.47-152.391,885.152-147.4,886.307-146.128Z" transform="translate(18.779 8.491)"/><path class="d" d="M879.161-167.588s10.52,4.743,11.128,5.959,0,36.606,0,36.606H853.256l2.128-37.275,10.824-4.438Z" transform="translate(15.588 7.512)"/><path class="c" d="M886.249-162.279l8.817,11.249c-1.763,5.231-8.817,11.919-8.817,11.919Z" transform="translate(19.628 8.162)"/><path class="k" d="M877.437-171.988c-.365,1.885.182,3.344.3,5.107.121,2.615-2.615,6.628-3.71,9a3.8,3.8,0,0,1-1.52,1.946,4.1,4.1,0,0,1-1.7.182,5.945,5.945,0,0,1-2.493-.547,4.831,4.831,0,0,1-1.763-2.98c-.548-1.824-2.007-4.743-1.642-6.567.121-.608.669-1.216.79-1.885a11.956,11.956,0,0,0,.121-2.554C865.761-174.846,877.437-171.988,877.437-171.988Z" transform="translate(17.008 6.865)"/><path class="l" d="M877.338-172.084s-1.459,7.965-6.2,7.479a6.026,6.026,0,0,1-5.473-4.621Z" transform="translate(17.107 6.962)"/><path class="k" d="M878.194-171.391a12.378,12.378,0,0,1-1.459,3.587,7.083,7.083,0,0,1-9.243,1.824,9.568,9.568,0,0,1-3.466-4.439,21.34,21.34,0,0,1-1.641-11.979,8.921,8.921,0,0,1,1.763-4.379c1.7-2.006,4.682-2.493,7.3-2.371a11.348,11.348,0,0,1,6.689,2.249,7.23,7.23,0,0,1,2.249,6.993C879.653-177.047,878.984-174.188,878.194-171.391Z" transform="translate(16.676 4.87)"/><path class="j" d="M827.9-163.433a2.9,2.9,0,0,0-1.4-.79,14.961,14.961,0,0,0-1.642-.122c-1.094-.121-2.31-.73-3.283-.242a2.322,2.322,0,0,0-1.094,1.945,4.022,4.022,0,0,0,.669,2.19c1.7,3.223,4.134,4.256,7.053,5.959,1.52.911,2.614,3.04,3.648,4.5l3.831,5.29a29.354,29.354,0,0,0,5.229,6.02,3.177,3.177,0,0,0,1.156.669,3.367,3.367,0,0,0,2.31-.244c3.041-1.155,5.777-3.4,8.391-5.351,1.217-.913,2.494-1.824,3.71-2.737a5.556,5.556,0,0,0,1.824-1.52,2.763,2.763,0,0,0,.3-1.217c.487-3.587-.182-7.236-.061-10.884-4.014,4.561-8.635,9.425-13.986,12.344a.977.977,0,0,1-.548.183.974.974,0,0,1-.547-.183,36.308,36.308,0,0,1-11.493-9.546,36.386,36.386,0,0,1-3.041-5.108A8.388,8.388,0,0,0,827.9-163.433Z" transform="translate(11.575 7.857)"/><path class="k" d="M878.506-179.978a1.378,1.378,0,0,1,1.52.183,2.127,2.127,0,0,1,.244.547,4.807,4.807,0,0,1-.608,3.162,2.843,2.843,0,0,1-.547.73,2.948,2.948,0,0,1-1.581.427h-.365a.883.883,0,0,1-.244-.183,2.1,2.1,0,0,1-.425-1.58A3.972,3.972,0,0,1,878.506-179.978Z" transform="translate(18.432 5.977)"/><path class="k" d="M862.2-175.217a1.279,1.279,0,0,0,1.521-.183,2.16,2.16,0,0,0,.242-.547,4.81,4.81,0,0,0-.607-3.162,2.876,2.876,0,0,0-.548-.731,2.953,2.953,0,0,0-1.58-.425.771.771,0,0,0-.365.061.849.849,0,0,0-.244.183,2.1,2.1,0,0,0-.425,1.58A3.951,3.951,0,0,0,862.2-175.217Z" transform="translate(16.435 5.96)"/><path class="c" d="M856.107-162.875l-8.756,11.007c1.763,5.229,7.662,11.918,7.662,11.918Z" transform="translate(14.865 8.089)"/><path class="l" d="M879.358-177.4a2.936,2.936,0,0,1-.73.973.919.919,0,0,1-1.034.061c-.062-.061-.122-.121-.122-.182a.456.456,0,0,1,.061-.3l.062-.183c0-.061.061-.121.061-.182.121-.183.425-.122.608-.244a1.04,1.04,0,0,0,.365-.608.481.481,0,0,1,.486-.3.55.55,0,0,1,.365.365A.751.751,0,0,1,879.358-177.4Z" transform="translate(18.553 6.192)"/><path class="l" d="M860.908-177.775a2.291,2.291,0,0,0,.73.973.923.923,0,0,0,1.034.061c.061-.061.121-.121.121-.183a.553.553,0,0,0-.061-.3l-.061-.182c0-.061-.061-.121-.061-.183-.122-.182-.425-.182-.608-.242s-.3-.365-.365-.608a.481.481,0,0,0-.486-.3c-.183.061-.365.183-.365.365A1.807,1.807,0,0,0,860.908-177.775Z" transform="translate(16.51 6.146)"/><path class="m" d="M876.912-167.588l2.493,1.155L878.188-155l-6.567,2.493S874.358-160.9,876.912-167.588Z" transform="translate(17.837 7.512)"/><path class="n" d="M876.352-155.669l.851,4.378-7.966,8.817,2.676-11.493Z" transform="translate(17.545 8.972)"/><path class="o" d="M865.112-166.775l-2.493,1.155-1.4,10.459,6.507,2.493C867.787-152.607,865.233-163.188,865.112-166.775Z" transform="translate(16.563 7.612)"/><path class="p" d="M863.209-155.669l-.851,4.378,7.905,8.817-2.615-11.493Z" transform="translate(16.702 8.972)"/><path class="e" d="M868.763-186.723c.3,1.824.608,3.831,2.007,5.107a6.5,6.5,0,0,0,2.735,1.4,28.226,28.226,0,0,0,7.055,1.277,10.8,10.8,0,0,0-8.21-12.891,9.09,9.09,0,0,0-2.249-.244C865.905-192.2,868.276-189.459,868.763-186.723Z" transform="translate(17.351 4.514)"/><rect class="f" width="132.562" height="7.236" transform="translate(789.794 -119.577)"/><path class="d" d="M881.9-92.279a7.009,7.009,0,0,0,0,9.911,6.9,6.9,0,0,0,3.162,1.824v1.582H800.538a8.359,8.359,0,0,1-7.965-5.777,7.95,7.95,0,0,1-.427-2.676,8.409,8.409,0,0,1,8.391-8.391h84.524v1.582A7.7,7.7,0,0,0,881.9-92.279Z" transform="translate(8.105 16.302)"/><path class="c" d="M885.016-81.46v1.582H800.492a8.359,8.359,0,0,1-7.965-5.777c3.223.548,23.532,3.831,34.843-2.675l53.024,2.8A6.868,6.868,0,0,0,885.016-81.46Z" transform="translate(8.152 17.217)"/><path class="f" d="M878.073-92.438a7.009,7.009,0,0,0,0,9.911,6.9,6.9,0,0,0,3.162,1.824v.244H830.643a7.01,7.01,0,0,1-7.236-6.811,7.009,7.009,0,0,1,6.811-7.235h51.017v.242A6.4,6.4,0,0,0,878.073-92.438Z" transform="translate(11.933 16.461)"/><path class="d" d="M927.732-76.677a7.009,7.009,0,0,0,0,9.911,6.882,6.882,0,0,0,3.162,1.825v1.58H846.37a8.418,8.418,0,0,1-7.966-5.777,7.947,7.947,0,0,1-.425-2.675A8.409,8.409,0,0,1,846.37-80.2h84.523v1.58A7.688,7.688,0,0,0,927.732-76.677Z" transform="translate(13.717 18.212)"/><path class="c" d="M930.848-65.856v1.58H846.324a8.418,8.418,0,0,1-7.966-5.777c3.224.548,23.533,3.831,34.843-2.675l53.025,2.8A6.87,6.87,0,0,0,930.848-65.856Z" transform="translate(13.764 19.128)"/><path class="f" d="M923.9-76.836a7.009,7.009,0,0,0,0,9.911,6.882,6.882,0,0,0,3.162,1.825v.242H876.475a7.009,7.009,0,0,1-7.236-6.81,7.009,7.009,0,0,1,6.81-7.236h51.018v.244A6.382,6.382,0,0,0,923.9-76.836Z" transform="translate(17.544 18.371)"/><path class="f" d="M824.351-161.962,814.2-186.224l11.432,24.506Z" transform="translate(10.805 5.23)"/><path class="q" d="M903.3-120a7.452,7.452,0,0,0-2.31,1.582,3.547,3.547,0,0,0-1.034,2.493,4.233,4.233,0,0,0,1.763,2.8c.973.851,2.189,1.763,2.249,3.041.73-.548,1.338-1.156,2.068-1.642a25.646,25.646,0,0,1,4.135-1.946,6.849,6.849,0,0,0,3.466-2.918,8.509,8.509,0,0,0,.608-2.737,12.759,12.759,0,0,0,.061-3.041,4.434,4.434,0,0,0-1.277-2.675,7.723,7.723,0,0,0-3.77-1.582,3.961,3.961,0,0,0-3.527,2.554c-.3.791-.182,1.642-.425,2.372A3.459,3.459,0,0,1,903.3-120Z" transform="translate(21.306 12.527)"/><path class="j" d="M875.011-79.394a3.08,3.08,0,0,0-.79.121.837.837,0,0,0-.487.608.92.92,0,0,0,.427.669l.73.365a2.163,2.163,0,0,0,.607.425,1.522,1.522,0,0,0,1.156-.061,14.483,14.483,0,0,1,5.351-.3h.548a1.533,1.533,0,0,0,1.094-1.094,7.188,7.188,0,0,0,.3-3.406c0-.121-.062-.242-.062-.365-.061-.061-.182-.182-.242-.182-1.7-.852-2.615.851-3.891,1.642A10.009,10.009,0,0,1,875.011-79.394Z" transform="translate(18.095 17.888)"/><path class="e" d="M915.2-101.763s.425,6.324-5.229,8.269c-5.656,1.886-15.811.365-15.811.365s-4.073,7.845-8.27,11.553L883.215-78.9a2.7,2.7,0,0,1-2.98-1.277s7.905-15.749,9-16.965a9.519,9.519,0,0,1,4.621-3.041l11.311-3.587Z" transform="translate(18.891 15.327)"/><path class="e" d="M877.689-120.457l6.081,12.891,11.189-.061-.061-.973-10.337-.122-5.716-12.222Z" transform="translate(18.58 13.224)"/><path class="j" d="M904.215-127.611c-.182.365-.608.547-.79.913-.121.365.182.972.3,1.4.244.668.182,1.4.365,2.066a1.258,1.258,0,0,0,.244.366.861.861,0,0,0,.365.121,3.946,3.946,0,0,0,1.459.061.552.552,0,0,1,.3.061.462.462,0,0,1,.121.244,7.906,7.906,0,0,1-.061,3.77c-.121.425-.244.911.061,1.216a.523.523,0,0,0,.365.183c.913.242,1.824-.487,2.493-1.217a13.126,13.126,0,0,0,1.459-2.128,2.147,2.147,0,0,0,.244-.669,2.365,2.365,0,0,0-.121-.911,18.316,18.316,0,0,1-.487-3.1,12.764,12.764,0,0,0-.486-4.014,1.914,1.914,0,0,0-.79-1.034,2.412,2.412,0,0,0-1.459-.242,3.93,3.93,0,0,0-2.737.911C904.884-129.435,904.519-128.037,904.215-127.611Z" transform="translate(21.728 12.047)"/><path class="f" d="M911.164-122.133s-4.074,2.066-5.29,3.709-3.222,2.858-2.432,5.959-.183,7.845-.183,7.845,1.763,5.534,6.081,6.932,3.1.973,3.1.973,2.31-10.277,3.223-13.074C916.577-112.647,915.056-122.62,911.164-122.133Z" transform="translate(21.711 13.076)"/><path class="d" d="M905.32-129.6a2.928,2.928,0,0,0,.913,1.763c.486.425,1.094.73,1.58,1.155a1.915,1.915,0,0,1,.79,1.7.9.9,0,0,1,1.1.365.647.647,0,0,1-.122.73,1,1,0,0,1-.73.3,2.619,2.619,0,0,1,1.277,1.034c.365.486.486,1.094.851,1.642a4.436,4.436,0,0,0,1.459,1.337,2.11,2.11,0,0,1,.608.669,9.8,9.8,0,0,0,.425,1.217c.365.486.731.973,1.156,1.459a5.442,5.442,0,0,1,.911,2.737v-.852c.122-.182.183-.365.3-.547a3.159,3.159,0,0,0,.365-.973,10.215,10.215,0,0,0,.061-2.372c0-1.7,1.582-4.925.3-6.384a11.267,11.267,0,0,0-1.641-1.155c-1.156-.913-1.277-2.615-2.007-3.893a4.73,4.73,0,0,0-2.98-2.31C908.177-132.521,905.076-131.974,905.32-129.6Z" transform="translate(21.961 11.849)"/><path class="d" d="M909.229-117.255s-2.555,6.932-3.041,7.418,4.925,3.587,4.925,3.587,3.527-6.689,3.345-9.607C914.336-118.776,911.235-119.991,909.229-117.255Z" transform="translate(22.066 13.488)"/><path class="j" d="M912.887-108.186A2.559,2.559,0,0,1,909.968-106l-12.161-.183c-.852-.425-1.946-.486-2.555-1.216-.3-.3-.425-.79-.73-1.094a2.331,2.331,0,0,0-1.459-.791,8.01,8.01,0,0,0-1.7-.061.66.66,0,0,1,0-.911,1.673,1.673,0,0,1,.913-.487,5.494,5.494,0,0,1,4.134.608,4.24,4.24,0,0,0,1.156.608,4.615,4.615,0,0,0,.911.061c3.528-.183,6.932-.913,10.459-1.094a6.658,6.658,0,0,1,2.432.242A3.031,3.031,0,0,1,912.887-108.186Z" transform="translate(20.231 14.453)"/><rect class="f" width="1.703" height="31.499" transform="translate(892.438 -92.943)"/><rect class="f" width="1.703" height="31.499" transform="translate(911.836 -92.943)"/><rect class="e" width="24.08" height="2.736" transform="translate(890.37 -94.342)"/><path class="e" d="M897.915-94.94H913.6a.675.675,0,0,1,.669.669v2.737a.675.675,0,0,1-.669.669H897.915a.675.675,0,0,1-.669-.669v-2.737A.675.675,0,0,1,897.915-94.94Z" transform="translate(20.974 16.408)"/><path class="e" d="M900.7-91.31h-2.858l-1.459,13.256H899.3Z" transform="translate(20.868 16.852)"/><path class="e" d="M913.806-78.054,911.921-91.31H909l2.432,13.256Z" transform="translate(22.414 16.852)"/><path class="e" d="M918-114.822h-2.615l-5.838,22.377h2.615Z" transform="translate(22.48 13.973)"/><path class="e" d="M798.211-90.866H782.523a.675.675,0,0,1-.669-.669v-2.737a.675.675,0,0,1,.669-.669h15.688a.675.675,0,0,1,.669.669v2.737A.675.675,0,0,1,798.211-90.866Z" transform="translate(6.845 16.408)"/><path class="e" d="M794.043-91.31H796.9l1.459,13.256h-2.919Z" transform="translate(8.338 16.852)"/><path class="e" d="M780.987-78.054l1.885-13.256h2.919l-2.432,13.256Z" transform="translate(6.739 16.852)"/><path class="e" d="M777.2-114.822h2.615l5.838,22.377h-2.615Z" transform="translate(6.275 13.973)"/><path class="d" d="M856.221-76.677a7.009,7.009,0,0,0,0,9.911,6.893,6.893,0,0,0,3.162,1.825v1.58H774.86a8.416,8.416,0,0,1-7.966-5.777,7.949,7.949,0,0,1-.425-2.675A8.408,8.408,0,0,1,774.86-80.2h84.522v1.58A8.4,8.4,0,0,0,856.221-76.677Z" transform="translate(4.961 18.212)"/><path class="c" d="M859.336-65.856v1.58H774.814a8.416,8.416,0,0,1-7.966-5.777c3.223.548,23.532,3.831,34.843-2.675l53.024,2.8A6.872,6.872,0,0,0,859.336-65.856Z" transform="translate(5.008 19.128)"/><path class="f" d="M852.394-76.836a7.009,7.009,0,0,0,0,9.911,6.893,6.893,0,0,0,3.162,1.825v.242H804.964a7.01,7.01,0,0,1-7.236-6.81,7.01,7.01,0,0,1,6.811-7.236h51.017v.244A6.392,6.392,0,0,0,852.394-76.836Z" transform="translate(8.788 18.371)"/><path class="r" d="M789.98-130.37l5.655,2.311-5.655,2.25Z" transform="translate(7.84 12.07)"/><rect class="s" width="111.948" height="1.52" transform="translate(805.726 -116.719)"/><path class="e" d="M783.589-101.594s-.425,6.324,5.229,8.27c4.073,1.4,8.7,1.094,12.891.669.669-.061,1.885-.427,2.493.061.851.608.425,2.311.365,3.223-.061,2.007-.121,3.952-.183,5.959,0,.913,0,1.886-.061,2.8s-.3,2.007-.365,2.98a.369.369,0,0,0,.061.244.369.369,0,0,0,.244.061l7.418-.3a.366.366,0,0,0,.244-.061.3.3,0,0,0-.061-.427,5.731,5.731,0,0,0-3.041-2.006,1.9,1.9,0,0,1-.79-.365c-.79-.608-.121-1.886.061-2.676l.79-3.223,1.521-6.263c.425-1.886.547-3.284-.852-4.56a12.321,12.321,0,0,0-4.56-2.859l-11.31-3.587Z" transform="translate(7.057 15.34)"/><path class="e" d="M825.29-120.457l-6.081,12.891-11.189-.061.061-.973,10.337-.122,5.716-12.222Z" transform="translate(10.049 13.224)"/><path class="j" d="M797.725-127.611c.244.365.669.547.79.913s-.182.972-.3,1.4c-.242.668-.182,1.4-.365,2.066a1.278,1.278,0,0,1-.242.366.87.87,0,0,1-.366.121,3.946,3.946,0,0,1-1.459.061.552.552,0,0,0-.3.061.462.462,0,0,0-.121.244,7.906,7.906,0,0,0,.061,3.77c.122.425.244.911-.061,1.216a.523.523,0,0,1-.365.183c-.913.242-1.824-.487-2.493-1.217a13.13,13.13,0,0,1-1.459-2.128,2.146,2.146,0,0,1-.244-.669,2.365,2.365,0,0,1,.121-.911,18.213,18.213,0,0,0,.487-3.1,12.764,12.764,0,0,1,.486-4.014,1.767,1.767,0,0,1,.852-1.034,2.409,2.409,0,0,1,1.459-.242,3.93,3.93,0,0,1,2.737.911A18.847,18.847,0,0,0,797.725-127.611Z" transform="translate(7.94 12.047)"/><path class="f" d="M791.765-122.132h.061c1.763.425,4.379,2.066,4.986,3.892a15.656,15.656,0,0,1,.669,7.662c-.365,1.58-1.216,3.04-1.7,4.621-.427,1.277-.548,2.676-1.1,3.892a7.264,7.264,0,0,1-7.783,4.135,4.7,4.7,0,0,1-2.311-1.034,5.418,5.418,0,0,1-1.7-4.5,16.5,16.5,0,0,1,1.276-4.8l2.8-7.3C787.63-117.146,789.272-122.619,791.765-122.132Z" transform="translate(6.968 13.075)"/><path class="t" d="M789.643-105.272a2.047,2.047,0,0,1,.3.851,2.5,2.5,0,0,1-.061.669,11.824,11.824,0,0,0-.366,3.588,1.029,1.029,0,0,0,.183.607.975.975,0,0,0,.548.183,4.015,4.015,0,0,0,2.066-.183,3.59,3.59,0,0,0,1.521-1.885,33.723,33.723,0,0,0,2.007-6.811,2.519,2.519,0,0,0,.121-1.155,2.215,2.215,0,0,0-1.034-1.4c-.486-.3-1.034-.608-1.52-.913-.913-.73-1.582-2.006-2.859-2.128a1.844,1.844,0,0,0-1.945,1.4C787.757-110.38,788.669-107.279,789.643-105.272Z" transform="translate(7.631 14.092)"/><path class="f" d="M792.773-117.255s2.554,6.932,3.039,7.418-4.925,3.587-4.925,3.587-3.527-6.689-3.344-9.607S790.766-119.991,792.773-117.255Z" transform="translate(7.541 13.488)"/><path class="j" d="M790.522-108.186A2.559,2.559,0,0,0,793.44-106l12.162-.183c.852-.425,1.946-.486,2.555-1.216.3-.3.425-.79.73-1.094a2.328,2.328,0,0,1,1.459-.791,8.01,8.01,0,0,1,1.7-.061.66.66,0,0,0,0-.911,1.734,1.734,0,0,0-.852-.487,5.494,5.494,0,0,0-4.134.608,4.209,4.209,0,0,1-1.156.608,4.61,4.61,0,0,1-.911.061c-3.527-.183-6.932-.913-10.459-1.094a6.658,6.658,0,0,0-2.432.242A3.159,3.159,0,0,0,790.522-108.186Z" transform="translate(7.906 14.453)"/><rect class="f" width="1.703" height="31.499" transform="translate(814.482 -92.943)"/><rect class="f" width="1.703" height="31.499" transform="translate(833.94 -92.943)"/><rect class="e" width="24.08" height="2.736" transform="translate(812.475 -94.342)"/><path class="e" d="M797.269-132.686a3.642,3.642,0,0,0-2.675-1.582,2.616,2.616,0,0,0-2.007.548c-.244.244-.365.486-.608.73-.669.608-1.641.548-2.432.913a3.2,3.2,0,0,0-1.52,1.7,7.385,7.385,0,0,0-.425,2.31,6.216,6.216,0,0,0,.121,2.128,3.645,3.645,0,0,0,2.128,2.311,1.449,1.449,0,0,1,.669.365,4.428,4.428,0,0,0,.3.548c.365.425,1.034.242,1.459-.062a5.289,5.289,0,0,1,1.277-1.034l-1.217-1.641a.783.783,0,0,1-.242-.608.6.6,0,0,1,.607-.425,1,1,0,0,1,.73.3c.183.121.427.3.608.121a.224.224,0,0,0,.061-.183c.122-.79-.607-1.641-.365-2.431,0-.062.062-.122.122-.183a.456.456,0,0,1,.3-.061,11.743,11.743,0,0,0,1.459.061C797.147-129.1,798.06-131.348,797.269-132.686Z" transform="translate(7.544 11.589)"/><path class="u" d="M794.479-117.247c0,.3,0,.669-.3.73a.775.775,0,0,1-.365-.061,5.51,5.51,0,0,1-1.338-.669,39.66,39.66,0,0,0,1.034,7.48.53.53,0,0,0,.183.365.915.915,0,0,0,.669.242,4.278,4.278,0,0,0,1.763-.242,10.513,10.513,0,0,1-.73-8.453,1.872,1.872,0,0,0,.121-1.276,2.635,2.635,0,0,0-1.58-1.217C793.749-119.375,794.418-118.158,794.479-117.247Z" transform="translate(8.145 13.297)"/></g></svg>