<svg xmlns="http://www.w3.org/2000/svg" xmlns:xlink="http://www.w3.org/1999/xlink" width="238.758" height="203.222" viewBox="0 0 238.758 203.222"><defs><style>.a{fill:#fae9c9;}.a,.b{isolation:isolate;}.b,.l{fill:#fd7b28;}.b{opacity:0.18;}.c{fill:#fff;}.d{fill:url(#a);}.e{fill:#e69600;}.f{fill:#fdbaac;}.g{fill:#473f47;}.h{fill:url(#b);}.i{fill:#f0a924;}.j{fill:#dea095;}.k,.n{fill:none;}.k{stroke:#000;stroke-miterlimit:10;stroke-width:0.34px;}.m{fill:#6b606b;}.o{fill:url(#c);}</style><linearGradient id="a" x1="2.825" y1="7.373" x2="2.722" y2="9.522" gradientUnits="objectBoundingBox"><stop offset="0.01"/><stop offset="0.08" stop-opacity="0.69"/><stop offset="0.21" stop-opacity="0.322"/><stop offset="1" stop-opacity="0"/></linearGradient><linearGradient id="b" x1="3.07" y1="15.395" x2="3" y2="18.011" xlink:href="#a"/><linearGradient id="c" x1="0.51" y1="309.465" x2="0.46" y2="291.048" xlink:href="#a"/></defs><g transform="translate(-961.844 230.693)"><path class="a" d="M1161.347-208.421a43.356,43.356,0,0,0-8.729-10.912c-8.22-7.274-19.357-10.577-30.32-11.225s-21.9,1.135-32.736,2.911c-6.052,1.04-12.213,2.044-17.655,4.917-8.795,4.67-14.214,13.413-18.375,22.136s-6.795,18.4-16.534,22.551c-6.132,2.626-13.393,3.485-19.78,5.7-12.367,4.306-24.376,10.184-34.466,18.659-9.792,8.22-15.363,25.191-18.448,37.274s-3.571,25.155.292,37.1c6.219,19.211,23.133,33.528,41.864,41.063s39.283,9.152,59.447,9.8c17.459.56,35.688,1.68,53.1.341,6.852-.523,13.182-1.142,20.187-1.222a86.666,86.666,0,0,0,24.573-3.5c12.752-3.921,24.581-11.924,31.048-23.562,8.729-15.785,6.467-35.5.538-52.551s-15.16-32.9-20.049-50.281c-2.946-10.49-4.263-21.379-7.1-31.906A72.526,72.526,0,0,0,1161.347-208.421Z"/><path class="b" d="M1032.857-67.367c-2.4,1.04-4.932,3.418-3.971,5.856,10.533,3.834,22.019,3.834,33.229,3.783,27.169-.124,54.34-.241,81.473-.488,2.263,0,4.627-.066,6.613-1.148s3.411-3.557,2.546-5.645c-.815-1.95-3.128-2.721-5.186-3.216a130.515,130.515,0,0,0-20.682-3.258c-5.659-.437-12.054-.823-15.727-5.151-1.39-1.637-2.219-3.7-3.637-5.295-8.49-9.567-28.458-5.3-35.7,2.844C1060.777-66.647,1046.606-73.339,1032.857-67.367Z" transform="translate(8.716 18.686)"/><path class="c" d="M1056.221-132.241c-1.614,4.619-3.011,9.4-3.041,14.294s1.455,9.966,4.911,13.428c5.056,5.093,12.927,5.653,20.077,5.937l9.457.378a46.481,46.481,0,0,0,11.115-.451,15.579,15.579,0,0,0,9.457-5.478,17.666,17.666,0,0,0,2.837-7.048c2.56-12.432-1.594-25.68-9.4-35.688a33.447,33.447,0,0,0-8.191-7.784c-5.252-3.339-20.884-8.344-26.021-2.75-2.334,2.539-3.812,7.682-5.288,10.8A146,146,0,0,0,1056.221-132.241Z" transform="translate(11.911 9.23)"/><path class="d" d="M1060.447-135.195a35.931,35.931,0,0,0-2.46,11.566,15.217,15.217,0,0,0,3.972,10.861c4.089,4.1,10.461,4.568,16.236,4.8l7.661.306a37.408,37.408,0,0,0,8.983-.372,12.506,12.506,0,0,0,7.624-4.43,14.113,14.113,0,0,0,2.3-5.7c2.073-10.061-1.287-20.769-7.6-28.865a26.964,26.964,0,0,0-6.626-6.3c-4.249-2.7-16.892-6.744-21.045-2.226-1.884,2.058-3.085,6.22-4.271,8.729A117.822,117.822,0,0,0,1060.447-135.195Z" transform="translate(12.538 9.535)"/><path class="e" d="M1068.666-78.624c-.728,1.266-1.535,2.48-2.227,3.753-1.055,1.979-1.781,4.314-1.083,6.439a2.044,2.044,0,0,0,.574.967,2.559,2.559,0,0,0,1.258.459,30.327,30.327,0,0,0,4.445.364c2.037,0,4.235-.241,5.747-1.609,3.034-2.756,2.829-9.544,1.091-12.875a2.305,2.305,0,0,0-2.109-1.455,15.129,15.129,0,0,0-4.176-.225c-1.563.174-1.978.553-2.524,2.044A14.891,14.891,0,0,1,1068.666-78.624Z" transform="translate(13.463 19.279)"/><path class="f" d="M1072-77.664a7.112,7.112,0,0,0,1.105.11,4.2,4.2,0,0,0,3.23-.764,4.149,4.149,0,0,0,.822-3.092v-4.263c0-2.815-2.633-2.429-4.7-2.08a2.982,2.982,0,0,0-1.338.5,3.233,3.233,0,0,0-.837,2.539l-.146,4.488a3.063,3.063,0,0,0,.233,1.579A2.183,2.183,0,0,0,1072-77.664Z" transform="translate(14.12 18.609)"/><path class="e" d="M1093.08-78.626c.728,1.266,1.535,2.48,2.183,3.753,1.061,1.979,1.789,4.314,1.084,6.439a2.053,2.053,0,0,1-.575.967,2.5,2.5,0,0,1-1.258.459,30.391,30.391,0,0,1-4.438.364c-2.037,0-4.24-.241-5.746-1.609-3.041-2.756-2.837-9.544-1.1-12.875a2.854,2.854,0,0,1,.6-.843,2.95,2.95,0,0,1,1.514-.6,15.223,15.223,0,0,1,4.182-.226c1.557.175,1.971.554,2.517,2.045A14.134,14.134,0,0,0,1093.08-78.626Z" transform="translate(15.666 19.281)"/><path class="f" d="M1088.861-77.664a7.11,7.11,0,0,1-1.106.11,4.193,4.193,0,0,1-3.229-.764,4.148,4.148,0,0,1-.83-3.092v-4.263c0-2.815,2.641-2.429,4.7-2.08a2.985,2.985,0,0,1,1.346.5,3.227,3.227,0,0,1,.829,2.539l.146,4.488a3.049,3.049,0,0,1-.225,1.579A2.187,2.187,0,0,1,1088.861-77.664Z" transform="translate(15.891 18.609)"/><path class="e" d="M1089.432-176.435s8.875,3.841,9.915,4.714c.931.778-1.593,54.056-1.789,56.661s-14.4,3.018-20.535,1.847a66.685,66.685,0,0,1-11.974-3.637s-1.942-55.032-.727-56.014,12.948-4.612,12.948-4.612Z" transform="translate(13.312 6.94)"/><path class="g" d="M1060.736-117.225c-.661,2.429-1.061,5.165.2,7.333a7.072,7.072,0,0,0,3.586,2.866,18,18,0,0,0,4.561.968,85.52,85.52,0,0,0,28.537-1.55,6.8,6.8,0,0,0,3.529-1.593,6.072,6.072,0,0,0,1.367-3.564,21.553,21.553,0,0,0-2.728-13.334,1.94,1.94,0,0,0-.727-.8,1.96,1.96,0,0,0-.961-.159l-24.217.079a42.449,42.449,0,0,1-5.266-.2c-1.36-.161-2.91-1.026-3.884.138C1062.664-124.609,1061.551-120.251,1060.736-117.225Z" transform="translate(12.815 13.44)"/><path class="h" d="M1060.736-117.225c-.661,2.429-1.061,5.165.2,7.333a7.072,7.072,0,0,0,3.586,2.866,18,18,0,0,0,4.561.968,85.52,85.52,0,0,0,28.537-1.55,6.8,6.8,0,0,0,3.529-1.593,6.072,6.072,0,0,0,1.367-3.564,21.553,21.553,0,0,0-2.728-13.334,1.94,1.94,0,0,0-.727-.8,1.96,1.96,0,0,0-.961-.159l-24.217.079a42.449,42.449,0,0,1-5.266-.2c-1.36-.161-2.91-1.026-3.884.138C1062.664-124.609,1061.551-120.251,1060.736-117.225Z" transform="translate(12.815 13.44)"/><path class="g" d="M1086.74-78.995l1.419.138c4.292.43,6.023-3.23,6.452-7.522.1-.894.313-1.8.466-2.684l2.829-16.485,1.309-7.638c.131-.771.27-1.534.393-2.306.379-2.24-.3-4.4-.728-6.648a6.216,6.216,0,0,0-1.629-3.725,6.14,6.14,0,0,0-3.848-1.048,38.737,38.737,0,0,0-10.738.51.91.91,0,0,0-.559.291.94.94,0,0,0-.095.6c.254,3.419.8,6.808.728,10.228l-.618,27.468C1081.685-83.541,1082.448-79.425,1086.74-78.995Z" transform="translate(15.669 13.517)"/><path class="g" d="M1075.875-77.921l-1.455.138c-4.284.43-6.023-3.23-6.452-7.522l-4.619-26.915c-.372-2.139-.684-4.2-.844-6.372a14.466,14.466,0,0,1,.146-4.415,4.87,4.87,0,0,1,2.575-3.412,6.487,6.487,0,0,1,2.182-.423,32.754,32.754,0,0,1,7.354.349,5.1,5.1,0,0,1,2.437.866,5.281,5.281,0,0,1,1.455,2.554c.728,2.095,1.666,4.409,1.455,6.649a33.977,33.977,0,0,0-.246,4.314l.21,9.529.356,15.588a1.679,1.679,0,0,0,0,.262C1080.9-82.489,1080.137-78.372,1075.875-77.921Z" transform="translate(13.114 13.534)"/><path class="g" d="M1156.378-133v1.571a2.291,2.291,0,0,1-2.283,2.3H1019.807a2.292,2.292,0,0,1-2.291-2.291V-133a2.292,2.292,0,0,1,2.291-2.291h134.279A2.291,2.291,0,0,1,1156.378-133Z" transform="translate(7.26 12.441)"/><path class="f" d="M1106.059-156.838s5.762,12,5.143,15.276c-.43,2.306-4.845,4.328-6.59,5.376a38.815,38.815,0,0,1-5.311,3.048c-1.811.713-3.877.436-5.718.379l-9.457-.305c-.451,0-1.055-.167-1.055-.626a.858.858,0,0,1,.458-.633,5.1,5.1,0,0,1,2.386-.887,24.347,24.347,0,0,0,6.009-1.15l10.882-7.492-2.626-4.866Z" transform="translate(15.809 9.632)"/><path class="i" d="M1065.855-173.627a5.552,5.552,0,0,0-3.638,3.9c-.728,3-2.219,5.521-3.638,8.25a39.638,39.638,0,0,0-2.182,5.128,3.211,3.211,0,0,0-.248,1.7,3.382,3.382,0,0,0,.625,1.2q2.525,3.52,5.253,6.889a19.963,19.963,0,0,0,3.135-1.811c.386-.612.233-2.081.292-2.793q.159-2.182.291-4.415Z" transform="translate(12.295 7.442)"/><path class="f" d="M1084.789-182.078a7.42,7.42,0,0,1,.139,1.048,17.911,17.911,0,0,0,.371,4.2,6.428,6.428,0,0,0,.655,1.383c1.01,1.6-.24,4.212-1.127,5.667-1.128,1.84-2.911,3.638-5.173,3.856-2.844.254-4.081-2.91-4.6-5.158a5.318,5.318,0,0,1-.08-3.507c.487-1.28,1.243-2.5,1.629-3.855a26.878,26.878,0,0,0,.553-4.736,2.9,2.9,0,0,1,.328-1.214,2.182,2.182,0,0,1,1.455-.931,6.056,6.056,0,0,1,1.739-.051,5.429,5.429,0,0,1,2.568.64A3.987,3.987,0,0,1,1084.789-182.078Z" transform="translate(14.718 5.905)"/><path class="j" d="M1076.643-180.346s1.156,7.238,4.233,5.937,3.826-5.457,3.826-5.457Z" transform="translate(14.971 6.566)"/><path class="c" d="M1085.391-176.415s-2.721,8.38-5.587,9.5c0,0-.764.5,1.491,1.594s7.668-5.87,6.387-10.5a3.549,3.549,0,0,0-2.378-2.539Z" transform="translate(15.367 6.825)"/><path class="c" d="M1075.476-177.343s-.415,6.024,2.349,9.9c0,0-.88,1.614-1.739,1.694s-3.455-4.866-2.91-8.795C1073.431-176.8,1074.989-177.911,1075.476-177.343Z" transform="translate(14.509 6.938)"/><path class="k" d="M1100.061-150.229" transform="translate(18.025 10.493)"/><path class="f" d="M1073.085-193.9s.146,11.2,1.274,14.113,3.928,5.259,6.489,5.026,6.226-2.721,7.594-6.721,1.368-13.494.822-14.738-3.484-5.055-10.264-3.819C1074.337-199.184,1072.933-195.6,1073.085-193.9Z" transform="translate(14.506 3.966)"/><path class="i" d="M1104.886-160.576c.946,1.338,1.615,2.306,1.775,2.531a3.07,3.07,0,0,1,.546,1.033,2.524,2.524,0,0,1-.574,1.935,23.8,23.8,0,0,1-3.8,3.638,30.164,30.164,0,0,0-3.92,4.765,13.8,13.8,0,0,1-2.4-2.183,4.87,4.87,0,0,1-1.891-4.5l-.131-9.384-.072-4.692c0-.807-1.041-4.459-.539-5.092C1095.066-174.012,1101.613-165.144,1104.886-160.576Z" transform="translate(17.2 7.565)"/><path class="f" d="M1071.919-190.962a.447.447,0,0,0-.255,0,.54.54,0,0,0-.189.211,2.564,2.564,0,0,0-.284,1.731,5.743,5.743,0,0,0,.553,1.4,4.055,4.055,0,0,0,1.281,1.819.593.593,0,0,0,.407.109.511.511,0,0,0,.277-.145,2.345,2.345,0,0,0,.553-1.6,3.364,3.364,0,0,0-.422-2.372A2.621,2.621,0,0,0,1071.919-190.962Z" transform="translate(14.254 5.179)"/><path class="f" d="M1088.986-191.123a.6.6,0,0,1,.254,0,.587.587,0,0,1,.19.211,2.628,2.628,0,0,1,.284,1.739,6.836,6.836,0,0,1-.553,1.4,4.043,4.043,0,0,1-1.281,1.811.612.612,0,0,1-.415.116.578.578,0,0,1-.269-.146,2.355,2.355,0,0,1-.553-1.6,3.312,3.312,0,0,1,.422-2.37A2.623,2.623,0,0,1,1088.986-191.123Z" transform="translate(16.267 5.159)"/><path class="g" d="M1071.4-194.544c-.233-1.455-.284-3.135.727-4.2.211-.226.466-.408.684-.626s.553-.661.837-1a8.892,8.892,0,0,1,6.649-2.859,21.812,21.812,0,0,1,7.274,1.4q1.963.639,3.9,1.389a3.807,3.807,0,0,1,1.361.764,2.255,2.255,0,0,1,.428,2.328c-.218.618-.669,1.142-.851,1.768a5.8,5.8,0,0,0-.13,1.506,8.826,8.826,0,0,1-1.033,3.848,3.875,3.875,0,0,1-1.666,1.775,16.357,16.357,0,0,0-.727-5.368,10.031,10.031,0,0,1-5.391,2.182,14.8,14.8,0,0,1-5.819-.661,2.588,2.588,0,0,0-1.455-.175c-.472.131-.851.728-.582,1.12a.83.83,0,0,0-1.145.255l0,.007a2.452,2.452,0,0,0-.3,1.273l-.124,2.78C1072.369-188.994,1071.809-192.005,1071.4-194.544Z" transform="translate(14.269 3.582)"/><path class="f" d="M1056.75-156.838c-1.193,2.481-2.291,5.02-3.266,7.6a34.329,34.329,0,0,0-1.732,5.514,4.915,4.915,0,0,0-.24,2.459c.415,1.127,2.124,2.008,3.084,2.59a77.572,77.572,0,0,0,9.537,4.968,16.138,16.138,0,0,0,4.015,1.309,17.759,17.759,0,0,0,3.288.095l6.315-.218c.574,0,1.324-.2,1.375-.771a1.234,1.234,0,0,0-.684-.939,13.514,13.514,0,0,0-3.638-1.607c-1.258-.341-2.815-.109-4-.53-1.338-.474-2.829-1.971-4.015-2.794L1060-143.853l2.626-4.866Z" transform="translate(11.681 9.632)"/><path class="g" d="M1099.418-134.807h-35.39l-3.106-23.846,41.006.567Z" transform="translate(12.921 9.395)"/><path class="g" d="M1029.423-135.293l-1.019,6.162-11.755,72.38a2.081,2.081,0,0,1-1.8,1.841c-.83,0-1.368-.83-1.2-1.841l11.755-72.38,1-6.162Z" transform="translate(6.752 12.441)"/><path class="g" d="M1131.227-135.293l1,6.162,11.784,72.38a2.082,2.082,0,0,0,1.8,1.841c.828,0,1.368-.83,1.2-1.841l-11.756-72.38-1-6.162Z" transform="translate(22.089 12.441)"/><rect class="l" width="35.565" height="2.597" transform="translate(1076.774 -125.419)"/><rect class="m" width="35.565" height="2.597" transform="translate(1076.774 -125.419)"/><path class="n" d="M1068.592-90.377a2.912,2.912,0,0,0-.917,3.332,3.857,3.857,0,0,0,2.066,1.607,18.86,18.86,0,0,0,9.187,1.455,1.549,1.549,0,0,0,.728-.2,1.456,1.456,0,0,0,.487-.727,7.592,7.592,0,0,0,.422-3.638,3.423,3.423,0,0,0-1.025-2.182,4.257,4.257,0,0,0-2.364-.728C1074.157-91.824,1071.116-92.544,1068.592-90.377Z" transform="translate(13.776 18.104)"/><path class="i" d="M1021.521-165.531h0a1.331,1.331,0,0,1,1.69.831l9.453,27.719a1.332,1.332,0,0,1-.83,1.69h0a1.331,1.331,0,0,1-1.69-.83l-9.453-27.72A1.332,1.332,0,0,1,1021.521-165.531Z" transform="translate(7.665 8.489)"/><path class="e" d="M1020.692-162.885h0a1.331,1.331,0,0,1,.872-1.668l27.94-8.778a1.332,1.332,0,0,1,1.67.87h0a1.331,1.331,0,0,1-.872,1.67l-27.94,8.778A1.331,1.331,0,0,1,1020.692-162.885Z" transform="translate(7.666 7.473)"/><path class="e" d="M1057.948-169.1c-2.255,3.231-4.925,5.3-6.067,4.736h0a1.011,1.011,0,0,1-.146-.095l-.153-.095c-3.331-2.334-6.408-8.511-4.074-11.85s9.195-2.575,12.527-.24l.146.109a1.011,1.011,0,0,1,.138.1h0C1061.236-175.554,1060.21-172.338,1057.948-169.1Z" transform="translate(11.065 6.786)"/><path class="l" d="M1057.411-169.332c-2.255,3.231-4.925,5.3-6.067,4.736h0l-.1-.059a.1.1,0,0,1-.044-.036c-1.01-.807,0-4.074,2.314-7.369s5.026-5.376,6.133-4.707h.051l.087.073h0C1060.7-175.784,1059.673-172.568,1057.411-169.332Z" transform="translate(11.602 7.016)"/><path class="c" d="M1057.411-169.332c-2.255,3.231-4.925,5.3-6.067,4.736h0l-.1-.059a.1.1,0,0,1-.044-.036c-1.01-.807,0-4.074,2.314-7.369s5.026-5.376,6.133-4.707h.051l.087.073h0C1060.7-175.784,1059.673-172.568,1057.411-169.332Z" transform="translate(11.602 7.016)"/><rect class="e" width="7.784" height="24.559" rx="1.557" transform="translate(1138.04 -147.213)"/><rect class="i" width="7.784" height="24.559" rx="1.557" transform="matrix(0.998, -0.069, 0.069, 0.998, 1145.609, -146.916)"/><path class="o" d="M1062.5-159.695l-1.55,1.178,41.006.567-1.411-1.382Z" transform="translate(12.925 9.259)"/><path class="c" d="M1131.2-192.881a11.509,11.509,0,0,1-3.187,7.064,12.777,12.777,0,0,0-3.411,5.951c-.159.691-.246,1.4-.371,2.182h-10.184c-.073-.517-.124-1.033-.226-1.535a11.808,11.808,0,0,0-2.99-5.819,14.481,14.481,0,0,1-3.12-4.786,12.213,12.213,0,0,1,7.357-15.628,12.22,12.22,0,0,1,2.1-.551c.327-.051.647-.087.96-.116a12.141,12.141,0,0,1,13.106,11.092,12.016,12.016,0,0,1-.012,2.155Z" transform="translate(18.928 3.199)"/><path class="m" d="M1129.208-192.886a11.466,11.466,0,0,1-3.179,7.064,12.786,12.786,0,0,0-3.42,5.951c-.161.691-.24,1.4-.371,2.182h-8.184c-.072-.517-.123-1.033-.225-1.535a11.816,11.816,0,0,0-2.99-5.819,14.486,14.486,0,0,1-3.121-4.786,12.215,12.215,0,0,1,7.357-15.628,12.276,12.276,0,0,1,2.1-.551c.328-.051.648-.087.96-.116a12.133,12.133,0,0,1,11.1,13.086c0,.053-.009.107-.014.161Z" transform="translate(18.929 3.204)"/><rect class="l" width="12.745" height="2.655" rx="1.171" transform="translate(1131.973 -174.507)"/><rect class="l" width="11.392" height="2.371" rx="1.049" transform="translate(1132.417 -172.281)"/><rect class="l" width="9.886" height="2.059" rx="0.907" transform="translate(1133.173 -170.339)"/><rect class="e" width="12.745" height="2.655" rx="1.171" transform="translate(1131.973 -174.507)"/><rect class="e" width="11.392" height="2.371" rx="1.049" transform="translate(1132.417 -172.281)"/><rect class="e" width="9.886" height="2.059" rx="0.907" transform="translate(1133.173 -170.339)"/><path class="e" d="M1115.671-179.2a31.419,31.419,0,0,0-.727-5.529,41.221,41.221,0,0,1-.677-4.568c-.159-2.321.3-3.943,1.4-4.961a1.155,1.155,0,0,1,.728-.357,1.135,1.135,0,0,1,.807.328c.036-.044.066-.087.1-.123a1.549,1.549,0,0,1,.728-.51,1.09,1.09,0,0,1,.873.116,1.492,1.492,0,0,1,.473.436,1.377,1.377,0,0,1,1.041-.182c.661.167,1.12.794,1.316,1.8a18.367,18.367,0,0,1-.545,7.275,20.912,20.912,0,0,0-.677,6.125l-.727.066a21.343,21.343,0,0,1,.691-6.336,17.455,17.455,0,0,0,.546-6.962c-.08-.407-.284-1.112-.779-1.237a.686.686,0,0,0-.509.11,2.684,2.684,0,0,1,.123.392,9.05,9.05,0,0,1,.254,2.183.812.812,0,0,1-.24.625.563.563,0,0,1-.56.116,1.106,1.106,0,0,1-.641-.792,4.015,4.015,0,0,1-.123-2.1,1.847,1.847,0,0,1,.291-.589.927.927,0,0,0-.305-.305.362.362,0,0,0-.3-.044.8.8,0,0,0-.371.284c-.059.066-.1.131-.153.2a3.9,3.9,0,0,1,.727,2.829c-.072.5-.371.982-.894.982a.94.94,0,0,1-.794-.648,3.64,3.64,0,0,1,.051-3.085h-.036c-.174-.167-.284-.2-.327-.2a.573.573,0,0,0-.262.159c-.924.851-1.317,2.329-1.171,4.365a42.164,42.164,0,0,0,.661,4.482,31.806,31.806,0,0,1,.728,5.659Zm1.66-13.822a2.912,2.912,0,0,0,.094,2.109.593.593,0,0,0,.161.225.6.6,0,0,0,.146-.348,3.2,3.2,0,0,0-.408-1.957Zm1.87.072a3.882,3.882,0,0,0,.167,1.564h0a8.338,8.338,0,0,0-.175-1.535Z" transform="translate(19.873 4.659)"/><path class="e" d="M1041.191-134.575h-17.568a9.312,9.312,0,0,1,11.874-5.694A9.305,9.305,0,0,1,1041.191-134.575Z" transform="translate(8.057 11.723)"/></g></svg>