<svg xmlns="http://www.w3.org/2000/svg" xmlns:xlink="http://www.w3.org/1999/xlink" width="242.277" height="186.056" viewBox="0 0 242.277 186.056"><defs><style>.a,.g,.w,.x{fill:#e69600;}.a{opacity:0.21;}.a,.aa,.ab,.e,.w,.x{isolation:isolate;}.b,.e{fill:#fd7b28;}.c{fill:#4f6200;}.d{fill:#96aa00;}.e,.x{opacity:0.18;}.f{fill:url(#a);}.h{opacity:0.05;fill:url(#b);}.i,.p{opacity:0.3;}.i{fill:url(#c);}.j{fill:#473f47;}.k{fill:#ffbbab;}.l{fill:#963637;}.m{fill:#fff;}.n{fill:#212741;}.o{fill:#eca217;}.p{fill:url(#d);}.ae,.q{fill:#c68300;}.q{opacity:0.53;}.r{fill:url(#e);}.s{fill:url(#f);}.ac,.t{opacity:0.07;}.t{fill:url(#g);}.ab,.u{fill:#68e1fd;}.v{fill:url(#h);}.w{opacity:0.29;}.y{fill:url(#i);}.z{fill:#352f35;}.aa{fill:#ffeade;}.ab{opacity:0.16;}.ac{fill:url(#j);}.ad{opacity:0.06;fill:url(#k);}.af{fill:url(#l);}</style><linearGradient id="a" x1="41.076" y1="9.847" x2="44.62" y2="8.908" gradientUnits="objectBoundingBox"><stop offset="0.01"/><stop offset="0.08" stop-opacity="0.69"/><stop offset="0.21" stop-opacity="0.322"/><stop offset="1" stop-opacity="0"/></linearGradient><linearGradient id="b" x1="3.143" y1="28.361" x2="2.411" y2="32.842" xlink:href="#a"/><linearGradient id="c" x1="155.67" y1="10.178" x2="148.728" y2="9.436" xlink:href="#a"/><linearGradient id="d" x1="182.909" y1="11.762" x2="188.707" y2="11.599" xlink:href="#a"/><linearGradient id="e" x1="5.313" y1="21.466" x2="0.733" y2="20.422" xlink:href="#a"/><linearGradient id="f" x1="6.059" y1="20.642" x2="2.726" y2="20.868" xlink:href="#a"/><linearGradient id="g" x1="0.975" y1="21.936" x2="4.816" y2="22.717" xlink:href="#a"/><linearGradient id="h" x1="5.207" y1="41.743" x2="2.389" y2="42.639" xlink:href="#a"/><linearGradient id="i" x1="0.878" y1="44.626" x2="1.112" y2="23.016" xlink:href="#a"/><linearGradient id="j" x1="4.605" y1="66.198" x2="6.165" y2="68.662" xlink:href="#a"/><linearGradient id="k" x1="4.495" y1="26.172" x2="8.568" y2="26.424" xlink:href="#a"/><linearGradient id="l" x1="5.209" y1="8.475" x2="-2.597" y2="8.746" xlink:href="#a"/></defs><path class="a" d="M563.494-222.916a46.452,46.452,0,0,0-33.074,18.253c-7.723,10.364-10.7,23.4-13.06,36.117a47.312,47.312,0,0,1-2.931,10.977c-2.842,6.252-8.291,10.843-12.893,15.935-11.723,13-17.752,30.589-17.607,48.007.078,15.367,5.115,38.446,20.215,45.767a107.972,107.972,0,0,0,71.487,7.8c15.144-3.611,29.82-10.564,45.388-10.2S651.239-42.2,666.8-41.441a52.853,52.853,0,0,0,45.221-22.365,72.82,72.82,0,0,0,9.617-21.652,121.743,121.743,0,0,0,4.524-28.439c1.137-30.634-19.435-60.321-44.987-75.632C624.116-223.662,579.3-224.164,563.494-222.916Z" transform="translate(-483.926 223.251)"/><path class="b" d="M533.258-89.676a11.052,11.052,0,0,0,4.279,2.975c7.221,3.343,14.776,6.441,22.722,7.132,11.69,1.014,23.145-3.087,34.155-7.121-1.114.178-5.115-3.343-6.14-4.056-2.017-1.326-4-2.708-5.984-4.067-3.154-2.151-7.087-2.875-10.832-3.455a54.207,54.207,0,0,0-25.2,2.151A51.059,51.059,0,0,0,533.258-89.676Z" transform="translate(-478.284 237.476)"/><path class="c" d="M533.258-89.676a11.052,11.052,0,0,0,4.279,2.975c7.221,3.343,14.776,6.441,22.722,7.132,11.69,1.014,23.145-3.087,34.155-7.121-1.114.178-5.115-3.343-6.14-4.056-2.017-1.326-4-2.708-5.984-4.067-3.154-2.151-7.087-2.875-10.832-3.455a54.207,54.207,0,0,0-25.2,2.151A51.059,51.059,0,0,0,533.258-89.676Z" transform="translate(-478.284 237.476)"/><path class="b" d="M571.159-108.973c-4.458-4.736-9.038-9.539-14.621-12.927s-12.4-5.238-18.71-3.566l15.6,22.978c3.009,4.457,6.073,8.915,10.286,12.258,7.377,5.772,21.084,8.982,30.144,6.207-1.4-4.29-7-8.324-10.107-11.612Z" transform="translate(-477.761 234.364)"/><path class="d" d="M571.159-108.973c-4.458-4.736-9.038-9.539-14.621-12.927s-12.4-5.238-18.71-3.566l15.6,22.978c3.009,4.457,6.073,8.915,10.286,12.258,7.377,5.772,21.084,8.982,30.144,6.207-1.4-4.29-7-8.324-10.107-11.612Z" transform="translate(-477.761 234.364)"/><path class="e" d="M528.383-77.78c5.828,0,11.89.68,16.86,3.722a2.154,2.154,0,0,1,1.025,1.036c.39,1.114-.981,1.995-2.117,2.362a66.929,66.929,0,0,1-21.507,2.752A123.153,123.153,0,0,1,508.158-69.1a10.941,10.941,0,0,1-4.792-1.4,3.945,3.945,0,0,1-1.783-4.324c.591-1.649,2.518-2.418,4.268-2.507C513.261-77.8,520.895-77.747,528.383-77.78Z" transform="translate(-481.92 239.889)"/><path class="e" d="M673.294-81.384l11.8,1.638a3.031,3.031,0,0,1,1.582.535,2.075,2.075,0,0,1,.268,2.485,6.019,6.019,0,0,1-1.917,1.872c2.8.669,7.667.524,7.533,4.513a3.922,3.922,0,0,1-2.4,3.41,7.732,7.732,0,0,1-2.63.412c-8.725.3-17.585.6-26.032-1.594-1.616-.412-3.521-1.326-3.521-2.987,0-.591.256-1.114.29-1.738.189-3.778-7.879-1.56-9.951-1.438-4.613.267-9.227.446-13.84.568-9.428.256-18.855.245-28.271.111a50.725,50.725,0,0,0-8.915.368c-2.318.39-4.569,1.114-6.842,1.683a58.466,58.466,0,0,1-22.934,1.181c-3.466-.513-7.723-2.374-7.5-5.873.189-3,3.6-4.558,6.508-5.338a100.372,100.372,0,0,1,13.083-2.541,194.752,194.752,0,0,1,23.513-1.17c17.061-.134,34.122-.145,51.194-.156C660.056-85.485,667.611-82.175,673.294-81.384Z" transform="translate(-475.224 239.013)"/><path class="b" d="M522.554-106.552l-.713,34.835h-4.725l-1.36-27.692-2.964,27.692-5.416.9L506.128-107.7Z" transform="translate(-481.386 236.467)"/><path class="f" d="M522.554-106.552l-.713,34.835h-4.725l-1.36-27.692-2.964,27.692-5.416.9L506.128-107.7Z" transform="translate(-481.386 236.467)"/><path class="g" d="M536.713-134.961a128.9,128.9,0,0,1-7.043,11.511,5.159,5.159,0,0,1-3.811,1.761,6.246,6.246,0,0,1-1.75-.267c-1.683-.412-3.343-.9-5.015-1.449a2.143,2.143,0,0,1-.4-.2h0c-1.114-.813-1.359-3.053-1.6-4.346-.134-.713-.791-3.544.424-3.755.613-.111,2.619,1.672,3.187,2.017a39.905,39.905,0,0,0,3.677,1.972.884.884,0,0,0,.5.134.922.922,0,0,0,.479-.323,44.251,44.251,0,0,0,6.363-9.873c.49.212.969.446,1.449.691q1,.525,1.972,1.114l.2.111A6.637,6.637,0,0,1,536.713-134.961Z" transform="translate(-480.167 233.027)"/><path class="h" d="M536.589-135.156a128.915,128.915,0,0,1-7.043,11.511,5.159,5.159,0,0,1-3.811,1.761,6.247,6.247,0,0,1-1.75-.267c-1.683-.412-3.343-.9-5.015-1.449a2.715,2.715,0,0,1-.412-.2c-.089,0-.323-.869-.357-.981a7.6,7.6,0,0,1-.256-1.114,8.2,8.2,0,0,1,0-2.229c0-.256.067-.446.3-.245s.145.212.245.3.345.245.513.368c.468.334.936.669,1.438.981a13.151,13.151,0,0,0,3.064,1.337,5.919,5.919,0,0,0,2.229.323,3.342,3.342,0,0,0,2.63-1.95c.39-.6.769-1.226,1.114-1.85a11.942,11.942,0,0,1,1.226-1.772c.981-1.181,1.95-2.362,2.931-3.533a15.78,15.78,0,0,1,1.649-1.906A9.458,9.458,0,0,1,536.589-135.156Z" transform="translate(-480.044 233.222)"/><path class="i" d="M510.608-72.263v-32.294l-4.48-3.143,1.516,35.983Z" transform="translate(-481.386 236.467)"/><path class="g" d="M509.848-134.33a40.069,40.069,0,0,0-3.677,2.084c-2.53,1.616-2.073,2.362-1.6,5.16a111.491,111.491,0,0,1,1.482,18.064,15.924,15.924,0,0,0,.3,4.368,12.377,12.377,0,0,1,.936,2.608c3.9.535,12.815,2.541,15.479-1.46s-2.039-17.451-1.181-23.491-6.987-6.686-6.987-6.686Z" transform="translate(-481.607 233.421)"/><path class="j" d="M516.585-113.618l.9-5.059a1.438,1.438,0,0,1,1.293-1.114l9.717-.758a.969.969,0,0,1,1.023.913.94.94,0,0,1-.009.2l-3.744,16.86a.968.968,0,0,1-.936.747h-8.915a.958.958,0,0,1-.961-.956.948.948,0,0,1,.013-.158Z" transform="translate(-480.377 234.997)"/><path class="k" d="M518.052-139.1a7.237,7.237,0,0,1-.067,1.2,7.345,7.345,0,0,1-.969,2.351,1.8,1.8,0,0,1-.5.646,1.98,1.98,0,0,1-1.46.123.724.724,0,0,0-.345,0c-.279.111-.312.49-.3.791l.078,1.382a.863.863,0,0,1-.089.557.9.9,0,0,1-.368.234,2.963,2.963,0,0,1-2.986-.68,2.125,2.125,0,0,1-.468-.624,2.687,2.687,0,0,1-.167-.724c-.167-1.326,0-2.663-.123-4a12.675,12.675,0,0,1-.1-3.343,3.654,3.654,0,0,1,2.14-2.7,5.468,5.468,0,0,1,3.5.078,16.694,16.694,0,0,1,1.627.546,1.121,1.121,0,0,1,.635.468c.212.423,0,1.036,0,1.493C518.041-140.541,518.052-139.806,518.052-139.1Z" transform="translate(-480.93 232.3)"/><path class="l" d="M518.209-144.4c.123.267.3.5.435.769a1.116,1.116,0,0,1,.145.847,1.228,1.228,0,0,1-.423.568,4.81,4.81,0,0,1-3.343.836,6.161,6.161,0,0,0-1.014,0,1.421,1.421,0,0,0-.892.435,3.24,3.24,0,0,0-.435,1.5v.089h0c-.379,0-.736-.39-1.114-.245a.568.568,0,0,0-.279.479,1.2,1.2,0,0,0,.1.68.705.705,0,0,1,.078.267.533.533,0,0,1,0,.178l-.234.657a.992.992,0,0,1-.423.6.979.979,0,0,1-.891-.167,1.349,1.349,0,0,1-.49-.412,1.307,1.307,0,0,1-.178-.468,22.09,22.09,0,0,1-.39-5,2.829,2.829,0,0,1,.156-1.114,2.612,2.612,0,0,1,1.961-1.237,21.112,21.112,0,0,1,4.457-.323,6.56,6.56,0,0,1,1.393.089,2.239,2.239,0,0,1,1.192.68" transform="translate(-481.076 232.147)"/><path class="l" d="M515.232-138.206a1.118,1.118,0,0,0-.524.568v.089c0,.022,0,0,.078,0a11.636,11.636,0,0,0,1.527,0,2.9,2.9,0,0,0,1.114-.29.133.133,0,0,0,.078,0,.185.185,0,0,0,0-.078.757.757,0,0,0-.8-.714h-.027A3.347,3.347,0,0,0,515.232-138.206Z" transform="translate(-480.405 232.929)"/><path class="m" d="M510.492-134.9s-1.114.758-1.114,1.582,5.9,17.328,5.9,17.328.134-15.8,0-16.537a12.209,12.209,0,0,0-.791-2.073S512.22-132.905,510.492-134.9Z" transform="translate(-481.015 233.356)"/><path class="n" d="M512.149-133.56l-.4,1.282.669.546.312,8.971,2.329,6.619.056-6.731-1.995-8.893.724-1.259-.958-.535Z" transform="translate(-480.744 233.509)"/><path class="o" d="M517.766-110.475a15.156,15.156,0,0,1-2.34,2.374l-.535.423a1.312,1.312,0,0,1-.691.323,1.169,1.169,0,0,1-.513-.123q-5.115-1.982-10.029-4.457c-1.36-.7-2.864-1.616-3.154-3.12a5.026,5.026,0,0,1,0-1.582,45.632,45.632,0,0,1,2.964-11.144c.412-1,.925-2.942,1.995-3.6h.123l.156-.078c1.449-.524,2.708.925,3.109,2.151a9.856,9.856,0,0,1-.167,5.416,33.49,33.49,0,0,0-1.237,5.327,1.42,1.42,0,0,0,.067.747,1.553,1.553,0,0,0,.557.557Z" transform="translate(-482.037 233.737)"/><path class="n" d="M515.988-75.372l.256,2.563,1.616.3.724-.635,1.237.981h4.847s1.237-2.128-1.449-2.853l-2.674-.724Z" transform="translate(-480.259 240.122)"/><path class="n" d="M507.488-75.372l.256,2.563,1.616.3.724-.635,1.226.981h4.859s1.226-2.128-1.449-2.853l-2.686-.724Z" transform="translate(-481.231 240.122)"/><path class="p" d="M514.768-100.079l2.173-1.761,1.527,29.085-2.34.368Z" transform="translate(-480.398 237.137)"/><path class="q" d="M515.466-108.113l-.535.423a1.312,1.312,0,0,1-.691.323,1.169,1.169,0,0,1-.513-.123q-5.115-1.982-10.029-4.457c-1.36-.7-2.864-1.616-3.154-3.12a5.026,5.026,0,0,1,0-1.582,45.63,45.63,0,0,1,2.964-11.144c.412-1,.877-2.933,1.947-3.591l-.294.131.523-.278.343-.114a3.12,3.12,0,0,1,2.863,2.326s-5.16,10.564-4.937,12.158,11.054,6.764,11.054,6.764Z" transform="translate(-482.032 233.748)"/><path class="k" d="M518.776-111.75a1.921,1.921,0,0,1,.769.379.77.77,0,0,1,.256.78,2.544,2.544,0,0,1-.3.468c-.134.245-.156.557-.29.813a1.744,1.744,0,0,1-1.114.78,3.986,3.986,0,0,1-3.911-.357c-.758-.657-2.229-3.343-.6-3.733a6.557,6.557,0,0,1,2.117.223A18.819,18.819,0,0,1,518.776-111.75Z" transform="translate(-480.618 235.903)"/><path class="b" d="M648.206-92.381H600.578l8.436-23.758H641.1Z" transform="translate(-470.585 235.502)"/><path class="g" d="M648.206-92.381H600.578l8.436-23.758H641.1Z" transform="translate(-470.585 235.502)"/><path class="g" d="M7.67,0H132.853a7.67,7.67,0,0,1,7.67,7.67V87.531a7.67,7.67,0,0,1-7.67,7.67H7.67A7.67,7.67,0,0,1,0,87.531V7.67A7.67,7.67,0,0,1,7.67,0Z" transform="translate(85.563 33.076)"/><path class="r" d="M665.088-120.348a.678.678,0,0,0,.4.7,1.86,1.86,0,0,0,.858.111H667.6a.68.68,0,0,1,.368.078.638.638,0,0,1,.178.513l.134,5.3a7.679,7.679,0,0,1-.49,3.566c-.267.546-.669,1.014-.947,1.549a2.105,2.105,0,0,0-.234,1.738c2.117.089,4.235.089,6.341,0a1.6,1.6,0,0,0,1.114-.334,1.408,1.408,0,0,0,.3-.568,45.006,45.006,0,0,0,1.538-5.394,21.153,21.153,0,0,0,.591-5.293,10.272,10.272,0,0,0-1.46-5.082,3.242,3.242,0,0,0-.869-.992,3.568,3.568,0,0,0-1.2-.479,34.621,34.621,0,0,0-6.43-.847,3.344,3.344,0,0,0-2.106.323,2.228,2.228,0,0,0-.88,2.017,6.772,6.772,0,0,0,.646,2.229" transform="translate(-463.385 234.394)"/><path class="s" d="M571.615-111.806q2.006-6.6,4.558-13.027a.875.875,0,0,1,.368-.412.83.83,0,0,1,.568,0l3.711.524a17.141,17.141,0,0,1-1.828,5.962,49.739,49.739,0,0,0-3.143,10.62,2.422,2.422,0,0,1-.334,1.036,2.351,2.351,0,0,1-1.56.813c-1.816.379-3,.936-3.343-.914C570.389-108.618,571.236-110.557,571.615-111.806Z" transform="translate(-474.016 234.454)"/><path class="t" d="M588-110.8h3.989a1.12,1.12,0,0,1,.78.189c.189.167.234.435.39.646.323.446.969.435,1.516.379a34.7,34.7,0,0,0,5.65-1.114l-.713-4.859a43.2,43.2,0,0,1-10.308,1.014l-.189-5.85h5.26a.8.8,0,0,0,.946-.625.8.8,0,0,0-.01-.367,15.44,15.44,0,0,0-.123-2.14.64.64,0,0,0-.189-.446.672.672,0,0,0-.49-.067,63.379,63.379,0,0,1-12.091.446,62,62,0,0,1-3.232,17.551c2.14-.234,4.68.134,6.742-.334.981-.223.936-.323,1.248-1.382A28.967,28.967,0,0,1,588-110.8Z" transform="translate(-473.031 234.596)"/><path class="j" d="M701.22-185.023v68.5H560.7v-68.5a8.559,8.559,0,0,1,8.547-8.547H692.672A8.559,8.559,0,0,1,701.22-185.023Z" transform="translate(-475.145 226.646)"/><path class="u" d="M670.052-127.616a14.132,14.132,0,0,1-5.293,2.63.907.907,0,0,0-.635.3.819.819,0,0,0,0,.591,23.477,23.477,0,0,0,1.248,4.067,20.515,20.515,0,0,0,8.034-2.83,3.045,3.045,0,0,0,1.025-.891,3.351,3.351,0,0,0,.334-1.393c.1-1.326.29-3.209-.49-4.379-.624-.914-.958-.312-1.783.256Z" transform="translate(-463.323 233.917)"/><path class="v" d="M670.953-127.817a14.05,14.05,0,0,1-5.293,2.63.883.883,0,0,0-.646.312.789.789,0,0,0,0,.579,23.44,23.44,0,0,0,1.237,4.067,20.573,20.573,0,0,0,8.046-2.83,2.89,2.89,0,0,0,1.014-.891,2.982,2.982,0,0,0,.334-1.393c.1-1.315.3-3.209-.49-4.368-.613-.914-.958-.323-1.783.245Z" transform="translate(-463.221 233.895)"/><path class="m" d="M698.919-183.588v64.633H562.6v-64.633a8.247,8.247,0,0,1,8.291-8.2H690.594a8.247,8.247,0,0,1,8.324,8.168Z" transform="translate(-474.928 226.85)"/><path class="w" d="M698.919-183.588v64.633H562.6v-64.633a8.247,8.247,0,0,1,8.291-8.2H690.594a8.247,8.247,0,0,1,8.324,8.168Z" transform="translate(-474.928 226.85)"/><rect class="x" width="44.887" height="41.232" transform="translate(99.46 43.518)"/><path class="g" d="M668.77-91.619a7.188,7.188,0,0,0-2.106,5.1,7.047,7.047,0,0,0,.613,2.909,7.2,7.2,0,0,0,4.747,4.067v1.649H585.1a8.6,8.6,0,0,1-8.179-5.906,8.447,8.447,0,0,1-.446-2.719,8.614,8.614,0,0,1,8.6-8.625h86.943v1.649A7.349,7.349,0,0,0,668.77-91.619Z" transform="translate(-473.341 237.903)"/><path class="y" d="M671.978-80.424v1.649H585.057a8.6,8.6,0,0,1-8.179-5.906c3.343.579,24.193,3.911,35.827-2.719L667.2-84.492A7.2,7.2,0,0,0,671.978-80.424Z" transform="translate(-473.295 238.788)"/><path class="m" d="M586.574-74.931c2.463.134,5.1.245,7.21-1.047a1.1,1.1,0,0,0,.379-.334.725.725,0,0,0-.067-.7,1.536,1.536,0,0,0-.568-.468,7.82,7.82,0,0,0-2.507-.724c-1.114-.189-2.129-.368-3.2-.479-.691-.067-1.861-.345-2.418.212a2.138,2.138,0,0,0-.267,1.772C585.27-75.7,585.46-75,586.574-74.931Z" transform="translate(-472.36 239.77)"/><path class="m" d="M571.829-77.46c1.939,1.527,4.056,3.109,6.519,3.254a.9.9,0,0,0,.49-.067.712.712,0,0,0,.357-.613,1.608,1.608,0,0,0-.2-.713,8.455,8.455,0,0,0-1.649-2.017c-.769-.758-1.538-1.516-2.362-2.229-.524-.446-1.326-1.348-2.1-1.2s-.981.8-1.237,1.3C571.193-78.842,570.948-78.151,571.829-77.46Z" transform="translate(-473.94 239.513)"/><path class="m" d="M665.046-91.758a7.222,7.222,0,0,0,.009,10.213,7.227,7.227,0,0,0,3.245,1.867v.245H616.281a7.243,7.243,0,0,1-7.243-7.243,7.244,7.244,0,0,1,7.243-7.243H668.3v.234A7.337,7.337,0,0,0,665.046-91.758Z" transform="translate(-469.617 238.043)"/><path class="m" d="M520.029-119.534l.256-.847a.413.413,0,0,1,.346-.29l5.137-.379a.257.257,0,0,1,.282.227.25.25,0,0,1-.015.118l-.312.925a.489.489,0,0,1-.435.334l-4.948.3a.3.3,0,0,1-.325-.274A.294.294,0,0,1,520.029-119.534Z" transform="translate(-479.798 234.94)"/><path class="k" d="M538.905-139.127a3.881,3.881,0,0,1-1.616,1.56,13.849,13.849,0,0,1-1.973.747,3.347,3.347,0,0,0-1.738,1.114l-.078.1q-.969-.578-1.972-1.114c.089-.178.256-.39.323-.524.145-.323.256-.657.39-.981a6.169,6.169,0,0,1,2.318-2.741c.078,0,.178-.1.256,0a.19.19,0,0,1,0,.156,2.771,2.771,0,0,1-.379,1.348l4.034-1.449a.549.549,0,0,1,.323-.056.48.48,0,0,1,.279.29A1.9,1.9,0,0,1,538.905-139.127Z" transform="translate(-478.482 232.657)"/><path class="z" d="M590.375-76.989v2.452a23.928,23.928,0,0,1-4.457.123.434.434,0,0,1-.509-.343.406.406,0,0,1,0-.147c-.312-4.067.2-8.168-.267-12.2a8.961,8.961,0,0,0-.579-2.474,12.555,12.555,0,0,0-1.382-2.229,50.914,50.914,0,0,1-4.157-6.786,15.906,15.906,0,0,1-1.549-7.723c0-2.663,1.4-3.811,4-3.12a2.776,2.776,0,0,1,1.114.446,2.985,2.985,0,0,1,.646.836,65.113,65.113,0,0,1,4.157,7.945C590.241-92.914,590.475-84.879,590.375-76.989Z" transform="translate(-473.23 236.245)"/><path class="k" d="M590.417-121.172a21.979,21.979,0,0,0,12.748-9.539,2.83,2.83,0,0,0,.546-2.452.382.382,0,0,0-.189-.245.44.44,0,0,0-.457.123l-6.865,4.457a20.6,20.6,0,0,1-6.051,3.053,7.806,7.806,0,0,0-.7,2.117A3.86,3.86,0,0,0,590.417-121.172Z" transform="translate(-471.857 233.524)"/><rect class="aa" width="80.524" height="64.89" transform="translate(121.09 58.885)"/><path class="ab" d="M603.936-113.035a2.823,2.823,0,0,1-1.237.468,33.656,33.656,0,0,1-8.915.579,1.324,1.324,0,0,1-.825-.234,1.369,1.369,0,0,1-.368-.958,9.069,9.069,0,0,1,.178-2.741c0-.123,7.288-.111,7.979,0C601.718-115.765,605.652-114.417,603.936-113.035Z" transform="translate(-471.502 235.517)"/><path class="ab" d="M658.836-135.829a4.919,4.919,0,0,0,0,1.761,6.025,6.025,0,0,0,1.2,2.229,37.627,37.627,0,0,1,5.137,10.029,21.836,21.836,0,0,0,.5-6.029,10.459,10.459,0,0,0-.156-2.117,13.933,13.933,0,0,0-1.114-2.775,21.172,21.172,0,0,1-1.46-4.457c-.223-1.114-.6-3.789-2.3-3.611C659.193-140.565,658.948-136.91,658.836-135.829Z" transform="translate(-463.931 232.68)"/><path class="j" d="M573.038-103.891a38.791,38.791,0,0,0,2.73,7.4c.958,2.017,3.176,4.6,3.165,6.876,0,4.1-4.313,9.572-6.965,12.381a23.382,23.382,0,0,0,4.458,2.3,1.644,1.644,0,0,0,1.114.156,1.751,1.751,0,0,0,.914-.936l2.886-5c1.6-2.786,3.265-5.728,3.4-8.915a22.849,22.849,0,0,0-.245-3.488c-.3-2.463,0-5.249-.613-7.645-.546-2.229-1.259-4.346-1.761-6.564a4.838,4.838,0,0,0-1.493-3,4.029,4.029,0,0,0-1.3-.568c-2.229-.635-4.68-.713-5.906,1.616A7.943,7.943,0,0,0,573.038-103.891Z" transform="translate(-473.857 236.057)"/><path class="m" d="M591.827-126.2c1.226.446.078,3.343-.245,4.157a.746.746,0,0,1-.856.618.651.651,0,0,1-.114-.028c-1.839-.167-3.677-.39-5.5-.657a2.964,2.964,0,0,1-1.114-.334,1.994,1.994,0,0,1-.813-1.315c-.167-.858-.256-2.908.49-3.566.535-.479,1.616-.134,2.318-.067A24.583,24.583,0,0,1,591.827-126.2Z" transform="translate(-472.587 234.194)"/><path class="ac" d="M591.482-125.109c1.226.446.078,3.343-.256,4.157a.94.94,0,0,1-.345.524.96.96,0,0,1-.613.067c-1.85-.167-3.677-.39-5.505-.646a3.144,3.144,0,0,1-1.17-.345,1.97,1.97,0,0,1-.8-1.315c-.178-.858-.256-2.909.49-3.566.535-.468,1.6-.134,2.318-.067A24.665,24.665,0,0,1,591.482-125.109Z" transform="translate(-472.633 234.319)"/><path class="k" d="M588.459-135.49c.223.368.657.579.8.969s-.156.981-.334,1.46c-.234.669-.156,1.426-.39,2.1a.8.8,0,0,1-.245.379.913.913,0,0,1-.357.145,5.28,5.28,0,0,1-1.516.089.431.431,0,0,0-.29,0,.392.392,0,0,0-.134.256,8.106,8.106,0,0,0,0,3.867c.111.412.234.925-.078,1.226a.8.8,0,0,1-.39.189,2.75,2.75,0,0,1-2.541-1.215,11.321,11.321,0,0,1-1.493-2.229,2.322,2.322,0,0,1-.256-.7,2.738,2.738,0,0,1,.134-.947,15.8,15.8,0,0,0,.5-3.221,12.638,12.638,0,0,1,.5-4.112,2.233,2.233,0,0,1,.847-1.114,2.72,2.72,0,0,1,1.493-.234,3.938,3.938,0,0,1,2.808.914C587.779-137.373,588.192-135.98,588.459-135.49Z" transform="translate(-472.796 232.932)"/><path class="j" d="M588.266-138.54c.412-.078.713.479.557.858a1.279,1.279,0,0,1-1.014.657,11.563,11.563,0,0,0-1.237.178,1.016,1.016,0,0,0-.769.892.948.948,0,0,0-1.047.691,2.717,2.717,0,0,0,0,1.371c-.134.145-.368,0-.49-.1s-.2-.323-.357-.423c-.357-.189-.78.256-.735.658a1.813,1.813,0,0,0,.657.981.58.58,0,0,1,.178.223c.111.334-.334.568-.68.646a1.766,1.766,0,0,1-.089.769.633.633,0,0,1-.591.435c-.234,0-.423-.189-.635-.279s-.546,0-.568.2c-.357-.747,0-1.449-.134-2.229s-.713-.412-1.114-.847c-.212-.245-.2-.613-.3-.925a11.523,11.523,0,0,1-.546-1.114c-.156-.691.423-1.315.947-1.783a.679.679,0,0,1,.167-.769,1.509,1.509,0,0,1,.758-.323.44.44,0,0,0,.2-.078.3.3,0,0,0,0-.357c-.167-2.106,3.265-1.527,4.524-1.415a3.355,3.355,0,0,1,1.482.5C587.686-139.989,588.734-138.629,588.266-138.54Z" transform="translate(-473.015 232.683)"/><path class="m" d="M582.308-129.787h.078c1.839.457,4.513,2.128,5.115,3.989a16.46,16.46,0,0,1,.713,7.9c-.379,1.683-1.4,3.143-1.828,4.781a39.131,39.131,0,0,1-1.293,5.36,3.951,3.951,0,0,1-1.471,2.006,4.35,4.35,0,0,1-2.028.446c-2.062.111-4.959.813-6.686-.6a5.568,5.568,0,0,1-1.738-4.6,16.3,16.3,0,0,1,1.315-4.914l2.864-7.466C578.063-124.661,579.734-130.3,582.308-129.787Z" transform="translate(-473.722 233.937)"/><path class="ad" d="M580.166-112.329a2.5,2.5,0,0,1,.312.869,2.258,2.258,0,0,1-.1.657,13.379,13.379,0,0,0-.368,3.711.822.822,0,0,0,.189.624.867.867,0,0,0,.557.167,4.031,4.031,0,0,0,2.128-.212,3.668,3.668,0,0,0,1.56-1.961,39.172,39.172,0,0,0,2.073-7.021,2.878,2.878,0,0,0,.111-1.192,2.321,2.321,0,0,0-1.114-1.426c-.5-.345-1.114-.591-1.549-.958-.947-.735-1.649-2.05-2.942-2.229a1.917,1.917,0,0,0-2.006,1.426C578.239-117.644,579.119-114.446,580.166-112.329Z" transform="translate(-473.084 234.911)"/><path class="m" d="M583.36-124.736s2.619,7.1,3.143,7.622-5.059,3.655-5.059,3.655-3.633-6.9-3.455-9.9S581.265-127.556,583.36-124.736Z" transform="translate(-473.169 234.336)"/><path class="k" d="M581.088-115.38a2.641,2.641,0,0,0,3,2.23h0l4.747-.067c2.229,0,4.368-.1,6.552-.089a7.041,7.041,0,0,1,1.56.4,6.446,6.446,0,0,0,2.073.123,6.247,6.247,0,0,0,3.644-1.683,2.06,2.06,0,0,0,.747-2.229.559.559,0,0,0-.223-.256.72.72,0,0,0-.268,0,10.565,10.565,0,0,1-3.934-.067.975.975,0,0,0,.156-.557.349.349,0,0,0-.39-.334.576.576,0,0,0-.256.178,3.052,3.052,0,0,1-2.563,1.014c-3.6-.167-7.143-.936-10.742-1.114a6.107,6.107,0,0,0-2.5.256A2.965,2.965,0,0,0,581.088-115.38Z" transform="translate(-472.814 235.298)"/><path class="ae" d="M669.357-130.195a8.371,8.371,0,0,0-2.385,1.616,3.458,3.458,0,0,0-1.114,2.6,4.6,4.6,0,0,0,1.817,2.9c1,.88,2.229,1.805,2.307,3.154.724-.535,1.382-1.114,2.117-1.672a28.327,28.327,0,0,1,4.268-2.017,6.859,6.859,0,0,0,3.533-3.009,8.593,8.593,0,0,0,.624-2.808,13.984,13.984,0,0,0,.078-3.12,4.585,4.585,0,0,0-1.293-2.775,8.378,8.378,0,0,0-3.867-1.638,4.166,4.166,0,0,0-3.666,2.574c-.29.78-.156,1.672-.446,2.44A3.6,3.6,0,0,1,669.357-130.195Z" transform="translate(-463.118 233.119)"/><path class="k" d="M658.056-73.72a2.706,2.706,0,0,0-.814.212.781.781,0,0,0-.435.669.857.857,0,0,0,.5.624c.245.123.524.178.769.312a4.126,4.126,0,0,0,.658.368,1.888,1.888,0,0,0,1.2-.167,15.845,15.845,0,0,1,5.438-.891,2.048,2.048,0,0,0,.535,0,1.6,1.6,0,0,0,1.059-1.226,8,8,0,0,0,0-3.488.97.97,0,0,0-.134-.368.639.639,0,0,0-.3-.178c-1.816-.691-2.6,1.114-3.789,2.1A9.722,9.722,0,0,1,658.056-73.72Z" transform="translate(-464.154 239.863)"/><path class="m" d="M664.22-73.919h-.357a14.9,14.9,0,0,1-2.463.067.9.9,0,0,1-.446-.111.724.724,0,0,1-.268-.591,3.344,3.344,0,0,0,0-.669.275.275,0,0,0-.067-.123.229.229,0,0,0-.123,0,3.869,3.869,0,0,0-1.794.5,6.121,6.121,0,0,0-2.786,2.229.535.535,0,0,0-.1.29.4.4,0,0,0,.1.245c.736,1.114,2.574.869,3.7.635s2.452-.747,3.722-.947,2.9-.111,4.1-.847a1.25,1.25,0,0,0,.479-.457,1.917,1.917,0,0,0-.49-1.961.308.308,0,0,0-.167-.123.362.362,0,0,0-.256.067c-.568.357-.947.981-1.527,1.337A3.116,3.116,0,0,1,664.22-73.919Z" transform="translate(-464.267 240.117)"/><path class="j" d="M675.844-115.88s5.672,3.254,4.09,9.194c-1.393,5.193-5.382,8.425-7.934,12.86-1.415,2.452-1.114,6.474-1.75,9.338a69.078,69.078,0,0,1-3.02,10.308c-.267.669-.68,1.46-1.4,1.482a9.878,9.878,0,0,1-1-.189,4.7,4.7,0,0,1-.97,0c-.825-.189-.825-1.36-.635-2.229a68.26,68.26,0,0,0,1.627-12.113c.134-3.143-.713-6.474.178-9.528.7-2.407,4.914-15.334,4.914-15.334Z" transform="translate(-463.432 235.531)"/><path class="af" d="M675.844-115.88s5.672,3.254,4.09,9.194c-1.393,5.193-5.382,8.425-7.934,12.86-1.415,2.452-1.114,6.474-1.75,9.338a69.078,69.078,0,0,1-3.02,10.308c-.267.669-.68,1.46-1.4,1.482a9.878,9.878,0,0,1-1-.189,4.7,4.7,0,0,1-.97,0c-.825-.189-.825-1.36-.635-2.229a68.26,68.26,0,0,0,1.627-12.113c.134-3.143-.713-6.474.178-9.528.7-2.407,4.914-15.334,4.914-15.334Z" transform="translate(-463.432 235.531)"/><path class="k" d="M668.772-70.713a2.5,2.5,0,0,0-.736.4.745.745,0,0,0-.256.758.831.831,0,0,0,.635.479,4.079,4.079,0,0,1,.814.111,6.147,6.147,0,0,0,.747.2,1.934,1.934,0,0,0,1.114-.468,15.869,15.869,0,0,1,5.048-2.229,2.462,2.462,0,0,0,.513-.167,1.626,1.626,0,0,0,.646-1.415,7.713,7.713,0,0,0-.9-3.343.814.814,0,0,0-.212-.323.7.7,0,0,0-.334-.1c-1.939-.212-2.229,1.738-3.142,2.975A9.838,9.838,0,0,1,668.772-70.713Z" transform="translate(-462.901 239.998)"/><path class="j" d="M674.462-112.229a7.327,7.327,0,0,1,3.989,1.939c2.374,2.017,2.229,6.14,1.4,9.16-.423,1.582-2.942,6.564-3.343,7.979-.7,2.674.7,6,.825,8.7a69.171,69.171,0,0,1-.368,10.743c-.078.713-.29,1.571-.981,1.783-.334.089-.691,0-1.025.067a4.55,4.55,0,0,1-.925.267c-.847,0-1.114-1.114-1.114-1.95a69.694,69.694,0,0,0-1.438-12.147c-.646-3.076-2.307-6.1-2.229-9.272l.234-7.8c.089-2.875-.312-5.784.568-8.547a1.552,1.552,0,0,1,.513-.858,1.613,1.613,0,0,1,.825-.223,16.68,16.68,0,0,1,2.563,0Z" transform="translate(-462.73 235.925)"/><path class="k" d="M670.334-138.046c-.212.357-.657.568-.8.969s.167.981.334,1.46c.245.669.167,1.426.4,2.1a.767.767,0,0,0,.234.379.81.81,0,0,0,.357.134,4.656,4.656,0,0,0,1.527.089.513.513,0,0,1,.29,0,.418.418,0,0,1,.134.256,8.1,8.1,0,0,1-.067,3.867c-.1.412-.223.925.089,1.226a.8.8,0,0,0,.39.189,2.793,2.793,0,0,0,2.541-1.226,11.6,11.6,0,0,0,1.482-2.229,2.322,2.322,0,0,0,.256-.7,2.4,2.4,0,0,0-.134-.958,16.263,16.263,0,0,1-.49-3.209,12.439,12.439,0,0,0-.513-4.123,2.24,2.24,0,0,0-.836-1.114,2.773,2.773,0,0,0-1.5-.234,3.859,3.859,0,0,0-2.8.914C671.025-139.93,670.6-138.5,670.334-138.046Z" transform="translate(-462.703 232.636)"/><path class="m" d="M677.482-132.368s-4.157,2.151-5.416,3.833-3.343,2.931-2.518,6.129c.646,2.585-.056,4.992-.089,7.555,0,.7.3,1.27.29,1.984,0,1.248-1.114,2.351-.691,3.644.323,1.059,1.549,1.516,2.619,1.816l4.179,1.215a3.8,3.8,0,0,0,2.819.067c1.048-.579,1.282-1.972,1.382-3.165.245-3.087.156-6.8,1.426-9.684a8.919,8.919,0,0,0,.758-5.271C681.973-126.584,680.959-132.78,677.482-132.368Z" transform="translate(-462.763 233.643)"/><path class="ae" d="M671.449-140.108a2.872,2.872,0,0,0,.925,1.783c.49.457,1.114.769,1.6,1.215a2.03,2.03,0,0,1,.813,1.761.88.88,0,0,1,1.114.345.726.726,0,0,1-.111.769.934.934,0,0,1-.724.3,2.842,2.842,0,0,1,1.293,1.047c.357.524.535,1.114.858,1.705a5.565,5.565,0,0,0,1.482,1.393,2.011,2.011,0,0,1,.646.691,9.877,9.877,0,0,0,.435,1.226,16.663,16.663,0,0,0,1.192,1.5,5.491,5.491,0,0,1,.936,2.819,4.889,4.889,0,0,1,0-.9c.1-.178.2-.357.29-.535a4.922,4.922,0,0,0,.379-1.025,10.03,10.03,0,0,0,.067-2.452c0-1.75,1.649-5.048.323-6.552a14.445,14.445,0,0,0-1.683-1.192c-1.114-.969-1.337-2.674-2.073-4a5.021,5.021,0,0,0-3.065-2.4C674.38-143.083,671.237-142.537,671.449-140.108Z" transform="translate(-462.48 232.457)"/><path class="m" d="M677.4-129.94s-7.477,1.2-8.179,1.014-.7,6.2-.7,6.2,7.8-.234,10.319-1.861S680.865-129.55,677.4-129.94Z" transform="translate(-462.814 233.923)"/><path class="k" d="M670.29-121.806a2.639,2.639,0,0,1-3.426-1.488l-.007-.017-5.984-10.943c0-.958-.546-2.006-.245-2.908.156-.435.468-.791.624-1.215a2.553,2.553,0,0,0,0-1.727,8.23,8.23,0,0,0-.825-1.538.724.724,0,0,1,.836-.457,1.769,1.769,0,0,1,.869.546,5.578,5.578,0,0,1,1.56,3.978,4.555,4.555,0,0,0,0,1.348,2.864,2.864,0,0,0,.423.847c1.917,3.053,4.324,5.761,6.241,8.815a6.359,6.359,0,0,1,1,2.307A2.976,2.976,0,0,1,670.29-121.806Z" transform="translate(-463.739 232.531)"/><path class="m" d="M674.588-72.046l-.323.089a15.116,15.116,0,0,1-2.229.368.781.781,0,0,1-.424,0,.686.686,0,0,1-.323-.513,2.958,2.958,0,0,0-.123-.613.172.172,0,0,0-.078-.1.19.19,0,0,0-.112,0,3.633,3.633,0,0,0-1.594.691,5.744,5.744,0,0,0-2.229,2.429.588.588,0,0,0-.056.279.489.489,0,0,0,.123.212c.825.969,2.474.479,3.477.111s2.162-.981,3.343-1.326,2.641-.479,3.655-1.3a1.223,1.223,0,0,0,.39-.468,1.8,1.8,0,0,0-.7-1.75.322.322,0,0,0-.167-.089.3.3,0,0,0-.223.1c-.49.4-.758,1.014-1.237,1.415A2.91,2.91,0,0,1,674.588-72.046Z" transform="translate(-462.977 240.318)"/><path class="j" d="M667.854-113.871H597.928V-162.58H667.91ZM598.5-114.5H667.23v-47.461H598.5Z" transform="translate(-470.887 230.19)"/><path class="g" d="M603.8-123.5l-2.608-2.7,12.57-12.147,8.124,3.722,14.1-13.083,7.411,4.68,14.442-11.812,2.374,2.9-16.526,13.528-7.266-4.58-13.818,12.826-8.068-3.7Z" transform="translate(-470.515 231.076)"/><path class="g" d="M657.577-146.568h-3.744v-6.4h-6.575v-3.755h10.319Z" transform="translate(-465.246 230.861)"/></svg>